<?xml version="1.0" encoding="utf-8"?>
<!-- Generator: Adobe Illustrator 27.5.0, SVG Export Plug-In . SVG Version: 6.00 Build 0)  -->
<svg version="1.1" id="Layer_1" xmlns="http://www.w3.org/2000/svg" xmlns:xlink="http://www.w3.org/1999/xlink" x="0px" y="0px"
	 viewBox="0 0 250 250" style="enable-background:new 0 0 250 250;" xml:space="preserve">
<style type="text/css">
	.st0{fill:#FEC714;}
	.st1{clip-path:url(#SVGID_00000088819967413422743450000016058205765686236043_);fill:#FED841;}
	.st2{clip-path:url(#SVGID_00000088819967413422743450000016058205765686236043_);fill:#F0B71C;}
	.st3{clip-path:url(#SVGID_00000088819967413422743450000016058205765686236043_);fill:#E4AB25;}
	.st4{fill:#FCD507;}
	.st5{fill:#FDE366;}
	.st6{fill:#FCD010;}
	.st7{fill:#FDE158;}
	.st8{clip-path:url(#SVGID_00000180343380780542737050000010544693496715670939_);fill:#753C2B;}
	.st9{clip-path:url(#SVGID_00000180343380780542737050000010544693496715670939_);fill:#8F503A;}
	.st10{clip-path:url(#SVGID_00000180343380780542737050000010544693496715670939_);fill:#FCDD4F;}
	.st11{clip-path:url(#SVGID_00000180343380780542737050000010544693496715670939_);fill:#95543F;}
	.st12{clip-path:url(#SVGID_00000180343380780542737050000010544693496715670939_);fill:#FAAF1B;}
	.st13{clip-path:url(#SVGID_00000180343380780542737050000010544693496715670939_);fill:#FCC022;}
	.st14{clip-path:url(#SVGID_00000180343380780542737050000010544693496715670939_);fill:#F1A420;}
	.st15{clip-path:url(#SVGID_00000180343380780542737050000010544693496715670939_);fill:#753718;}
</style>
<g>
	<path class="st0" d="M33.84,101.52c0.17-3.92,3.7-7.38,7.57-7.45c3.1-0.05,5.89,1.74,8.51,3.41c16.47,10.48,34.56,18.36,53.4,23.27
		c6.8,1.77,13.73,3.16,20.75,3.44c25.46,1.01,49.02-12.43,71.01-25.44c3.91-2.31,8.25-5.27,8.73-9.82c0.16-1.45-0.12-2.93,0.14-4.36
		c0.38-2.11,1.83-3.83,3.23-5.45c2.35-2.7,4.69-5.39,7.04-8.09c0.6-0.7,1.26-1.42,2.14-1.67c0.63-0.18,1.31-0.08,1.95,0.06
		c3.8,0.83,7.28,3.14,9.55,6.34c-1.42,5.5-2.93,11.51-7.58,14.71c-1.19,0.81-2.51,1.41-3.71,2.21c-4.71,3.14-6.85,9.04-7.7,14.69
		c-0.85,5.65-0.73,11.47-2.32,16.95c-1.37,4.73-3.98,9.01-7.02,12.85c-13.56,17.09-35.41,25.44-56.88,28.3
		c-31.14,4.15-61.76-2.24-86.65-21.62c-5.65-4.4-12.28-11.05-15.33-17.57C36.93,118.29,33.44,110.33,33.84,101.52"/>
	<g>
		<defs>
			<path id="SVGID_1_" d="M33.84,101.52c0.17-3.92,3.7-7.38,7.57-7.45c3.1-0.05,5.89,1.74,8.51,3.41
				c16.47,10.48,34.56,18.36,53.4,23.27c6.8,1.77,13.73,3.16,20.75,3.44c25.46,1.01,49.02-12.43,71.01-25.44
				c3.91-2.31,8.25-5.27,8.73-9.82c0.16-1.45-0.12-2.93,0.14-4.36c0.38-2.11,1.83-3.83,3.23-5.45c2.35-2.7,4.69-5.39,7.04-8.09
				c0.6-0.7,1.26-1.42,2.14-1.67c0.63-0.18,1.31-0.08,1.95,0.06c3.8,0.83,7.28,3.14,9.55,6.34c-1.42,5.5-2.93,11.51-7.58,14.71
				c-1.19,0.81-2.51,1.41-3.71,2.21c-4.71,3.14-6.85,9.04-7.7,14.69c-0.85,5.65-0.73,11.47-2.32,16.95
				c-1.37,4.73-3.98,9.01-7.02,12.85c-13.56,17.09-35.41,25.44-56.88,28.3c-31.14,4.15-61.76-2.24-86.65-21.62
				c-5.65-4.4-12.28-11.05-15.33-17.57C36.93,118.29,33.44,110.33,33.84,101.52"/>
		</defs>
		<clipPath id="SVGID_00000152254651960210544770000001655022626769105536_">
			<use xlink:href="#SVGID_1_"  style="overflow:visible;"/>
		</clipPath>
		<path style="clip-path:url(#SVGID_00000152254651960210544770000001655022626769105536_);fill:#FED841;" d="M141.44,128.72
			c-0.33-0.42-0.77-0.76-1.27-0.93c-4.16-1.44-7.76-2.1-12.19-2.1c-0.05,0-0.1,0-0.16,0c-4.36,0.02-8.72,0.31-13.08,0.36
			c-0.2,0-0.41,0-0.61,0c-7.96,0-15.77-1.56-23.38-3.72c-7.14-2.02-14.25-4.43-21.02-7.42c-3.51-1.55-7.1-2.87-10.58-4.48
			c-1.71-0.79-3.46-1.46-5.2-2.21c-1.98-0.86-3.51-0.9-5.53-1.49c-0.13-0.04-0.26-0.06-0.39-0.06c-0.53,0-0.97,0.32-1.2,0.75
			c-0.4-0.26-0.8-0.53-1.2-0.8c-2.29-1.57-5.13-3.8-7.27-6.37c0.66-0.49,1.32-1,1.97-1.51c0.71-0.08,1.3-0.56,1.64-1.16
			c0.06-0.05,0.13-0.1,0.2-0.16c0.32-0.23,0.63-0.47,0.94-0.7c0.52-0.41,1.02-0.76,1.55-1.12c-0.09-0.03-0.19-0.06-0.28-0.09
			c-0.92-0.29-1.87-0.46-2.85-0.46c-0.04,0-0.09,0-0.13,0c-1.75,0.03-3.43,0.72-4.76,1.81c-0.12,0.1-0.25,0.21-0.36,0.32l0,0
			c1.38-1.27,3.21-2.09,5.12-2.12c0.05,0,0.09,0,0.13,0c3.04,0,5.79,1.69,8.38,3.25c16.47,9.98,34.56,17.49,53.4,22.16
			c6.8,1.68,13.73,3.01,20.75,3.27c0.91,0.03,1.81,0.05,2.71,0.05c24.42,0,47.1-12.33,68.3-24.28c3.91-2.2,8.25-5.02,8.73-9.35
			c0.04-0.35,0.05-0.69,0.05-1.04c0,0.35-0.01,0.69-0.05,1.04c-0.48,4.34-4.83,7.15-8.73,9.35c-0.44,0.25-0.89,0.5-1.34,0.75
			c0.53,1.4,1.31,2.75,2.13,3.94c-3.49,3.12-7.49,5.67-11.62,8.02c-0.64-0.34-1.38-0.54-2.21-0.54c-0.05,0-0.1,0-0.15,0
			c-5.64,0.16-10.66,3.99-15.47,6.48c-2.36,1.22-4.71,2.46-7.02,3.76c-2.26,1.27-4.56,3.3-7.06,4.01c-0.64,0.18-1.11,0.51-1.43,0.91
			C147.8,127.62,144.64,128.24,141.44,128.72 M203.84,86.12L203.84,86.12c0-0.52,0.02-1.05,0.12-1.56c0.38-2.11,1.83-3.83,3.23-5.45
			c2.35-2.7,4.69-5.39,7.04-8.09c0.6-0.7,1.26-1.42,2.14-1.67c0.24-0.07,0.49-0.09,0.74-0.09c0.41,0,0.82,0.07,1.21,0.16
			c0.72,0.16,1.43,0.37,2.13,0.63l0,0c-0.69-0.26-1.4-0.47-2.13-0.63c-0.4-0.09-0.81-0.16-1.21-0.16c-0.25,0-0.5,0.03-0.74,0.09
			c-0.88,0.24-1.54,0.97-2.14,1.67c-0.81,0.93-1.62,1.86-2.43,2.79c-0.16,0.18-0.31,0.36-0.47,0.53c0.01,0.26,0.03,0.52,0.06,0.78
			c-0.21-0.05-0.42-0.09-0.63-0.12c-1.19,1.37-2.38,2.73-3.57,4.1c-1.4,1.61-2.86,3.33-3.23,5.45
			C203.86,85.08,203.84,85.6,203.84,86.12"/>
		<path style="clip-path:url(#SVGID_00000152254651960210544770000001655022626769105536_);fill:#F0B71C;" d="M25.19,95.14
			c-1.01,4.55,0.45,9.26,1.93,13.59c1.56,4.58,3.48,9.09,5.95,13.25c5.02,8.46,11.08,16.73,18.22,23.49
			c14.87,14.1,38.32,17.18,57.86,18.02c20.51,0.88,41.44-2.26,60.78-9.26c16.84-6.09,36.67-15.31,44.61-32.75
			c1.1-2.42,2.1-4.91,2.71-7.51c0.51-2.17,0.49-4.88,1.45-6.9c0.73-1.54,2.87-2.72,4.36-4c2.11-1.81,3.86-3.94,5.51-6.18
			c3.11-4.23,5.24-9.1,6.97-14.05c2.13-6.09,3.38-11.36,0.64-17.46c-1.69-3.77-6.41-3.21-9-1.17c-4.02,3.17-5.03,7.57-6.53,12.26
			c-1.18,3.7-2.63,7.27-4.82,10.5c-1.95,2.88-4.7,4.76-7.26,7.1c-3.8,3.49-5.42,7.99-6.35,12.94c-1.44,7.72-4.79,12.86-10.85,17.98
			c-5.42,4.58-12.39,8.11-19.03,10.95c-16.91,7.23-35.31,11.06-53.64,11.43c-9.22,0.19-15.5,0.04-24.58-1.59
			c-8.28-1.48-19.32-4.79-26.78-8.88c-8.19-4.49-15.49-11.3-21.43-18.42c-3.09-3.7-6.03-7.59-8.74-11.58
			c-2.82-4.15-4.9-9.23-8.52-12.68C27.55,93.2,25.54,93.56,25.19,95.14"/>
		<path style="clip-path:url(#SVGID_00000152254651960210544770000001655022626769105536_);fill:#E4AB25;" d="M17.19,122.01
			c0.54,3.3,2.38,5.82,3.92,8.69c2.01,3.75,5.24,7.12,8.1,10.2c5.43,5.85,11.54,11.03,18.16,15.45c14.49,9.68,31.76,12.9,48.72,14.9
			c32.11,3.79,66.43,0.13,94.27-17.65c6.97-4.45,13.57-9.71,19.31-15.71c2.83-2.95,5.66-6.15,7.83-9.64
			c1.19-1.92,2.19-4.28,2.74-6.45c0.52-2.04,0.3-4.05,0.62-6.09c0.66-4.16-2.37-17.19-5.67-14.35c-2.32,2-2.67,10.09-4.95,12.3
			c-2.46,2.39-3.6,7.74-10.35,14.12c-4.54,4.28-9.97,9.18-15.08,12.75c-11.18,7.81-23.23,11.11-36.46,14.12
			c-15.22,3.46-28.84,3.4-44.34,2.05c-14.77-1.28-31.38-5.01-44.85-11.54c-7.26-3.52-13.91-8.22-20.34-13.08
			c-3.34-2.52-6.57-5.29-10.14-7.47c-2.99-1.83-6.05-3.98-9.54-4.58C17.88,119.83,16.99,120.75,17.19,122.01"/>
	</g>
	<path class="st4" d="M113.31,141.34c-8.8,0-17.46-1.76-25.83-4.45c-8.24-2.65-16.1-6.33-23.43-10.98
		c-3.61-2.29-6.89-5.12-10.06-7.98c-1.57-1.42-2.91-2.95-4.3-4.55c-1.45-1.68-1.8-3.1-2.84-4.97c-0.24-0.44-0.21-0.93-0.01-1.34
		c5.53,3.78,11.8,6.77,17.85,9.5c15.59,7.06,32.05,11.82,49.07,13.52c3.78,0.37,7.61,0.57,11.44,0.57c5.43,0,10.88-0.39,16.26-1.23
		c0.69,0.94,0.83,2.26-0.2,3.14c-1.74,1.49-3.37,3.17-5.4,4.28c-2.1,1.15-4.63,1.85-6.93,2.47c-4.6,1.25-9.41,1.9-14.18,2
		C114.26,141.33,113.78,141.34,113.31,141.34"/>
	<path class="st5" d="M125.19,130.1c-3.84,0-7.67-0.2-11.44-0.57c-17.02-1.7-33.48-6.46-49.07-13.52
		c-6.05-2.74-12.32-5.73-17.85-9.5c0.23-0.45,0.67-0.79,1.2-0.79c0.12,0,0.26,0.02,0.39,0.06c2.02,0.63,3.55,0.67,5.53,1.57
		c1.73,0.79,3.48,1.49,5.2,2.32c3.04,1.48,6.18,2.73,9.26,4.1c5.92,2.64,11.94,5.05,18.1,7.06c8.96,2.92,18.18,5.23,27.62,5.23
		c0.2,0,0.41,0,0.61,0c4.37-0.05,8.72-0.36,13.08-0.37c0.05,0,0.1,0,0.16,0c4.44,0,8.03,0.69,12.19,2.2
		c0.5,0.18,0.95,0.54,1.27,0.98C136.07,129.71,130.62,130.1,125.19,130.1"/>
	<path class="st6" d="M157.42,133.34c-2.08,0-4.06-0.48-5.73-1.75c-1.36-1.03-1.69-2.93-0.78-4.14c3.35-0.89,6.64-1.97,9.85-3.26
		c7.64-3.07,14.8-7.04,21.92-11.17c0.52-0.3,1.05-0.61,1.57-0.92c2.27,1.27,3.2,4.45,1.9,6.94c-3.04,5.81-11.09,8.8-16.82,11.11
		C165.97,131.49,161.5,133.34,157.42,133.34"/>
	<path class="st7" d="M150.91,127.59c0.32-0.42,0.79-0.77,1.43-0.95c2.5-0.74,4.81-2.87,7.06-4.21c2.31-1.37,4.66-2.67,7.02-3.95
		c4.81-2.61,9.83-6.64,15.47-6.8c0.05,0,0.1,0,0.15,0c0.83,0,1.57,0.21,2.21,0.56c-0.52,0.31-1.04,0.62-1.57,0.92
		c-7.12,4.13-14.28,8.11-21.92,11.17C157.55,125.62,154.26,126.7,150.91,127.59"/>
	<g>
		<defs>
			<path id="SVGID_00000008148335604537569430000008012586383858758824_" d="M33.84,101.52c0.17-3.92,3.7-7.38,7.57-7.45
				c3.1-0.05,5.89,1.74,8.51,3.41c16.47,10.48,34.56,18.36,53.4,23.27c6.8,1.77,13.73,3.16,20.75,3.44
				c25.46,1.01,49.02-12.43,71.01-25.44c3.91-2.31,8.25-5.27,8.73-9.82c0.16-1.45-0.12-2.93,0.14-4.36
				c0.38-2.11,1.83-3.83,3.23-5.45c2.35-2.7,4.69-5.39,7.04-8.09c0.6-0.7,1.26-1.42,2.14-1.67c0.63-0.18,1.31-0.08,1.95,0.06
				c3.8,0.83,7.28,3.14,9.55,6.34c-1.42,5.5-2.93,11.51-7.58,14.71c-1.19,0.81-2.51,1.41-3.71,2.21c-4.71,3.14-6.85,9.04-7.7,14.69
				c-0.85,5.65-0.73,11.47-2.32,16.95c-1.37,4.73-3.98,9.01-7.02,12.85c-13.56,17.09-35.41,25.44-56.88,28.3
				c-31.14,4.15-61.76-2.24-86.65-21.62c-5.65-4.4-12.28-11.05-15.33-17.57C36.93,118.29,33.44,110.33,33.84,101.52"/>
		</defs>
		<clipPath id="SVGID_00000161590706769512417150000000230665050616124586_">
			<use xlink:href="#SVGID_00000008148335604537569430000008012586383858758824_"  style="overflow:visible;"/>
		</clipPath>
		<path style="clip-path:url(#SVGID_00000161590706769512417150000000230665050616124586_);fill:#753C2B;" d="M238.63,70.34
			c-0.29-5.55-3.52-11.21-8.89-13.05c-6.03-2.07-11.48,1.29-14.67,6.38c-0.54,0.86-1.01,1.79-1.4,2.76
			c-0.74,1.07-1.32,2.3-1.73,3.58c-1.45,4.45-0.31,9.33,3.18,12.46c4.31,3.86,11.86,3.47,16.64,0.72
			C236.31,80.57,238.9,75.59,238.63,70.34"/>
		<path style="clip-path:url(#SVGID_00000161590706769512417150000000230665050616124586_);fill:#8F503A;" d="M219.89,76.42
			c-2.97,0-5.91-0.79-8.09-2.6c0.81-0.93,1.62-1.86,2.43-2.79c0.6-0.7,1.26-1.42,2.14-1.67c0.24-0.07,0.49-0.09,0.74-0.09
			c0.41,0,0.82,0.07,1.21,0.16c0.72,0.16,1.43,0.37,2.13,0.63c0.69,0.26,1.36,0.57,2.01,0.92c1.79,0.97,3.39,2.28,4.7,3.85
			C225,75.84,222.43,76.42,219.89,76.42"/>
		<path style="clip-path:url(#SVGID_00000161590706769512417150000000230665050616124586_);fill:#753C2B;" d="M33.83,102.69
			c-0.96,1-0.96,1.08,0.01,0.25c0.32-0.24,0.63-0.49,0.94-0.74c0.74-0.62,1.46-1.11,2.25-1.67c1.85-1.32,3.59-2.87,5.39-4.27
			c2.43-1.9,4.81-4.25,4.61-7.6c-0.23-3.73-3.7-5.89-7.2-5.08c-4.9,1.13-9.96,6.39-11.54,11.14c-1.14,3.41-1.46,9.35,3.4,9.62
			C32.71,104.39,33.52,103.59,33.83,102.69"/>
		<path style="clip-path:url(#SVGID_00000161590706769512417150000000230665050616124586_);fill:#FCDD4F;" d="M40.33,97.95
			c0.7-0.57,1.39-1.14,2.09-1.69c0.68-0.53,1.35-1.09,1.97-1.71c0.09,0.03,0.19,0.06,0.28,0.09c-0.53,0.38-1.03,0.75-1.55,1.18
			c-0.31,0.25-0.63,0.49-0.94,0.74c-0.07,0.06-0.14,0.12-0.2,0.17C41.63,97.36,41.04,97.87,40.33,97.95"/>
		<path style="clip-path:url(#SVGID_00000161590706769512417150000000230665050616124586_);fill:#95543F;" d="M40.12,97.96
			c-0.03,0-0.07,0-0.1,0c-1.69-0.09-2.75-0.87-3.37-1.99c1.33-1.14,3.01-1.87,4.76-1.9c0.05,0,0.09,0,0.13,0
			c0.98,0,1.93,0.18,2.85,0.49c-0.62,0.61-1.29,1.18-1.97,1.71c-0.7,0.55-1.4,1.12-2.09,1.69C40.26,97.96,40.19,97.96,40.12,97.96"
			/>
		<path style="clip-path:url(#SVGID_00000161590706769512417150000000230665050616124586_);fill:#FAAF1B;" d="M201.69,109.37
			c-1.68-1.01-3.19-2.27-4.43-3.8c-0.46-0.56-0.93-1.2-1.38-1.89c1.73-1.62,3.33-3.39,4.75-5.35c2.37-3.25,4.6-6.97,6.23-10.61
			c1.22-2.74,1.97-4.92,3.6-6.19c0.77-0.6,1.55-1.27,2.32-2c0.6,1.08,1.38,2.07,2.34,2.93c0.73,0.65,1.55,1.19,2.44,1.61
			c-0.52,0.99-1.1,1.96-1.74,2.9c-1.95,2.88-4.7,4.76-7.26,7.1c-3.8,3.49-5.42,7.99-6.35,12.94
			C202.06,107.82,201.89,108.61,201.69,109.37"/>
		<path style="clip-path:url(#SVGID_00000161590706769512417150000000230665050616124586_);fill:#FCC022;" d="M195.87,103.68
			c-0.83-1.25-1.6-2.67-2.13-4.14c0.45-0.26,0.89-0.53,1.34-0.79c3.91-2.31,8.25-5.27,8.73-9.82c0.04-0.36,0.05-0.73,0.05-1.09l0,0
			c0-0.57-0.03-1.14-0.03-1.71c0-0.52,0.02-1.05,0.12-1.56c0.38-2.11,1.83-3.83,3.23-5.45c1.19-1.37,2.38-2.73,3.57-4.1
			c0.21,0.03,0.42,0.07,0.63,0.12c0.17,1.54,0.63,3.04,1.39,4.4c-0.77,0.73-1.55,1.4-2.32,2c-1.62,1.26-2.37,3.45-3.6,6.19
			c-1.63,3.65-3.86,7.36-6.23,10.61C199.2,100.29,197.6,102.05,195.87,103.68"/>
		<path style="clip-path:url(#SVGID_00000161590706769512417150000000230665050616124586_);fill:#F1A420;" d="M208.35,111.95
			c-2.34-0.5-4.62-1.35-6.66-2.58c0.2-0.76,0.37-1.55,0.52-2.36c0.92-4.96,2.55-9.45,6.35-12.94c2.55-2.34,5.3-4.22,7.26-7.1
			c0.64-0.94,1.22-1.91,1.74-2.9c1.8,0.85,3.85,1.24,5.93,1.24c0.4,0,0.79-0.01,1.19-0.04c-1.07,2.06-2.46,3.88-4.39,5.22
			c-1.19,0.81-2.51,1.41-3.71,2.21c-4.71,3.14-6.85,9.04-7.7,14.69C208.65,108.89,208.49,110.42,208.35,111.95"/>
		<path style="clip-path:url(#SVGID_00000161590706769512417150000000230665050616124586_);fill:#753718;" d="M223.49,85.3
			c-2.08,0-4.14-0.39-5.93-1.24c-0.89-0.42-1.71-0.95-2.44-1.61c-0.96-0.86-1.74-1.85-2.34-2.93c-0.75-1.36-1.22-2.85-1.39-4.4
			c1.45,0.33,2.85,1.05,4.03,2.1c0.8,0.71,1.56,1.48,2.28,2.29c0.77-0.25,1.57-0.38,2.36-0.38c2.29,0,4.51,1.08,5.82,3.38
			c-0.35,0.95-0.75,1.87-1.2,2.75l0,0C224.28,85.29,223.89,85.3,223.49,85.3"/>
	</g>
</g>
</svg>
