<?xml version="1.0" encoding="utf-8"?>
<!-- Generator: Adobe Illustrator 27.5.0, SVG Export Plug-In . SVG Version: 6.00 Build 0)  -->
<svg version="1.1" id="Layer_1" xmlns="http://www.w3.org/2000/svg" xmlns:xlink="http://www.w3.org/1999/xlink" x="0px" y="0px"
	 viewBox="0 0 250 250" style="enable-background:new 0 0 250 250;" xml:space="preserve">
<style type="text/css">
	.st0{fill:#4D7F51;}
	.st1{fill:#89B688;}
	.st2{clip-path:url(#SVGID_00000153680708035713794600000006824889949745822850_);fill:#7BA77A;}
	.st3{fill:#A0BF7C;}
	.st4{fill:#8BB474;}
	.st5{clip-path:url(#SVGID_00000071555365736471185090000004316994304827989419_);fill:#417443;}
	.st6{fill:#669852;}
	.st7{fill:#5E914B;}
	.st8{clip-path:url(#SVGID_00000080164289570962803270000005457494520898062222_);fill:#78A563;}
	.st9{fill:#90BF58;}
	.st10{fill:#31578C;}
	.st11{clip-path:url(#SVGID_00000000910125750077981890000007106750572146485895_);fill:#305F9A;}
	.st12{clip-path:url(#SVGID_00000000910125750077981890000007106750572146485895_);fill:#244D7B;}
	.st13{clip-path:url(#SVGID_00000000910125750077981890000007106750572146485895_);fill:#2E5891;}
	.st14{clip-path:url(#SVGID_00000000910125750077981890000007106750572146485895_);fill:#2D5185;}
	.st15{clip-path:url(#SVGID_00000000910125750077981890000007106750572146485895_);fill:#1E4775;}
	.st16{clip-path:url(#SVGID_00000000910125750077981890000007106750572146485895_);fill:#2B5289;}
	.st17{clip-path:url(#SVGID_00000000910125750077981890000007106750572146485895_);fill:#1B426E;}
	.st18{clip-path:url(#SVGID_00000000910125750077981890000007106750572146485895_);fill:#2C4C7C;}
	.st19{clip-path:url(#SVGID_00000000910125750077981890000007106750572146485895_);fill:#244C84;}
	.st20{clip-path:url(#SVGID_00000000910125750077981890000007106750572146485895_);fill:#244777;}
	.st21{clip-path:url(#SVGID_00000000910125750077981890000007106750572146485895_);fill:#1A3E67;}
	.st22{fill:#376196;}
	.st23{fill:#386AA5;}
	.st24{fill:#436594;}
	.st25{fill:#416CA2;}
	.st26{fill:#3E5F8E;}
	.st27{fill:#3D659B;}
	.st28{fill:#395988;}
	.st29{fill:#386094;}
	.st30{fill:#486DA0;}
	.st31{fill:#4576AB;}
	.st32{fill:#456A9A;}
	.st33{fill:#416393;}
	.st34{fill:#51709C;}
	.st35{fill:#4D6C97;}
	.st36{fill:#5679A8;}
	.st37{fill:#5474A0;}
	.st38{fill:#4C76A5;}
	.st39{fill:#4B7FB3;}
	.st40{fill:#5480B0;}
	.st41{fill:#5289BA;}
	.st42{fill:#648CB5;}
	.st43{fill:#2C5784;}
	.st44{fill:#244D7B;}
	.st45{clip-path:url(#SVGID_00000165209024270652697190000015218007398507884183_);fill:#20486D;}
	.st46{clip-path:url(#SVGID_00000165209024270652697190000015218007398507884183_);fill:#26588B;}
	.st47{fill:#8BA2C2;}
	.st48{fill:#94AAC7;}
	.st49{fill:#1E4C8C;}
	.st50{clip-path:url(#SVGID_00000067929961796447430580000013180942784666710975_);fill:#19559A;}
	.st51{clip-path:url(#SVGID_00000067929961796447430580000013180942784666710975_);fill:#17457A;}
	.st52{clip-path:url(#SVGID_00000067929961796447430580000013180942784666710975_);fill:#1D4684;}
	.st53{clip-path:url(#SVGID_00000067929961796447430580000013180942784666710975_);fill:#194072;}
	.st54{clip-path:url(#SVGID_00000067929961796447430580000013180942784666710975_);fill:#1F427C;}
	.st55{clip-path:url(#SVGID_00000067929961796447430580000013180942784666710975_);fill:#1D3B6C;}
	.st56{clip-path:url(#SVGID_00000067929961796447430580000013180942784666710975_);fill:#203E75;}
	.st57{clip-path:url(#SVGID_00000067929961796447430580000013180942784666710975_);fill:#1D3766;}
	.st58{fill:#215798;}
	.st59{fill:#1F5EA5;}
	.st60{fill:#345993;}
	.st61{fill:#2E61A3;}
	.st62{fill:#30568E;}
	.st63{fill:#2C5086;}
	.st64{fill:#2A4C82;}
	.st65{fill:#3463A0;}
	.st66{fill:#325E98;}
	.st67{fill:#305992;}
	.st68{fill:#326AAB;}
	.st69{fill:#42679D;}
	.st70{fill:#3F6298;}
	.st71{fill:#466FA7;}
	.st72{fill:#426BA1;}
	.st73{fill:#3A69A7;}
	.st74{fill:#3E75B1;}
	.st75{fill:#4F83B7;}
	.st76{fill:#1B4E83;}
	.st77{fill:#17457A;}
	.st78{clip-path:url(#SVGID_00000045619652826925064730000016701942380897152405_);fill:#14416C;}
	.st79{clip-path:url(#SVGID_00000045619652826925064730000016701942380897152405_);fill:#12508B;}
	.st80{fill:#6A8BB9;}
	.st81{fill:#739AC5;}
	.st82{fill:#2164AD;}
	.st83{clip-path:url(#SVGID_00000100369507340219236680000008057505790652536736_);fill:#226BB5;}
	.st84{clip-path:url(#SVGID_00000100369507340219236680000008057505790652536736_);fill:#145FA3;}
	.st85{clip-path:url(#SVGID_00000100369507340219236680000008057505790652536736_);fill:#1F5EA8;}
	.st86{clip-path:url(#SVGID_00000100369507340219236680000008057505790652536736_);fill:#0F589C;}
	.st87{clip-path:url(#SVGID_00000100369507340219236680000008057505790652536736_);fill:#1E64AF;}
	.st88{clip-path:url(#SVGID_00000100369507340219236680000008057505790652536736_);fill:#1C59A3;}
	.st89{clip-path:url(#SVGID_00000100369507340219236680000008057505790652536736_);fill:#0E5394;}
	.st90{clip-path:url(#SVGID_00000100369507340219236680000008057505790652536736_);fill:#1B5FA9;}
	.st91{clip-path:url(#SVGID_00000100369507340219236680000008057505790652536736_);fill:#18539B;}
	.st92{clip-path:url(#SVGID_00000100369507340219236680000008057505790652536736_);fill:#094E8E;}
	.st93{fill:#336FB3;}
	.st94{fill:#3076BC;}
	.st95{fill:#316AAD;}
	.st96{fill:#2E6EB7;}
	.st97{fill:#2D65A7;}
	.st98{fill:#286AB0;}
	.st99{fill:#2C60A3;}
	.st100{fill:#367ABC;}
	.st101{fill:#3575B7;}
	.st102{fill:#346FB2;}
	.st103{fill:#337FC2;}
	.st104{fill:#4177B5;}
	.st105{fill:#4683C1;}
	.st106{fill:#437FBD;}
	.st107{fill:#3A82C0;}
	.st108{fill:#318AC9;}
	.st109{fill:#3D8CC8;}
	.st110{fill:#3993D0;}
	.st111{fill:#5298CA;}
	.st112{fill:#98B9DB;}
	.st113{fill:#9DC5E1;}
	.st114{fill:#4B658A;}
	.st115{clip-path:url(#SVGID_00000165916350106123096460000006947930646463740327_);fill:#4B6F9A;}
	.st116{clip-path:url(#SVGID_00000165916350106123096460000006947930646463740327_);fill:#3C577B;}
	.st117{clip-path:url(#SVGID_00000165916350106123096460000006947930646463740327_);fill:#465F84;}
	.st118{clip-path:url(#SVGID_00000165916350106123096460000006947930646463740327_);fill:#466993;}
	.st119{clip-path:url(#SVGID_00000165916350106123096460000006947930646463740327_);fill:#365275;}
	.st120{clip-path:url(#SVGID_00000165916350106123096460000006947930646463740327_);fill:#41597E;}
	.st121{clip-path:url(#SVGID_00000165916350106123096460000006947930646463740327_);fill:#3F6189;}
	.st122{clip-path:url(#SVGID_00000165916350106123096460000006947930646463740327_);fill:#324E6E;}
	.st123{clip-path:url(#SVGID_00000165916350106123096460000006947930646463740327_);fill:#3C5477;}
	.st124{clip-path:url(#SVGID_00000165916350106123096460000006947930646463740327_);fill:#3B5B83;}
	.st125{clip-path:url(#SVGID_00000165916350106123096460000006947930646463740327_);fill:#2D4968;}
	.st126{fill:#577197;}
	.st127{fill:#557AA4;}
	.st128{fill:#5B7294;}
	.st129{fill:#5B79A1;}
	.st130{fill:#576C8E;}
	.st131{fill:#56749A;}
	.st132{fill:#4F6687;}
	.st133{fill:#4F6D94;}
	.st134{fill:#4B6181;}
	.st135{fill:#49688C;}
	.st136{fill:#627C9F;}
	.st137{fill:#6285AA;}
	.st138{fill:#5D7799;}
	.st139{fill:#587193;}
	.st140{fill:#687C9B;}
	.st141{fill:#637897;}
	.st142{fill:#6F86A6;}
	.st143{fill:#6B83A1;}
	.st144{fill:#7291AF;}
	.st145{fill:#7F9AB5;}
	.st146{fill:#446384;}
	.st147{fill:#3C577B;}
	.st148{clip-path:url(#SVGID_00000090994093553691815740000003062044204014831802_);fill:#34506B;}
	.st149{clip-path:url(#SVGID_00000090994093553691815740000003062044204014831802_);fill:#40658A;}
	.st150{fill:#B8C2D2;}
	.st151{fill:#BCC6D6;}
	.st152{fill:#57739D;}
	.st153{clip-path:url(#SVGID_00000008118182011933376020000017904043580805298350_);fill:#547BA9;}
	.st154{clip-path:url(#SVGID_00000008118182011933376020000017904043580805298350_);fill:#426891;}
	.st155{clip-path:url(#SVGID_00000008118182011933376020000017904043580805298350_);fill:#506C96;}
	.st156{clip-path:url(#SVGID_00000008118182011933376020000017904043580805298350_);fill:#3F6189;}
	.st157{clip-path:url(#SVGID_00000008118182011933376020000017904043580805298350_);fill:#4E73A2;}
	.st158{clip-path:url(#SVGID_00000008118182011933376020000017904043580805298350_);fill:#49658E;}
	.st159{clip-path:url(#SVGID_00000008118182011933376020000017904043580805298350_);fill:#3A5B84;}
	.st160{clip-path:url(#SVGID_00000008118182011933376020000017904043580805298350_);fill:#486C9B;}
	.st161{clip-path:url(#SVGID_00000008118182011933376020000017904043580805298350_);fill:#446089;}
	.st162{clip-path:url(#SVGID_00000008118182011933376020000017904043580805298350_);fill:#436595;}
	.st163{clip-path:url(#SVGID_00000008118182011933376020000017904043580805298350_);fill:#37557E;}
	.st164{fill:#5F7DA7;}
	.st165{fill:#5D85B4;}
	.st166{fill:#637EA4;}
	.st167{fill:#6084B0;}
	.st168{fill:#5F779D;}
	.st169{fill:#5C7DA8;}
	.st170{fill:#597097;}
	.st171{fill:#5678A2;}
	.st172{fill:#546C92;}
	.st173{fill:#53719C;}
	.st174{fill:#6D88AF;}
	.st175{fill:#6A8EB9;}
	.st176{fill:#6782A8;}
	.st177{fill:#627BA3;}
	.st178{fill:#6F87AB;}
	.st179{fill:#6B83A5;}
	.st180{fill:#7890B4;}
	.st181{fill:#738DB0;}
	.st182{fill:#7493B4;}
	.st183{fill:#7099BD;}
	.st184{fill:#7D9BBC;}
	.st185{fill:#7CA2C5;}
	.st186{fill:#8AA3C0;}
	.st187{fill:#4D7296;}
	.st188{fill:#426891;}
	.st189{clip-path:url(#SVGID_00000137839945180938387030000008037219175285529482_);fill:#406183;}
	.st190{clip-path:url(#SVGID_00000137839945180938387030000008037219175285529482_);fill:#48719B;}
	.st191{fill:#FFFFFF;}
</style>
<g>
	<path class="st0" d="M93.67,105.46c-3.76-3.31-8.57-4.53-13.48-5.66c-8.47-1.95-19.37-3.9-28.08-10.58
		c-3.17-2.44-4.92-2.57-4.5,1.85c0.66,6.89,0.14,14.54,4.23,20.61c3.47,5.15,9.21,8.99,15.56,10.41c7.47,1.67,15.45,0.41,22.2-2.91
		c1.77-0.87,3.45-2.16,4.01-4.04l0.08-0.31c0.02,0.16,0.04,0.32,0.03,0.48c-0.02,0.8,1.22,1.13,1.63,0.41
		C97.49,112.01,97,108.39,93.67,105.46"/>
	<path class="st1" d="M94.11,105.06c-3.76-3.31-8.57-4.54-13.48-5.66c-8.47-1.95-19.37-3.9-28.08-10.58
		c-3.17-2.44-4.92-2.57-4.5,1.85c0.66,6.89,0.14,14.54,4.23,20.61c3.47,5.15,9.21,8.99,15.57,10.41c7.47,1.67,15.45,0.41,22.2-2.91
		c1.77-0.87,3.45-2.16,4.01-4.04l0.08-0.31c0.02,0.16,0.04,0.32,0.03,0.48c-0.02,0.8,1.22,1.13,1.63,0.41
		C97.93,111.61,97.43,107.99,94.11,105.06"/>
	<g>
		<defs>
			<path id="SVGID_1_" d="M94.11,105.06c-3.76-3.31-8.57-4.54-13.48-5.66c-8.47-1.95-19.37-3.9-28.08-10.58
				c-3.17-2.44-4.92-2.57-4.5,1.85c0.66,6.89,0.14,14.54,4.23,20.61c3.47,5.15,9.21,8.99,15.57,10.41
				c7.47,1.67,15.45,0.41,22.2-2.91c1.77-0.87,3.45-2.16,4.01-4.04l0.08-0.31c0.02,0.16,0.04,0.32,0.03,0.48
				c-0.02,0.8,1.22,1.13,1.63,0.41C97.93,111.61,97.43,107.99,94.11,105.06"/>
		</defs>
		<clipPath id="SVGID_00000082356312981282263110000010733473892621276061_">
			<use xlink:href="#SVGID_1_"  style="overflow:visible;"/>
		</clipPath>
		<path style="clip-path:url(#SVGID_00000082356312981282263110000010733473892621276061_);fill:#7BA77A;" d="M75.56,112.08
			c-0.13-0.04-0.26-0.09-0.39-0.14c-0.98-0.43-1.94-0.88-2.89-1.38c-5.47-2.87-10.73-6.38-15.54-10.13
			c-0.05-0.04-0.1-0.05-0.14-0.05c-0.12,0-0.22,0.1-0.2,0.22c-2.41-2.07-4.49-4.39-6.01-7.26c-0.78-1.47-1.71-3.51-2.12-5.55
			c0.22-0.45,0.56-0.66,1.01-0.66c0.78,0,1.89,0.62,3.27,1.69c8.35,6.41,18.72,8.47,27.03,10.34c-1.9,3.1-3.12,6.56-3.71,10.09
			C75.72,110.18,75.61,111.13,75.56,112.08"/>
	</g>
	<path class="st3" d="M56.46,100.71c4.32,4.77,9.05,8.9,14.8,12.15c5.42,3.07,11.6,5.81,18.09,5.32c0.66-0.05,0.75-0.82,0.15-1.04
		c-5.78-2.16-11.75-3.69-17.22-6.56c-5.47-2.87-10.73-6.38-15.54-10.13C56.54,100.28,56.29,100.52,56.46,100.71"/>
	<path class="st4" d="M150.9,80.14c-4.43-8.52-13.73-13.5-19.8-20.87c-0.59-1.35-1.76-2.29-3.43-2.08
		c-1.44,0.18-2.82,1.41-2.71,2.86c0.36,4.56,0.67,9.33-0.13,13.86c-0.81,4.62-2.25,9.09-3.61,13.59c-2.33,7.71-4.93,19.49,2.22,25.8
		c8.05,7.1,18.68-2.94,23.26-8.94c2.54-3.32,5.11-7.24,6.09-11.25C153.91,88.63,153.03,84.24,150.9,80.14"/>
	<path class="st0" d="M149.81,79.74c-4.43-8.52-13.73-13.5-19.8-20.87c-0.59-1.35-1.76-2.29-3.42-2.08
		c-1.44,0.18-2.82,1.41-2.71,2.86c0.36,4.56,0.67,9.33-0.13,13.86c-0.81,4.62-2.25,9.09-3.61,13.59c-2.33,7.71-4.93,19.49,2.22,25.8
		c8.05,7.1,18.68-2.95,23.26-8.94c2.54-3.32,5.11-7.24,6.09-11.25C152.82,88.23,151.94,83.83,149.81,79.74"/>
	<g>
		<defs>
			<path id="SVGID_00000111150437969113406860000009449222302195273635_" d="M149.81,79.74c-4.43-8.52-13.73-13.5-19.8-20.87
				c-0.59-1.35-1.76-2.29-3.42-2.08c-1.44,0.18-2.82,1.41-2.71,2.86c0.36,4.56,0.67,9.33-0.13,13.86
				c-0.81,4.62-2.25,9.09-3.61,13.59c-2.33,7.71-4.93,19.49,2.22,25.8c8.05,7.1,18.68-2.95,23.26-8.94
				c2.54-3.32,5.11-7.24,6.09-11.25C152.82,88.23,151.94,83.83,149.81,79.74"/>
		</defs>
		<clipPath id="SVGID_00000174589602187848294250000014640151810272569786_">
			<use xlink:href="#SVGID_00000111150437969113406860000009449222302195273635_"  style="overflow:visible;"/>
		</clipPath>
		<path style="clip-path:url(#SVGID_00000174589602187848294250000014640151810272569786_);fill:#417443;" d="M133.16,96.75
			c0.17-1.48,0.28-2.97,0.32-4.46c0.02-0.16,0.03-0.31,0.05-0.47c0.7-6.8,0.65-14.39-2.62-20.63l-0.23,0.04
			c0.04,1.23,0.12,2.45,0.2,3.67c-0.97-3.05-2.14-6.04-3.38-9c-1.14-1.35-2.29-2.67-3.42-3.95c-0.01-0.01-0.02-0.02-0.02-0.03
			c-0.05-0.76-0.11-1.53-0.17-2.28c0-0.06-0.01-0.11-0.01-0.17c0-1.37,1.34-2.51,2.72-2.69c0.16-0.02,0.31-0.03,0.46-0.03
			c1.42,0,2.43,0.88,2.97,2.11c6.07,7.37,15.37,12.35,19.8,20.87c1.5,2.9,2.38,5.94,2.38,9.06c0,1.29-0.15,2.6-0.47,3.91
			c-0.09,0.36-0.19,0.72-0.3,1.08c-1.56-0.21-3.13-0.32-4.7-0.32c-3.23,0-6.43,0.47-9.38,1.47C135.9,95.43,134.5,96.04,133.16,96.75
			"/>
	</g>
	<path class="st6" d="M130.18,98.54c0.58-2.36,1.04-4.75,1.26-7.22c0.51-5.53-0.17-10.94-0.56-16.41c0.63,1.99,1.17,4,1.58,6.04
		c0.76,3.76,1.11,7.56,1.02,11.34c-0.17,1.52-0.38,3.08-0.67,4.65C131.91,97.43,131.03,97.96,130.18,98.54"/>
	<path class="st7" d="M133.48,92.29c0.09-3.78-0.25-7.58-1.02-11.34c-0.41-2.05-0.96-4.06-1.58-6.04c-0.09-1.22-0.16-2.44-0.2-3.67
		l0.23-0.04c3.27,6.24,3.33,13.83,2.62,20.63C133.51,91.97,133.5,92.13,133.48,92.29"/>
	<path class="st0" d="M188.54,83.42c-10.76-1.91-21.43,1.09-30.04,7.22c-3.95,2.81-7.32,6.02-10.37,9.66
		c-2.97,3.55-6.02,7.95-6.19,12.57c-0.03,0.8,0.61,1.34,1.34,1.46c0.07,0.32,0.17,0.64,0.32,0.95c0.95,2,3.67,3.68,6.1,2.79
		c4.38-1.6,9.07-2.09,13.53-3.46c4.19-1.29,8.15-3.19,11.67-5.65c7.11-4.97,12.54-11.46,16.56-18.81
		C192.8,87.72,191.84,84.01,188.54,83.42"/>
	<path class="st4" d="M188.11,82.82c-10.76-1.91-21.43,1.09-30.04,7.22c-3.95,2.81-7.32,6.02-10.37,9.66
		c-2.97,3.55-6.02,7.95-6.19,12.57c-0.03,0.8,0.61,1.34,1.34,1.46c0.07,0.32,0.17,0.64,0.32,0.95c0.95,2,3.67,3.68,6.1,2.79
		c4.38-1.6,9.08-2.09,13.53-3.46c4.19-1.29,8.15-3.19,11.67-5.65c7.11-4.97,12.54-11.46,16.56-18.81
		C192.37,87.11,191.4,83.4,188.11,82.82"/>
	<g>
		<defs>
			<path id="SVGID_00000003817242872680357070000014808615574620357801_" d="M188.11,82.82c-10.76-1.91-21.43,1.09-30.04,7.22
				c-3.95,2.81-7.32,6.02-10.37,9.66c-2.97,3.55-6.02,7.95-6.19,12.57c-0.03,0.8,0.61,1.34,1.34,1.46c0.07,0.32,0.17,0.64,0.32,0.95
				c0.95,2,3.67,3.68,6.1,2.79c4.38-1.6,9.08-2.09,13.53-3.46c4.19-1.29,8.15-3.19,11.67-5.65c7.11-4.97,12.54-11.46,16.56-18.81
				C192.37,87.11,191.4,83.4,188.11,82.82"/>
		</defs>
		<clipPath id="SVGID_00000004545945448317560760000018231466955261606297_">
			<use xlink:href="#SVGID_00000003817242872680357070000014808615574620357801_"  style="overflow:visible;"/>
		</clipPath>
		<path style="clip-path:url(#SVGID_00000004545945448317560760000018231466955261606297_);fill:#78A563;" d="M172.24,108.19
			c-1.85-3.54-4.34-7.01-7.36-9.4c0.12-0.09,0.25-0.19,0.37-0.28c2.41-1.8,4.85-3.59,7.32-5.31c2.2-1.54,4.99-2.85,6.76-4.81
			c0.11-0.12,0.02-0.29-0.13-0.29c-0.01,0-0.03,0-0.04,0c-0.6,0.11-1.19,0.29-1.78,0.51c2.64-2.06,5.29-4.11,7.92-6.18
			c0.94,0.09,1.88,0.22,2.82,0.39c2.34,0.41,3.51,2.41,3.51,4.4c0,0.81-0.19,1.62-0.57,2.32c-3.58,6.54-8.27,12.4-14.27,17.11
			c-1.03,0.21-2.03,0.5-3.01,0.87C173.24,107.72,172.73,107.94,172.24,108.19"/>
	</g>
	<path class="st9" d="M179.15,88.1c-2.79,0.52-5.45,2.43-7.83,3.81c-2.58,1.49-5.04,3.09-7.44,4.83c-2.4,1.75-4.77,3.57-7.02,5.5
		c-2.05,1.77-4.69,3.66-5.79,6.1c-0.25,0.55,0.51,0.88,0.96,0.69c2.51-1.07,4.52-3.47,6.56-5.17c2.18-1.83,4.37-3.62,6.66-5.33
		c2.41-1.8,4.85-3.59,7.32-5.31c2.2-1.54,4.99-2.85,6.76-4.81C179.45,88.25,179.33,88.06,179.15,88.1"/>
	<path class="st10" d="M205.21,119.49c-2.14-3.43-5.3-6.37-8.99-8.68c-6.4-4.01-15.2-6.08-22.45-3.29
		c-5.33,2.05-8.95,6.35-11.63,10.75c-3.68,6.04-6.07,12.86-5.16,19.61c0.91,6.75,5.58,13.37,12.95,16.11
		c6.04,2.24,13.18,1.66,19.2-0.6c6.41-2.41,14.78-7.26,17.27-13.1C209.17,133.74,209.05,125.67,205.21,119.49"/>
	<g>
		<defs>
			<path id="SVGID_00000103946452714246135480000004054204348400280460_" d="M205.21,119.49c-2.14-3.43-5.3-6.37-8.99-8.68
				c-6.4-4.01-15.2-6.08-22.45-3.29c-5.33,2.05-8.95,6.35-11.63,10.75c-3.68,6.04-6.07,12.86-5.16,19.61
				c0.91,6.75,5.58,13.37,12.95,16.11c6.04,2.24,13.18,1.66,19.2-0.6c6.41-2.41,14.78-7.26,17.27-13.1
				C209.17,133.74,209.05,125.67,205.21,119.49"/>
		</defs>
		<clipPath id="SVGID_00000119113059436787673070000017806096106702516659_">
			<use xlink:href="#SVGID_00000103946452714246135480000004054204348400280460_"  style="overflow:visible;"/>
		</clipPath>
		<path style="clip-path:url(#SVGID_00000119113059436787673070000017806096106702516659_);fill:#305F9A;" d="M210.07,132.03
			c-2.28,1.01-5.14,5.89-6.65,7.57c-1.67,1.86-4.88,4.13-7.05,5.58c-4.27,2.85-9.67,4.31-15.14,4.55
			c-5.55,0.25-10.74-1.38-14.09-4.7c-3.94-3.91-6.23-8.04-9.04-12.42c-1.08-1.68-3.49-2.74-4.34-0.79
			c-4.3,9.85,5.01,21.64,15.93,25.07c11.76,3.7,25.48-0.08,33.49-7.99c2.1-2.08,3.79-4.42,4.97-6.97c0.97-2.11,5.02-7.57,3.39-9.63
			c-0.33-0.42-3.86,1.81-4.38,2.04L210.07,132.03"/>
		<path style="clip-path:url(#SVGID_00000119113059436787673070000017806096106702516659_);fill:#244D7B;" d="M211.15,129.68
			c1.11-3.17-0.5-6.47-2-9.36c-1.69-3.27-3.89-6.31-6.61-9.03c-4.63-4.64-11.12-8.17-18.3-9.11c-7.9-1.03-15.27,1.08-21.07,5.67
			c-2.95,2.34-5.37,5.31-7.15,8.36c-2.11,3.62-2.91,7.16-3.31,11.13c-0.13,1.31,0.29,2.63,1.8,3.27c0.27,0.11,0.59,0.23,0.89,0.27
			c1.63,0.22,1.71,0.78,2.56-0.4c2.01-2.78,5.13-6.67,6.87-9.58c1.38-2.3,2.81-4.39,4.92-6.26c1.83-1.62,4.01-2.93,6.56-3.59
			c2.26-0.58,4.64-0.57,6.94-0.15c5.33,0.96,9.73,3.79,13.43,7.41c1.94,1.9,3.53,4.07,5.1,6.19c1.76,2.39,3.79,7.6,6.8,8.99
			C209.82,134.07,210.78,130.74,211.15,129.68"/>
		<path style="clip-path:url(#SVGID_00000119113059436787673070000017806096106702516659_);fill:#2E5891;" d="M173.86,155.03
			c-1.35-0.23-2.67-0.58-3.94-1.05c-1.35-0.5-2.61-1.13-3.77-1.87c-0.15-2.01-0.19-4.04-0.08-6.06c1.74,1.79,3.92,3.31,6.51,4.4
			c0.46,0.19,0.93,0.37,1.41,0.53c0.02,0.8,0.06,1.6,0.13,2.39C174.18,153.98,174.07,154.54,173.86,155.03"/>
		<path style="clip-path:url(#SVGID_00000119113059436787673070000017806096106702516659_);fill:#2D5185;" d="M188.45,124.84
			c-1.25-0.78-2.59-1.45-4.01-2c-1.91-0.73-3.97-1.28-6.05-1.51c0,0,0,0,0,0c3.77-2.97,8.9-5.86,14.06-5.86c0.09,0,0.18,0,0.27,0
			c0.07,0,0.15,0,0.22,0c1.32,0.95,2.57,2.02,3.74,3.17c1.52,1.48,2.82,3.14,4.07,4.8c-1.51-0.4-3.11-0.66-4.63-0.69
			c-0.08,0-0.15,0-0.23,0C193.32,122.75,190.76,123.61,188.45,124.84"/>
		<path style="clip-path:url(#SVGID_00000119113059436787673070000017806096106702516659_);fill:#1E4775;" d="M208.28,129.62
			c-1.4-0.48-1.9-2.1-0.79-3.03c-0.14-0.17-0.3-0.33-0.48-0.47l-0.11-0.1c-0.25-0.15-0.49-0.33-0.71-0.53l-0.31-0.21
			c-0.92-0.64-1.9-1.12-3-1.51c-0.68-0.24-1.39-0.46-2.12-0.66c-1.25-1.66-2.55-3.32-4.07-4.8c-1.17-1.15-2.42-2.21-3.74-3.17
			c2.66,0.08,5.49,0.75,7.94,1.62c1.32,0.47,2.51,1.05,3.62,1.82l0.24,0.16c0.16,0.24,0.32,0.48,0.47,0.73
			c0.26,0.42,0.51,0.85,0.73,1.29c-0.59,1.06-0.02,2.43,1.26,2.98C207.82,125.64,208.18,127.62,208.28,129.62"/>
		<path style="clip-path:url(#SVGID_00000119113059436787673070000017806096106702516659_);fill:#2B5289;" d="M166.15,152.11
			c-1.17-0.75-2.25-1.6-3.22-2.55c-0.01-0.07-0.03-0.14-0.04-0.22c-0.63-2.82-1.03-5.69-1.14-8.57c0.22-0.07,0.44-0.15,0.66-0.22
			c0.85,1.99,2.07,3.86,3.66,5.49C165.97,148.07,166,150.1,166.15,152.11"/>
		<path style="clip-path:url(#SVGID_00000119113059436787673070000017806096106702516659_);fill:#1B426E;" d="M207.19,123.75
			c-1.28-0.55-1.84-1.91-1.26-2.98C206.44,121.73,206.86,122.73,207.19,123.75"/>
		<path style="clip-path:url(#SVGID_00000119113059436787673070000017806096106702516659_);fill:#2C4C7C;" d="M178.39,121.58
			c-0.76-0.19-1.53-0.34-2.3-0.45c-0.13-1.96-0.5-3.92-1.1-5.79c-0.13-0.4-0.26-0.81-0.41-1.23c1.63-1.18,3.42-2.21,5.31-2.92
			c0.04,0,0.08,0,0.12,0c1.08,0,2.17,0.11,3.24,0.3c3.64,0.66,6.85,2.19,9.69,4.24c-0.07,0-0.15,0-0.22,0c-0.09,0-0.18,0-0.27,0
			C187.29,115.72,182.16,118.61,178.39,121.58"/>
		<path style="clip-path:url(#SVGID_00000119113059436787673070000017806096106702516659_);fill:#1B426E;" d="M204.73,119.33
			l-0.24-0.16c-1.11-0.77-2.3-1.35-3.62-1.82c-2.44-0.87-5.27-1.54-7.94-1.62c-2.85-2.05-6.05-3.58-9.69-4.24
			c-1.07-0.19-2.16-0.3-3.24-0.3c-0.04,0-0.08,0-0.12,0c1.35-0.51,2.76-0.85,4.19-0.96c0.51-0.04,1.03-0.06,1.55-0.06
			c2.27,0,4.65,0.36,6.77,0.88c1.38,0.34,2.64,0.8,3.85,1.45l0.4,0.21c0.1,0.07,1.09,0.34,2.3,0.58
			C201.23,115.05,203.2,117.08,204.73,119.33"/>
		<path style="clip-path:url(#SVGID_00000119113059436787673070000017806096106702516659_);fill:#244C84;" d="M162.93,149.56
			c-2.3-2.23-4-4.95-5.02-7.83c1.31-0.23,2.59-0.55,3.84-0.95c0.11,2.87,0.51,5.75,1.14,8.57
			C162.91,149.42,162.92,149.49,162.93,149.56"/>
		<path style="clip-path:url(#SVGID_00000119113059436787673070000017806096106702516659_);fill:#244777;" d="M174.58,113.53
			c-0.19-0.54-0.4-1.09-0.62-1.64c0.74-0.33,1.53-0.61,2.35-0.82c1.17-0.3,2.37-0.44,3.58-0.45
			C178,111.32,176.21,112.35,174.58,113.53"/>
		<path style="clip-path:url(#SVGID_00000119113059436787673070000017806096106702516659_);fill:#1A3E67;" d="M198.96,112.72
			c-1.22-0.24-2.2-0.51-2.3-0.58l-0.4-0.21c-1.21-0.65-2.47-1.11-3.85-1.45c-2.12-0.52-4.5-0.88-6.77-0.88
			c-0.52,0-1.04,0.02-1.55,0.06c-1.44,0.11-2.84,0.46-4.19,0.96c-1.21,0.01-2.41,0.15-3.58,0.45c-0.82,0.21-1.6,0.49-2.35,0.82
			c-0.49-1.21-1.06-2.46-1.71-3.7c0.49-0.24,1-0.47,1.52-0.67c2.3-0.89,4.76-1.29,7.25-1.29c5.35,0,10.84,1.84,15.21,4.57
			C197.17,111.4,198.08,112.04,198.96,112.72"/>
	</g>
	<path class="st22" d="M195.68,145.63c0.76-1.18,1.31-2.51,1.6-4c0.64-3.26,0.03-6.5-1.49-9.42c0.6-0.2,1.2-0.43,1.82-0.66
		c0.81-0.31,1.58-0.45,2.3-0.45c2.37,0,4.18,1.51,4.84,3.35c0.46,0.81,0.63,1.74,0.53,2.71c-0.72,1-1.37,1.9-1.87,2.45
		c-1.67,1.86-4.88,4.13-7.05,5.58C196.14,145.34,195.91,145.49,195.68,145.63"/>
	<path class="st23" d="M195.49,145.91c0.06-0.09,0.13-0.19,0.19-0.28c0.23-0.14,0.46-0.29,0.69-0.44c2.17-1.45,5.38-3.72,7.05-5.58
		c0.5-0.56,1.14-1.46,1.87-2.45c-0.04,0.41-0.13,0.83-0.27,1.25C204.19,140.86,199.24,143.91,195.49,145.91"/>
	<path class="st24" d="M180.13,149.77c-2.14,0-4.22-0.28-6.13-0.84c0.01-0.34,0.02-0.67,0.04-1.01c2.28,0.83,4.74,1.35,7.21,1.52
		c0.21,0.11,0.43,0.19,0.65,0.26c-0.22,0.01-0.45,0.02-0.67,0.03C180.86,149.76,180.49,149.77,180.13,149.77"/>
	<path class="st25" d="M181.37,152.17c-2.49,0-5.01-0.4-7.37-1.19c-0.02-0.68-0.02-1.36,0-2.05c1.92,0.55,3.99,0.84,6.13,0.84
		c0.36,0,0.73-0.01,1.09-0.02c0.22-0.01,0.45-0.02,0.67-0.03c0.44,0.13,0.9,0.2,1.37,0.2c0.76,0,1.53-0.17,2.21-0.5
		c2.02-0.19,3.96-0.64,5.72-1.37c0.33-0.14,2.11-0.95,4.29-2.12C192.62,150.08,187.08,152.17,181.37,152.17"/>
	<path class="st24" d="M190.25,133.35c-1.51-1.67-3.52-3.04-5.8-3.92c-0.64-0.25-1.3-0.46-1.98-0.63c0.25-0.23,0.5-0.46,0.77-0.68
		c1.46-1.25,3.25-2.56,5.22-3.6c3.19,1.99,5.75,4.67,7.33,7.7c-1.19,0.41-2.36,0.75-3.56,1.03
		C191.58,133.29,190.9,133.32,190.25,133.35"/>
	<path class="st26" d="M174,148.93c-2.67-0.77-5.04-2.08-6.86-3.89c-0.32-0.31-0.62-0.63-0.92-0.95c0.03-0.35,0.07-0.7,0.11-1.05
		c0.54,0.62,1.16,1.19,1.83,1.71c1.69,1.31,3.7,2.38,5.88,3.16C174.02,148.26,174.01,148.59,174,148.93"/>
	<path class="st27" d="M174,150.98c-0.48-0.16-0.95-0.34-1.41-0.53c-2.6-1.09-4.77-2.61-6.51-4.4c0.03-0.65,0.08-1.3,0.14-1.95
		c0.3,0.32,0.6,0.63,0.92,0.95c1.82,1.81,4.19,3.11,6.86,3.89C173.98,149.61,173.98,150.3,174,150.98"/>
	<path class="st26" d="M182.47,128.8c-0.68-0.17-1.38-0.31-2.09-0.38c-1.05-0.26-2.13-0.42-3.2-0.42c-0.65,0-1.31,0.06-1.96,0.19
		c0.53-1.69,0.82-3.44,0.9-5.22c0.34-0.32,0.69-0.64,1.06-0.95c0.39-0.33,0.79-0.67,1.22-1c0,0,0,0,0,0
		c2.09,0.24,4.14,0.78,6.05,1.51c1.42,0.55,2.76,1.22,4.01,2c-1.97,1.04-3.76,2.35-5.22,3.6
		C182.97,128.34,182.72,128.56,182.47,128.8"/>
	<path class="st28" d="M166.21,144.1c-1.16-1.24-2.18-2.51-3.12-3.8c0.43-0.17,0.86-0.35,1.28-0.54c0.39,1.17,1.07,2.28,1.95,3.28
		C166.29,143.4,166.25,143.75,166.21,144.1"/>
	<path class="st29" d="M166.07,146.05c-1.58-1.63-2.81-3.5-3.66-5.49c0.23-0.08,0.46-0.17,0.69-0.25c0.94,1.29,1.95,2.55,3.12,3.8
		C166.15,144.75,166.1,145.4,166.07,146.05"/>
	<path class="st28" d="M176.12,122.96c0.01-0.31,0.02-0.61,0.02-0.92c0-0.49-0.02-0.99-0.05-1.48c0.77,0.11,1.54,0.26,2.3,0.45
		c-0.42,0.34-0.83,0.67-1.22,1C176.81,122.32,176.46,122.64,176.12,122.96"/>
	<path class="st30" d="M181.24,149.45c-2.46-0.18-4.92-0.7-7.21-1.52c0.02-0.33,0.04-0.67,0.07-1c0.72,0.49,1.51,0.92,2.37,1.28
		c1.42,0.6,2.96,0.96,4.51,1.1C181.07,149.35,181.15,149.4,181.24,149.45 M185.74,149.26c0.22-0.13,0.42-0.27,0.61-0.43
		c3.34-0.94,6.04-3.13,6.71-6.55c0.03-0.13,0.05-0.26,0.07-0.39c0.03,0,0.05,0,0.08,0c0.94,0,1.88-0.38,2.45-1.3
		c1.21-1.94-0.82-3.65-2.82-3.65c-0.11,0-0.22,0-0.33,0.02c-0.52-1.29-1.3-2.51-2.28-3.6c0.66-0.03,1.33-0.06,1.98-0.11
		c1.19-0.27,2.36-0.62,3.56-1.03c1.53,2.92,2.13,6.17,1.49,9.42c-0.29,1.49-0.84,2.82-1.6,4
		C192.74,147.44,189.32,148.63,185.74,149.26"/>
	<path class="st31" d="M185.47,149.4c0.09-0.05,0.19-0.1,0.28-0.15c3.58-0.62,6.99-1.82,9.93-3.63c-0.06,0.1-0.12,0.19-0.19,0.28
		c-2.19,1.17-3.97,1.98-4.29,2.12C189.43,148.76,187.49,149.21,185.47,149.4"/>
	<path class="st32" d="M174.04,147.92c-2.17-0.79-4.18-1.85-5.88-3.16c-0.67-0.52-1.29-1.09-1.83-1.71c0.2-1.62,0.49-3.22,0.89-4.8
		c0.5-0.31,0.98-0.64,1.45-0.99c0.14,3.72,1.99,7.34,5.43,9.67C174.08,147.26,174.06,147.59,174.04,147.92"/>
	<path class="st33" d="M166.33,143.05c-0.88-1-1.56-2.11-1.95-3.28c0.92-0.41,1.81-0.88,2.65-1.4c0.06-0.04,0.13-0.08,0.19-0.12
		C166.82,139.83,166.53,141.43,166.33,143.05"/>
	<path class="st34" d="M185.86,133.48c-2.24,0-4.47-0.1-6.71-0.29c-0.14-0.01-0.28-0.02-0.43-0.04c1.04-1.54,2.28-3,3.74-4.35
		c0.68,0.17,1.34,0.38,1.98,0.63c2.29,0.88,4.29,2.25,5.8,3.92c-0.35,0.01-0.69,0.03-1.02,0.05
		C188.1,133.45,186.98,133.48,185.86,133.48"/>
	<path class="st35" d="M178.73,133.14c-0.25-0.02-0.49-0.04-0.74-0.07c-0.51-0.22-1.01-0.46-1.54-0.71
		c-0.84-0.39-1.7-0.75-2.57-1.02c0.4-0.73,0.74-1.49,1.03-2.26l0,0c0.11-0.3,0.22-0.6,0.31-0.91c0.65-0.13,1.3-0.19,1.96-0.19
		c1.08,0,2.16,0.16,3.2,0.42c0.7,0.08,1.4,0.21,2.09,0.38C181.01,130.15,179.77,131.61,178.73,133.14"/>
	<path class="st36" d="M180.98,149.3c-1.55-0.14-3.09-0.5-4.51-1.1c-0.86-0.36-1.65-0.79-2.37-1.28c0.4-4.85,1.79-9.61,4.62-13.78
		c0.14,0.01,0.28,0.02,0.43,0.04c2.23,0.19,4.47,0.29,6.71,0.29c1.12,0,2.25-0.03,3.37-0.08c0.33-0.02,0.67-0.03,1.02-0.05
		c0.99,1.09,1.77,2.31,2.28,3.6c-0.83,0.08-1.62,0.47-2.13,1.29c-1.2,1.92,0.77,3.6,2.73,3.65c-0.02,0.13-0.04,0.26-0.07,0.39
		c-0.67,3.42-3.37,5.61-6.71,6.55c0.29-0.24,0.54-0.53,0.74-0.85c1.03-1.66,0.82-3.4,0.78-5.23c-0.03-1.63-0.3-3.3-1.39-4.59
		c-0.43-0.51-1.27-0.78-2.02-0.78c-0.27,0-0.52,0.03-0.75,0.1c-1.98,0.6-3.26,2.49-3.92,4.25c-0.81,2.16-1.17,4.11-0.06,6.25
		C180.04,148.54,180.47,148.98,180.98,149.3"/>
	<path class="st37" d="M174.11,146.92c-3.44-2.32-5.29-5.95-5.43-9.67c0.62-0.46,1.21-0.96,1.77-1.48c1.02-0.96,1.93-2.03,2.7-3.2
		c0.26-0.4,0.5-0.8,0.73-1.22c0.88,0.27,1.73,0.63,2.57,1.02c0.52,0.24,1.03,0.48,1.54,0.71c0.25,0.02,0.5,0.04,0.74,0.07
		C175.9,137.31,174.51,142.07,174.11,146.92"/>
	<path class="st38" d="M181.9,149.71c-0.22-0.07-0.44-0.16-0.65-0.26c0.63,0.05,1.26,0.07,1.88,0.07c0.35,0,0.71-0.01,1.06-0.02
		C183.42,149.59,182.66,149.66,181.9,149.71"/>
	<path class="st39" d="M183.26,149.91c-0.47,0-0.93-0.06-1.37-0.2c0.77-0.05,1.53-0.12,2.29-0.22c0.43-0.02,0.86-0.05,1.29-0.09
		C184.79,149.74,184.02,149.91,183.26,149.91"/>
	<path class="st40" d="M183.13,149.51c-0.62,0-1.25-0.02-1.88-0.07c-0.09-0.04-0.18-0.09-0.26-0.15c0.46,0.04,0.93,0.06,1.4,0.06
		c1.37,0,2.72-0.18,3.98-0.54c-0.19,0.16-0.4,0.31-0.61,0.43c-0.52,0.09-1.04,0.17-1.56,0.23
		C183.83,149.51,183.48,149.51,183.13,149.51"/>
	<path class="st41" d="M184.18,149.49c0.52-0.07,1.04-0.15,1.56-0.23c-0.09,0.05-0.18,0.1-0.28,0.15
		C185.04,149.45,184.61,149.47,184.18,149.49"/>
	<path class="st42" d="M182.38,149.36c-0.46,0-0.93-0.02-1.4-0.06c-0.51-0.31-0.94-0.75-1.23-1.32c-1.11-2.14-0.75-4.09,0.06-6.25
		c0.66-1.76,1.93-3.65,3.92-4.25c0.23-0.07,0.48-0.1,0.75-0.1c0.75,0,1.59,0.27,2.02,0.78c1.09,1.29,1.36,2.96,1.39,4.59
		c0.04,1.83,0.25,3.56-0.78,5.23c-0.2,0.32-0.45,0.61-0.74,0.85C185.1,149.18,183.75,149.36,182.38,149.36"/>
	<path class="st43" d="M197.1,125.76c-0.79,0.34-1.2,0.89-1.66,1.44c-0.23,0.29-0.42,1.03-0.97,1.02c-3.11-0.03-1.27-3.45-2.59-4.06
		c-0.71-0.33-1.36-0.24-1.83,0c-1.31,0.67-0.55,2.75,0.09,3.95c0.74,1.38,2.52,2.56,4.53,2.86c2.06,0.31,3.32-0.4,4-1.49
		c0.52-0.83,1.16-2.55-0.45-3.52C197.9,125.76,197.41,125.63,197.1,125.76L197.1,125.76z"/>
	<path class="st44" d="M191,126.62c-0.33-1.24,0.8-4.03,2.11-4.55c2.77-1.1,3.89,1.42,4.08,1.91c0.3,0.8,0.63,1.73,0.36,2.67
		c-0.02,0.08-0.47,3.3-1.98,3.5C192.16,130.6,191.29,127.73,191,126.62L191,126.62z M199.96,133.3c1.25-1.08,1.79-2.37,1.65-3.81
		c0.26-0.58,0.32-1.28,0.24-2.04c-0.24-2.16-0.52-4.69-2.12-6.9c-1.31-1.82-3.96-3.62-6.76-3.74c-3.52-0.15-5.05,2.05-6.25,3.8
		c-1.39,2-2.07,4.18-0.88,6.8c0.95,2.09,2.93,5.14,5.94,6.5C195.01,135.35,198.26,134.76,199.96,133.3L199.96,133.3z"/>
	<g>
		<defs>
			<path id="SVGID_00000123439323441796553030000017246031613979962264_" d="M191,126.62c-0.33-1.24,0.8-4.03,2.11-4.55
				c2.77-1.1,3.89,1.42,4.08,1.91c0.3,0.8,0.63,1.73,0.36,2.67c-0.02,0.08-0.47,3.3-1.98,3.5C192.16,130.6,191.29,127.73,191,126.62
				 M199.96,133.3c1.25-1.08,1.79-2.37,1.65-3.81c0.26-0.58,0.32-1.28,0.24-2.04c-0.24-2.16-0.52-4.69-2.12-6.9
				c-1.31-1.82-3.96-3.62-6.76-3.74c-3.52-0.15-5.05,2.05-6.25,3.8c-1.38,2-2.07,4.18-0.88,6.8c0.95,2.09,2.93,5.14,5.94,6.5
				C195.01,135.35,198.26,134.76,199.96,133.3"/>
		</defs>
		<clipPath id="SVGID_00000115496666017894719060000003749507635108647844_">
			<use xlink:href="#SVGID_00000123439323441796553030000017246031613979962264_"  style="overflow:visible;"/>
		</clipPath>
		<path style="clip-path:url(#SVGID_00000115496666017894719060000003749507635108647844_);fill:#20486D;" d="M202.04,130.02
			c1.62-0.66,2.7-0.98,3.2-2.41c0.5-1.39,0.55-2.81-0.03-4.42c-1.07-2.93-4.08-5.95-8.17-7.65c-4-1.67-8.46-1.85-11.41-0.47
			c-2.9,1.36-5.32,5.05-1.91,8.01c1,0.86,2.44,1.33,3.61,0.96c3.11-0.99,2.17-7.28,8.09-4.5c2.12,1,3.33,2.73,3.85,4.23
			c0.36,1.05,0.39,2.01,0.49,3.02c0.1,0.93,0.72,1.76,1.01,2.68C200.89,129.84,201.59,130.2,202.04,130.02L202.04,130.02z"/>
		<path style="clip-path:url(#SVGID_00000115496666017894719060000003749507635108647844_);fill:#26588B;" d="M201.88,123.87
			c-0.75,4.53-2.3,7.85-7.86,6.93c-5.84-0.97-5.49-8.25-5.35-11.72c0.06-1.41-3.4,0.04-5.04,0.66c-3.75,1.42-2.64,5.96-0.9,9.03
			c2.01,3.55,6.51,6.78,11.81,7.47c9.31,1.22,16.19-6.02,11.05-12.39C204.52,122.51,202.12,122.85,201.88,123.87L201.88,123.87z"/>
	</g>
	<path class="st47" d="M192.48,142.57c0,0,0.68,0,0.66,0c0.25-1.69,0.02-3.37-0.61-4.93c0.11-0.01,0.22-0.02,0.33-0.02
		c1.99,0,4.03,1.71,2.82,3.65c-0.58,0.92-1.51,1.3-2.45,1.3"/>
	<path class="st48" d="M193.14,141.88c-1.97-0.04-3.93-1.73-2.73-3.65c0.51-0.81,1.3-1.21,2.13-1.29
		C193.16,138.51,193.4,140.19,193.14,141.88"/>
	<path class="st49" d="M80.78,97.38c-2.6,3.52-4.21,7.64-4.91,11.87c-1.22,7.34,0.71,15.65,7.02,20.19
		c4.64,3.33,10.83,4.11,16.69,4.05c8.05-0.08,16.3-1.61,22.95-5.83s11.41-11.48,10.85-18.95c-0.46-6.12-4.4-11.71-9.59-15.5
		c-5.52-4.04-14.5-8.44-21.79-7.48C93.87,86.79,85.46,91.03,80.78,97.38"/>
	<g>
		<defs>
			<path id="SVGID_00000183961790903390690910000017031010649214902706_" d="M80.78,97.38c-2.6,3.52-4.21,7.64-4.91,11.87
				c-1.22,7.34,0.71,15.65,7.02,20.19c4.64,3.33,10.83,4.11,16.69,4.05c8.05-0.08,16.3-1.61,22.95-5.83s11.41-11.48,10.85-18.95
				c-0.46-6.12-4.4-11.71-9.59-15.5c-5.52-4.04-14.5-8.44-21.79-7.48C93.87,86.79,85.46,91.03,80.78,97.38"/>
		</defs>
		<clipPath id="SVGID_00000156588251387176826930000007868217556408829374_">
			<use xlink:href="#SVGID_00000183961790903390690910000017031010649214902706_"  style="overflow:visible;"/>
		</clipPath>
		<path style="clip-path:url(#SVGID_00000156588251387176826930000007868217556408829374_);fill:#19559A;" d="M91.66,86.92
			c2.13,1.36,8.57,1.2,11.04,1.58c2.73,0.42,6.61,1.9,9.14,2.94c4.98,2.05,9.03,5.74,11.83,10.12c2.85,4.45,3.56,9.56,1.65,14.03
			c-2.26,5.26-5.52,9.26-8.8,13.83c-1.26,1.76-1.24,4.28,1.19,3.98c12.33-1.52,20.34-15.26,18.85-26.01
			c-1.6-11.59-11.96-20.95-23.99-23.47c-3.16-0.66-6.4-0.85-9.62-0.51c-2.67,0.28-10.27-0.24-11.67,2.16
			c-0.29,0.5,3.69,2.25,4.18,2.56L91.66,86.92"/>
		<path style="clip-path:url(#SVGID_00000156588251387176826930000007868217556408829374_);fill:#17457A;" d="M88.69,87.24
			c-3.84,0.71-6.54,3.74-8.88,6.46c-2.63,3.07-4.8,6.45-6.39,10.1c-2.7,6.2-3.38,13.36-1.01,19.76c2.6,7.04,8.25,12.02,15.76,14.44
			c3.82,1.23,8.07,1.69,12.1,1.59c4.78-0.12,8.86-1.29,13.21-3c1.43-0.56,2.63-1.59,2.59-3.17c-0.01-0.28-0.03-0.61-0.13-0.87
			c-0.53-1.46,0.02-1.81-1.61-1.9c-3.85-0.22-9.38-0.79-13.24-0.73c-3.06,0.05-5.91-0.06-8.85-0.83c-2.55-0.67-4.94-1.8-6.82-3.56
			c-1.66-1.57-2.76-3.53-3.4-5.64c-1.47-4.89-0.57-9.96,1.5-14.87c1.08-2.57,2.61-5,4.11-7.38c1.68-2.68,6.2-7.03,6.25-10.23
			C93.91,86.07,89.97,87.01,88.69,87.24"/>
		<path style="clip-path:url(#SVGID_00000156588251387176826930000007868217556408829374_);fill:#1D4684;" d="M94.87,118.69
			c-4.96-1.6-10.48-4.41-12.82-8.79c-0.03-0.06-0.06-0.12-0.1-0.18c0.38-1.58,0.92-3.15,1.58-4.71c0.85-2.01,1.97-3.94,3.13-5.82
			c0.29,1.45,0.75,2.9,1.43,4.17c1.18,2.2,3.33,3.93,5.76,5.24c-0.23,1.43-0.31,2.88-0.22,4.33
			C93.76,114.87,94.15,116.85,94.87,118.69C94.87,118.69,94.87,118.69,94.87,118.69"/>
		<path style="clip-path:url(#SVGID_00000156588251387176826930000007868217556408829374_);fill:#194072;" d="M81.96,109.72
			c-1.15-2.24-1.77-4.91-2-7.37c-0.12-1.33-0.07-2.61,0.22-3.92l0.06-0.28c0.18-0.26,0.36-0.51,0.54-0.76
			c0.32-0.43,0.65-0.85,1-1.27c1.39-0.06,2.55-1.23,2.53-2.57c1.69-1.49,3.6-2.8,5.65-3.91c0.13,1.2-0.94,2.3-2.19,2.3
			c-0.2,0-0.41-0.03-0.62-0.09c-0.12,0.2-0.21,0.42-0.27,0.64l-0.05,0.14c-0.04,0.29-0.11,0.57-0.22,0.86l-0.08,0.36
			c-0.24,1.08-0.28,2.14-0.18,3.25c0.06,0.68,0.16,1.39,0.3,2.09c-1.16,1.88-2.29,3.81-3.13,5.82
			C82.88,106.56,82.34,108.14,81.96,109.72"/>
		<path style="clip-path:url(#SVGID_00000156588251387176826930000007868217556408829374_);fill:#1F427C;" d="M101.88,127.71
			c-0.97,0-1.94-0.04-2.92-0.11c-0.28-0.76-0.61-1.51-1.02-2.24c-2.7-4.82-8.01-8.05-13.66-9.42c-0.92-0.22-1.92-0.43-2.96-0.6
			c-0.08-1.95,0.16-3.92,0.63-5.88c0.03,0.06,0.06,0.12,0.1,0.18c2.34,4.37,7.86,7.19,12.82,8.79c0.57,2.64,1.71,5.15,3.8,7.08
			c1.06,0.98,2.28,1.7,3.58,2.21c-0.12,0-0.23,0-0.23,0"/>
		<path style="clip-path:url(#SVGID_00000156588251387176826930000007868217556408829374_);fill:#1D3B6C;" d="M81.32,115.6
			c-1.06-0.18-2.17-0.32-3.3-0.42c-0.3-0.87-0.54-1.75-0.73-2.6c-0.29-1.31-0.39-2.59-0.27-3.91l0.04-0.44
			c0.03-0.13-0.14-1.07-0.46-2.2c0.79-2.77,1.99-5.45,3.64-7.87l-0.06,0.28c-0.29,1.31-0.34,2.58-0.22,3.92
			c0.23,2.46,0.85,5.13,2,7.37C81.48,111.68,81.25,113.64,81.32,115.6"/>
		<path style="clip-path:url(#SVGID_00000156588251387176826930000007868217556408829374_);fill:#1D3B6C;" d="M81.78,96.12
			c0.77-0.91,1.62-1.76,2.53-2.57C84.34,94.88,83.17,96.05,81.78,96.12"/>
		<path style="clip-path:url(#SVGID_00000156588251387176826930000007868217556408829374_);fill:#203E75;" d="M99.91,129.66
			c-0.12,0-0.25,0-0.37,0c-0.15-0.7-0.34-1.39-0.58-2.06c0.98,0.08,1.95,0.11,2.92,0.11c0.12,0,0.25,0,0.37,0
			c0.32,0.12,0.65,0.23,0.98,0.33c-0.92,0.51-1.83,1.05-2.72,1.62C100.31,129.66,100.11,129.66,99.91,129.66"/>
		<path style="clip-path:url(#SVGID_00000156588251387176826930000007868217556408829374_);fill:#1D3766;" d="M99.65,130.5
			c-0.03-0.19-0.07-0.38-0.11-0.57c0.12,0,0.25,0,0.37,0c0.2,0,0.4,0,0.6,0C100.22,130.11,99.93,130.3,99.65,130.5 M78.02,115.17
			c-0.81-0.07-1.62-0.12-2.44-0.15c-0.03-0.52-0.05-1.05-0.05-1.57c0-1.41,0.12-2.82,0.34-4.2c0.18-1.09,0.42-2.17,0.72-3.24
			c0.32,1.12,0.49,2.07,0.46,2.2l-0.04,0.44c-0.12,1.33-0.02,2.6,0.27,3.91C77.48,113.42,77.73,114.3,78.02,115.17"/>
	</g>
	<path class="st58" d="M98.5,98.18c-0.49-0.39-1.01-0.77-1.54-1.16c-3.01-2.16-2.41-5.43-0.29-7.37c0.63-0.79,1.53-1.42,2.59-1.83
		c1.38,0.08,2.62,0.15,3.44,0.27c2.73,0.42,6.61,1.9,9.14,2.94c0.26,0.11,0.52,0.22,0.78,0.34c-0.07,0-0.13,0-0.2,0
		c-1.53,0-3.11,0.23-4.74,0.74C103.97,93.25,100.85,95.42,98.5,98.18"/>
	<path class="st59" d="M113.01,91.79c-0.13,0-0.26-0.01-0.39-0.01c-0.26-0.12-0.52-0.23-0.78-0.34c-2.53-1.04-6.41-2.52-9.14-2.94
		c-0.82-0.12-2.06-0.19-3.44-0.27c0.45-0.18,0.94-0.32,1.44-0.42c0.3-0.06,0.62-0.09,0.96-0.09
		C104.74,87.73,109.54,89.94,113.01,91.79"/>
	<path class="st60" d="M101.14,111.32c-0.36-0.09-0.72-0.18-1.07-0.28c-1.99-0.56-4.2-1.36-6.21-2.45c0.6-3.65,2.21-7.14,4.65-10
		c0.98,0.77,1.89,1.56,2.73,2.4c0.36,0.51,0.71,1.05,1.04,1.57c-1.04,2.11-1.55,4.46-1.4,6.8
		C100.92,110.02,101,110.68,101.14,111.32 M124.17,103.83c-0.39-1.2-0.9-2.37-1.5-3.48c-0.08-0.22-0.19-0.43-0.32-0.64
		c-0.1-0.16-0.2-0.3-0.31-0.43c0-0.01-0.01-0.01-0.01-0.02c0.59,0.74,1.14,1.51,1.64,2.31c0.36,0.56,0.69,1.14,0.98,1.72
		C124.49,103.47,124.33,103.65,124.17,103.83"/>
	<path class="st61" d="M124.65,103.3c-0.29-0.58-0.62-1.16-0.98-1.72c-0.51-0.79-1.06-1.56-1.64-2.31c-1.26-1.98-2.88-3.71-4.8-5.02
		c-0.29-0.2-1.98-1.25-4.22-2.45c6.12,0.24,11.17,4.23,13.7,9.47c-0.25,0.23-0.5,0.46-0.75,0.7
		C125.51,102.39,125.07,102.84,124.65,103.3"/>
	<path class="st62" d="M106.69,120.55c-3.4,0-6.81-0.43-10.2-1.38c-0.53-0.15-1.07-0.31-1.62-0.49c0,0,0,0,0,0
		c-0.72-1.84-1.12-3.81-1.24-5.76c-0.09-1.45-0.01-2.9,0.22-4.33c2.01,1.09,4.21,1.89,6.21,2.45c0.36,0.1,0.71,0.19,1.07,0.28
		c0.14,0.65,0.33,1.3,0.57,1.92c0.38,1.78,1.15,3.46,2.55,4.76c1.29,1.19,2.93,1.83,4.65,2.02c0.11,0.16,0.22,0.31,0.35,0.45
		C108.4,120.52,107.55,120.55,106.69,120.55"/>
	<path class="st63" d="M102.25,127.97c-1.3-0.5-2.52-1.23-3.58-2.21c-2.09-1.93-3.23-4.44-3.8-7.08c0.55,0.18,1.09,0.34,1.62,0.49
		c3.39,0.95,6.8,1.38,10.2,1.38c0.86,0,1.71-0.03,2.56-0.08c0.21,0.25,0.45,0.48,0.71,0.71c1.37,1.15,3.11,1.8,4.95,1.8
		c0.29,0,0.59-0.02,0.89-0.05c1.18-0.13,2.26-0.46,3.22-0.95c0.02,0.08,0.05,0.15,0.07,0.23c0.12,0.37,0.25,0.73,0.4,1.08
		c-3.37,0.16-6.74,0.89-9.82,2.05c-1.82,0.68-3.79,1.56-5.74,2.59C103.38,127.95,102.81,127.97,102.25,127.97"/>
	<path class="st64" d="M103.23,128.3c-0.33-0.1-0.66-0.21-0.98-0.33c0.57-0.01,1.13-0.02,1.69-0.05
		C103.7,128.04,103.46,128.17,103.23,128.3"/>
	<path class="st65" d="M123.98,104.05c-0.24-1.04-0.62-2.04-1.12-2.98c-0.04-0.24-0.11-0.48-0.2-0.72c0.61,1.1,1.11,2.27,1.5,3.48
		C124.11,103.9,124.05,103.98,123.98,104.05"/>
	<path class="st66" d="M109.26,120.47c-0.13-0.15-0.24-0.3-0.35-0.45c0.38,0.04,0.76,0.06,1.14,0.06c1.27,0,2.56-0.22,3.76-0.63
		c1.66-0.55,3.21-1.35,4.59-2.34c-0.01,0.18-0.01,0.35-0.01,0.53l0,0c0,0.43,0.02,0.87,0.05,1.3
		C115.43,119.74,112.36,120.28,109.26,120.47"/>
	<path class="st67" d="M114.92,122.98c-1.84,0-3.58-0.64-4.95-1.8c-0.27-0.22-0.5-0.46-0.71-0.71c3.1-0.19,6.18-0.73,9.19-1.53
		c0.09,1.02,0.28,2.03,0.59,3.03c-0.97,0.49-2.04,0.82-3.22,0.95C115.51,122.96,115.22,122.98,114.92,122.98"/>
	<path class="st65" d="M102.28,102.16c-0.34-0.53-0.68-1.06-1.04-1.57c-0.84-0.84-1.75-1.63-2.73-2.4c2.35-2.76,5.47-4.93,9.18-6.07
		c1.63-0.5,3.22-0.74,4.74-0.74c0.07,0,0.13,0,0.2,0c3.74,1.7,6.92,4.34,9.41,7.48c0,0.01,0.01,0.01,0.01,0.02
		c-0.33-0.4-0.72-0.69-1.15-0.92c-1.9-1.95-4.48-3.21-7.39-3.21c-1.03,0-2.09,0.16-3.19,0.5
		C106.66,96.37,103.85,98.98,102.28,102.16"/>
	<path class="st68" d="M122.03,99.27c-2.49-3.14-5.67-5.78-9.41-7.48c0.13,0,0.26,0,0.39,0.01c2.24,1.2,3.93,2.25,4.22,2.45
		C119.15,95.55,120.77,97.28,122.03,99.27"/>
	<path class="st69" d="M107.44,112.17c-2.1-0.07-4.2-0.34-6.3-0.84c-0.14-0.65-0.22-1.3-0.26-1.95c-0.14-2.34,0.36-4.69,1.4-6.8
		c0.18,0.28,0.35,0.55,0.52,0.82c1.74,2.69,3.21,5.5,4.47,8.41C107.33,111.92,107.38,112.04,107.44,112.17"/>
	<path class="st70" d="M108.91,120.02c-1.72-0.19-3.36-0.82-4.65-2.02c-1.41-1.3-2.17-2.98-2.55-4.76
		c-0.24-0.62-0.43-1.27-0.57-1.92c2.1,0.51,4.2,0.78,6.3,0.84c0.09,0.21,0.18,0.43,0.28,0.65c0,0.53-0.01,1.07-0.02,1.63
		C107.66,116.42,107.78,118.4,108.91,120.02"/>
	<path class="st71" d="M108.52,112.18c-0.36,0-0.72-0.01-1.08-0.02c-0.05-0.12-0.11-0.25-0.16-0.37c-1.27-2.91-2.73-5.72-4.47-8.41
		c-0.17-0.27-0.35-0.54-0.52-0.82c1.58-3.17,4.38-5.78,8.04-6.92c1.09-0.34,2.16-0.5,3.19-0.5c2.91,0,5.49,1.26,7.39,3.21
		c-0.64-0.33-1.37-0.5-2.17-0.59c-0.1-0.01-0.19-0.02-0.29-0.02c-0.56-0.51-1.34-0.84-2.36-0.84c-2.15,0-3.28,1.49-3.36,3.05
		c-1.23,0.64-2.62,1.5-3.21,2.6c-0.51,0.95-0.57,2.47,0.44,3.21c1.2,0.88,2.66,1.19,4.15,1.19c0.72,0,1.45-0.07,2.16-0.2
		c2.41-0.41,4.77-1,6.08-3.1c0.49-0.79,0.66-1.71,0.52-2.59c0.5,0.94,0.88,1.94,1.12,2.98c-1.63,1.91-3,4.05-3.98,6.29
		C116.28,111.5,112.41,112.18,108.52,112.18"/>
	<path class="st72" d="M110.05,120.08c-0.38,0-0.76-0.02-1.14-0.06c-1.13-1.62-1.25-3.6-1.21-5.58c0.01-0.56,0.03-1.1,0.02-1.63
		c-0.09-0.21-0.18-0.43-0.28-0.65c0.36,0.01,0.72,0.02,1.08,0.02c3.9,0,7.76-0.68,11.49-1.84c-0.95,2.19-1.53,4.48-1.61,6.78
		c-1.38,0.99-2.93,1.78-4.59,2.34C112.61,119.86,111.32,120.08,110.05,120.08"/>
	<path class="st73" d="M122.67,100.35c-0.2-0.36-0.41-0.72-0.63-1.07c0.11,0.13,0.21,0.27,0.31,0.43
		C122.48,99.92,122.59,100.13,122.67,100.35"/>
	<path class="st74" d="M122.87,101.07c-0.53-0.99-1.19-1.9-1.97-2.7c0.43,0.22,0.82,0.52,1.15,0.92c0.22,0.35,0.43,0.71,0.63,1.07
		C122.76,100.59,122.83,100.83,122.87,101.07"/>
	<path class="st75" d="M114.11,106.96c-1.49,0-2.95-0.32-4.15-1.19c-1.02-0.74-0.95-2.26-0.44-3.21c0.59-1.1,1.98-1.95,3.21-2.6
		c-0.1,1.69,1.02,3.45,3.36,3.45c3.48,0,4.26-3.89,2.36-5.65c0.09,0,0.19,0.01,0.29,0.02c0.8,0.1,1.53,0.27,2.17,0.59
		c0.78,0.8,1.44,1.71,1.97,2.7c0.15,0.88-0.03,1.8-0.52,2.59c-1.31,2.1-3.67,2.69-6.08,3.1
		C115.56,106.88,114.83,106.96,114.11,106.96"/>
	<path class="st76" d="M99.71,91.49c0.82,0.37,1.68,0.42,2.58,0.49c0.46,0.03,1.44-0.14,1.72,0.21c1.6,2.03-3.41,2.21-3.44,3.32
		c-0.01,0.59,0.43,0.98,0.97,1.18c1.48,0.57,3.55-0.75,4.63-1.66c1.24-1.04,1.7-2.66,0.99-4.09c-0.72-1.46-2.23-1.99-3.87-1.99
		c-1.25,0-3.63,0.28-3.93,1.71C99.29,90.97,99.39,91.34,99.71,91.49L99.71,91.49z"/>
	<path class="st77" d="M103.94,95.09c-1.3,0.71-5.19,1.11-6.49,0.47c-2.76-1.35-0.37-3.1,0.11-3.41c0.78-0.52,1.72-1.11,2.97-1.32
		c0.11-0.02,4.16-1.03,5.19-0.13C108.03,92.73,105.1,94.45,103.94,95.09L103.94,95.09z M107.12,86.59c-1.94-0.38-3.74-0.2-5.38,0.47
		c-0.83,0.07-1.68,0.31-2.54,0.67c-2.43,1.02-5.28,2.23-7.05,4.16c-1.46,1.58-2.21,4.03-0.87,5.89c1.68,2.34,5.09,2.44,7.79,2.51
		c3.09,0.09,6.03-0.35,8.51-2.18c1.97-1.46,4.54-3.98,4.56-6.47C112.16,88.96,109.75,87.1,107.12,86.59L107.12,86.59z"/>
	<g>
		<defs>
			<path id="SVGID_00000020356479234918129970000003974566551138893238_" d="M103.94,95.09c-1.3,0.71-5.19,1.11-6.49,0.47
				c-2.76-1.35-0.37-3.1,0.11-3.41c0.78-0.52,1.71-1.11,2.97-1.32c0.11-0.02,4.16-1.03,5.19-0.13
				C108.03,92.73,105.1,94.45,103.94,95.09 M107.12,86.59c-1.94-0.38-3.74-0.2-5.38,0.47c-0.83,0.07-1.68,0.31-2.54,0.67
				c-2.43,1.02-5.28,2.23-7.05,4.16c-1.46,1.58-2.21,4.03-0.87,5.89c1.68,2.34,5.09,2.44,7.79,2.51c3.09,0.09,6.03-0.35,8.51-2.18
				c1.97-1.46,4.54-3.98,4.56-6.47C112.16,88.96,109.75,87.1,107.12,86.59"/>
		</defs>
		<clipPath id="SVGID_00000175300953599774468420000012592600756408411533_">
			<use xlink:href="#SVGID_00000020356479234918129970000003974566551138893238_"  style="overflow:visible;"/>
		</clipPath>
		<path style="clip-path:url(#SVGID_00000175300953599774468420000012592600756408411533_);fill:#14416C;" d="M102.15,86.57
			c-1.64-0.78-2.59-1.35-4.54-1.1c-1.91,0.24-3.62,0.78-5.21,1.81c-2.91,1.87-4.89,5.05-4.76,8.39c0.13,3.26,2.26,6.23,5.45,7.57
			c3.14,1.33,8.78,1.4,10.48-2c0.5-0.99,0.29-2.12-0.77-2.73c-2.81-1.61-9.76,1.53-9.59-3.42c0.06-1.78,1.48-3.26,2.98-4.21
			c1.05-0.66,2.18-1.06,3.31-1.54c1.05-0.44,1.71-1.18,2.64-1.74C102.54,87.39,102.6,86.79,102.15,86.57L102.15,86.57z"/>
		<path style="clip-path:url(#SVGID_00000175300953599774468420000012592600756408411533_);fill:#12508B;" d="M94.95,89.16
			c5.76-1.34,10.5-1.68,12.34,2.29c1.94,4.18-6.87,6.88-11.06,8.2c-1.7,0.54,1.84,2.18,3.43,2.99c3.66,1.85,8.45-0.7,11.16-3.07
			c3.14-2.74,4.59-6.95,2.62-10.67c-3.46-6.52-15.66-8.05-20.49-2.15C91.95,87.99,93.62,89.42,94.95,89.16L94.95,89.16z"/>
	</g>
	<path class="st80" d="M112.72,99.96c0.09-1.55,1.21-3.05,3.36-3.05c1.01,0,1.8,0.33,2.36,0.84c-0.07,0-0.14,0-0.22,0
		c-1.79,0-3.36,1.14-4.9,1.9C113.13,99.75,112.93,99.85,112.72,99.96"/>
	<path class="st81" d="M116.08,103.4c-2.34,0-3.46-1.76-3.36-3.45c0.21-0.11,0.41-0.21,0.61-0.31c1.53-0.76,3.11-1.9,4.9-1.9
		c0.07,0,0.14,0,0.22,0C120.35,99.51,119.56,103.4,116.08,103.4"/>
	<path class="st82" d="M50.98,133.73c-0.77,3.71-0.51,7.58,0.52,11.24c1.79,6.35,6.51,12.46,13.35,14.06
		c5.03,1.18,10.34-0.23,15.07-2.2c6.5-2.71,12.61-6.67,16.4-12.28c3.79-5.61,4.9-13.06,1.61-18.93c-2.7-4.82-8.01-8.05-13.66-9.42
		c-6.01-1.46-14.96-2.08-20.51,1.1C57.58,120.84,52.37,127.05,50.98,133.73"/>
	<g>
		<defs>
			<path id="SVGID_00000124863018767598218020000014498014235188980614_" d="M50.98,133.73c-0.77,3.71-0.51,7.58,0.52,11.24
				c1.79,6.35,6.51,12.46,13.35,14.06c5.03,1.18,10.34-0.23,15.07-2.2c6.5-2.71,12.61-6.67,16.4-12.28
				c3.79-5.61,4.9-13.06,1.61-18.93c-2.7-4.82-8.01-8.05-13.66-9.42c-6.01-1.46-14.96-2.08-20.51,1.1
				C57.58,120.84,52.37,127.05,50.98,133.73"/>
		</defs>
		<clipPath id="SVGID_00000119801951503578449650000006802138495161752195_">
			<use xlink:href="#SVGID_00000124863018767598218020000014498014235188980614_"  style="overflow:visible;"/>
		</clipPath>
		<path style="clip-path:url(#SVGID_00000119801951503578449650000006802138495161752195_);fill:#226BB5;" d="M55.84,121.67
			c2.24,0.4,7.4-1.84,9.56-2.34c2.37-0.56,6.08-0.64,8.52-0.62c4.82,0.03,9.5,1.69,13.43,4.32c4,2.67,6.52,6.58,6.65,10.84
			c0.16,5-0.97,9.33-1.89,14.11c-0.36,1.84,0.61,3.88,2.48,2.83c9.42-5.29,10.71-19.06,5.42-27.3
			c-5.69-8.87-17.64-13.06-28.36-11.15c-2.81,0.5-5.51,1.41-8,2.75c-2.06,1.11-8.42,3.18-8.65,5.59c-0.05,0.5,3.85,0.61,4.36,0.7
			L55.84,121.67"/>
		<path style="clip-path:url(#SVGID_00000119801951503578449650000006802138495161752195_);fill:#145FA3;" d="M53.55,122.91
			c-2.85,1.84-3.89,5.18-4.75,8.16c-0.97,3.36-1.44,6.81-1.35,10.29c0.16,5.91,2.33,11.95,6.67,16.36
			c4.78,4.85,11.25,7.04,18.26,6.53c3.57-0.26,7.18-1.28,10.41-2.69c3.83-1.67,6.7-3.96,9.58-6.78c0.95-0.93,1.53-2.16,0.9-3.42
			c-0.11-0.22-0.26-0.49-0.43-0.67c-0.98-1.01-0.67-1.47-2.03-1.01c-3.21,1.08-7.91,2.44-11.02,3.76c-2.46,1.04-4.82,1.9-7.5,2.23
			c-2.32,0.29-4.69,0.17-6.88-0.65c-1.94-0.72-3.58-1.96-4.89-3.46c-3.05-3.48-4.24-7.9-4.43-12.55c-0.1-2.44,0.22-4.92,0.53-7.34
			c0.34-2.73,2.36-7.74,1.19-10.35C57.34,120.24,54.5,122.3,53.55,122.91"/>
		<path style="clip-path:url(#SVGID_00000119801951503578449650000006802138495161752195_);fill:#1F5EA8;" d="M67.95,146.47
			c-4,0-8.27-0.72-11.19-3.01c-0.05-0.04-0.1-0.08-0.15-0.12c-0.29-1.41-0.45-2.86-0.51-4.34c-0.08-1.91,0.1-3.84,0.33-5.75
			c0.79,1.08,1.71,2.11,2.74,2.91c1.79,1.4,4.19,2.09,6.66,2.36c0.35,1.23,0.84,2.44,1.46,3.58c0.84,1.54,1.9,3.01,3.19,4.26
			c0,0,0,0,0,0C69.67,146.44,68.82,146.47,67.95,146.47"/>
		<path style="clip-path:url(#SVGID_00000119801951503578449650000006802138495161752195_);fill:#0F589C;" d="M56.61,143.35
			c-1.78-1.43-3.3-3.4-4.42-5.32c-0.61-1.04-1.05-2.1-1.31-3.25l-0.06-0.25c0.04-0.27,0.09-0.53,0.15-0.8
			c0.09-0.45,0.21-0.91,0.34-1.36c1.1-0.51,1.6-1.84,1.08-2.91c0.81-1.76,1.86-3.46,3.1-5.03c0.65,1.09-0.06,2.58-1.44,2.71
			c-0.02,0.2-0.01,0.41,0.02,0.61l0.01,0.13c0.08,0.25,0.12,0.5,0.15,0.77l0.08,0.32c0.22,0.96,0.58,1.83,1.08,2.69
			c0.31,0.53,0.66,1.07,1.04,1.59c-0.23,1.91-0.41,3.84-0.33,5.75C56.16,140.49,56.32,141.94,56.61,143.35"/>
		<path style="clip-path:url(#SVGID_00000119801951503578449650000006802138495161752195_);fill:#1E64AF;" d="M95.4,133.65
			c-0.03-2.26-0.54-4.53-1.62-6.7c-0.19-0.39-0.4-0.76-0.63-1.13c0.51-0.62,1-1.25,1.48-1.89c0.37-0.5,0.8-0.87,1.27-1.13
			c0.78,0.87,1.46,1.82,2.03,2.83c0.6,1.08,1.06,2.2,1.38,3.36C98.1,130.6,96.79,132.16,95.4,133.65"/>
		<path style="clip-path:url(#SVGID_00000119801951503578449650000006802138495161752195_);fill:#1C59A3;" d="M67.41,153.39
			c-1.63,0-3.25-0.15-4.76-0.53c-0.78-0.57-1.49-1.23-2.12-1.96c-2.08-2.38-3.3-5.19-3.92-8.22c0.05,0.04,0.1,0.08,0.15,0.12
			c2.92,2.29,7.19,3.01,11.19,3.01c0.86,0,1.72-0.03,2.54-0.09c1.46,1.96,3.34,3.61,5.76,4.49c1.17,0.42,2.36,0.61,3.54,0.61
			c0.07,0,0.13,0,0.2,0c-1.71,0.71-3.51,1.29-5.4,1.71C72.42,153.03,69.91,153.39,67.41,153.39"/>
		<path style="clip-path:url(#SVGID_00000119801951503578449650000006802138495161752195_);fill:#0E5394;" d="M62.65,153.52
			c-1.27-0.31-2.46-0.77-3.53-1.42c-2.01-1.23-3.83-3.07-5.21-4.91c-0.73-0.97-1.3-1.97-1.71-3.08l-0.14-0.37
			c-0.02-0.11-0.52-0.82-1.21-1.63c-0.21-1.3-0.33-2.62-0.33-3.93c0-1.22,0.1-2.44,0.3-3.65l0.06,0.25c0.26,1.15,0.7,2.21,1.31,3.25
			c1.12,1.92,2.63,3.89,4.42,5.32c0.62,3.03,1.84,5.84,3.92,8.22C61.16,152.29,61.87,152.95,62.65,153.52"/>
		<path style="clip-path:url(#SVGID_00000119801951503578449650000006802138495161752195_);fill:#1B5FA9;" d="M94.92,134.31
			c0,0,0-0.56,0-0.67c1.4-1.49,2.7-3.05,3.91-4.66c0.14,0.5,0.25,1,0.34,1.51c-1.56,1.07-3.01,2.23-4.25,3.47"/>
		<path style="clip-path:url(#SVGID_00000119801951503578449650000006802138495161752195_);fill:#0E5394;" d="M51.31,132.38
			c0.28-0.99,0.65-1.96,1.08-2.91C52.92,130.54,52.41,131.87,51.31,132.38"/>
		<path style="clip-path:url(#SVGID_00000119801951503578449650000006802138495161752195_);fill:#18539B;" d="M70.09,155.82
			c-1.59,0-3.17-0.23-4.67-0.79c-1.01-0.37-1.93-0.89-2.77-1.5c1.52,0.37,3.14,0.53,4.76,0.53c2.5,0,5.01-0.36,7.18-0.85
			c1.89-0.42,3.68-1,5.4-1.71c3.17-0.06,6.26-1.48,8.6-3.53c0.55-0.48,1.07-0.99,1.56-1.52c-0.05,0.6-0.07,1.21-0.07,1.81
			c0,0.43,0.01,0.86,0.03,1.29l0,0c0.01,0.12,0.01,0.24,0.02,0.36c-3.17,1.04-7.45,2.31-10.35,3.54c-2.46,1.04-4.82,1.9-7.5,2.23
			C71.57,155.76,70.83,155.82,70.09,155.82"/>
		<path style="clip-path:url(#SVGID_00000119801951503578449650000006802138495161752195_);fill:#094E8E;" d="M68.71,159.47
			c-1.29,0-2.58-0.13-3.86-0.43c-6.84-1.6-11.56-7.71-13.35-14.06c-0.27-0.94-0.48-1.9-0.64-2.86c0.68,0.81,1.18,1.52,1.21,1.63
			l0.14,0.37c0.41,1.12,0.98,2.12,1.71,3.08c1.39,1.83,3.2,3.67,5.21,4.91c1.07,0.65,2.26,1.11,3.53,1.42
			c0.84,0.62,1.76,1.13,2.77,1.5c1.5,0.56,3.08,0.79,4.67,0.79c0.74,0,1.48-0.05,2.22-0.14c2.68-0.34,5.04-1.19,7.5-2.23
			c2.9-1.23,7.18-2.5,10.35-3.54c0.02,0.35,0.06,0.71,0.1,1.06c-3.08,2.41-6.64,4.34-10.32,5.88
			C76.39,158.31,72.53,159.47,68.71,159.47"/>
	</g>
	<path class="st93" d="M68.46,138.66c-0.87,0-1.75-0.04-2.62-0.13c-0.9-3.16-0.92-6.52-0.02-9.64c1.09,0.3,2.12,0.64,3.13,1.05
		c0.49,0.3,0.97,0.62,1.44,0.93c-0.05,2.05,0.44,4.13,1.44,5.98c0.28,0.52,0.6,1.02,0.95,1.5c-0.32,0.05-0.65,0.09-0.98,0.13
		C70.75,138.59,69.62,138.66,68.46,138.66 M91.12,128.12c-0.99-1.73-2.28-3.33-3.78-4.69c-0.09-0.21-0.2-0.42-0.33-0.62
		c0.11,0.07,0.23,0.15,0.34,0.22c1.82,1.22,3.34,2.69,4.46,4.34C91.59,127.62,91.36,127.87,91.12,128.12"/>
	<path class="st94" d="M91.81,127.37c-1.12-1.65-2.64-3.12-4.46-4.34c-0.11-0.07-0.23-0.15-0.34-0.22
		c-0.28-0.43-0.64-0.82-1.08-1.14c-0.7-0.5-1.45-0.77-2.21-0.83c-1.38-0.75-2.85-1.31-4.37-1.63c-0.31-0.07-2.08-0.36-4.35-0.6
		c1.45-0.52,2.94-0.76,4.43-0.76c5.46,0,10.86,3.26,13.72,7.97C92.72,126.34,92.27,126.86,91.81,127.37"/>
	<path class="st95" d="M70.08,145.88c0,0,0,0.5,0,0.5c-1.28-1.25-2.35-2.72-3.19-4.26c-0.62-1.14-1.11-2.35-1.46-3.58
		c0.87,0.09,1.75,0.13,2.62,0.13c1.16,0,2.3-0.07,3.34-0.19c0.33-0.04,0.65-0.08,0.98-0.13c0.36,0.49,0.76,0.95,1.19,1.37
		c0.98,1.31,2.24,2.43,3.88,3.02c0.78,0.28,1.59,0.41,2.38,0.41c0.73,0,1.45-0.11,2.15-0.31c0.15,0.09,0.3,0.18,0.45,0.25
		c-3.33,1.61-6.95,2.71-10.84,3.15c-0.49,0.05-0.99,0.1-1.5,0.14 M93.26,135.8c0.03-0.75-0.02-1.5-0.14-2.25
		c-0.31-1.87-1-3.71-1.99-5.43c0.23-0.25,0.46-0.5,0.69-0.75c1.34,1.97,2.12,4.18,2.2,6.5c0.01,0.4,0.02,0.8,0.01,1.19
		C93.77,135.31,93.52,135.55,93.26,135.8"/>
	<path class="st96" d="M94.02,135.06c0-0.39,0-0.79-0.01-1.19c-0.08-2.32-0.86-4.53-2.2-6.5c0.46-0.51,0.91-1.03,1.34-1.56
		c0.22,0.37,0.43,0.75,0.63,1.13c1.08,2.17,1.59,4.44,1.62,6.7C94.95,134.13,94.49,134.6,94.02,135.06"/>
	<path class="st97" d="M79.8,150.83c-1.18,0-2.38-0.19-3.54-0.61c-2.43-0.88-4.3-2.54-5.76-4.49c0.51-0.04,1.01-0.08,1.5-0.14
		c3.89-0.43,7.51-1.54,10.84-3.15c0.26,0.13,0.54,0.24,0.85,0.34c0.7,0.22,1.42,0.33,2.13,0.33c1.13,0,2.25-0.27,3.27-0.83
		c0.78-0.42,1.44-0.94,1.99-1.54c-0.32,1.11-0.57,2.24-0.73,3.39c-3.02,2.76-6.46,5.08-10.34,6.7c-0.07,0-1.04,0-1.04,0
		 M93.19,136.59c0.03-0.26,0.05-0.53,0.06-0.79c0.26-0.24,0.51-0.49,0.77-0.74c0,0.15,0,0.29-0.01,0.43
		C93.72,135.85,93.45,136.22,93.19,136.59"/>
	<path class="st98" d="M93.54,135.49c0-0.14,0.01-0.29,0.01-0.43c0.47-0.46,0.93-0.93,1.37-1.41c0,0.11,0,0.21,0,0.32
		C94.42,134.46,93.96,134.97,93.54,135.49"/>
	<path class="st99" d="M80,151.49c3.88-1.62,7.32-3.93,10.34-6.7c-0.08,0.55-0.14,1.1-0.18,1.65c-0.49,0.53-1.01,1.04-1.56,1.52
		C86.26,150.01,83.17,151.43,80,151.49"/>
	<path class="st100" d="M90.42,128.84c-0.18-0.74-0.44-1.47-0.8-2.19c-0.54-1.1-1.29-2.09-2.17-2.95c-0.03-0.09-0.07-0.19-0.11-0.28
		c1.5,1.36,2.79,2.96,3.78,4.69C90.89,128.36,90.66,128.6,90.42,128.84"/>
	<path class="st101" d="M82.83,143.1c-0.16-0.08-0.31-0.16-0.45-0.25c1.39-0.39,2.69-1.13,3.76-2.07c3.47-3.05,5.32-7.62,4.28-11.93
		c0.24-0.24,0.47-0.48,0.7-0.73c0.99,1.72,1.68,3.57,1.99,5.43c0.12,0.74,0.17,1.5,0.14,2.25C90.17,138.72,86.69,141.24,82.83,143.1
		"/>
	<path class="st102" d="M85.81,143.77c-0.72,0-1.43-0.11-2.13-0.33c-0.3-0.09-0.58-0.21-0.85-0.34c3.86-1.86,7.33-4.38,10.42-7.3
		c-0.01,0.27-0.03,0.53-0.06,0.79c-0.47,0.69-0.86,1.39-1.16,2.1c-0.37,0.88-0.69,1.78-0.96,2.7c-0.55,0.59-1.21,1.11-1.99,1.54
		C88.06,143.49,86.94,143.77,85.81,143.77"/>
	<path class="st100" d="M70.39,130.87c-0.47-0.32-0.96-0.64-1.44-0.93c-1-0.41-2.04-0.75-3.13-1.05c0.86-3.01,2.57-5.79,5.14-7.95
		c1.18-0.98,2.43-1.72,3.73-2.22c3.01,0.12,5.95,0.88,8.67,2.09c0,0-0.01,0-0.01,0c-0.26,0-0.53,0.02-0.79,0.07
		c-0.84-0.23-1.7-0.35-2.57-0.35c-1.97,0-3.96,0.63-5.7,2.09C71.74,124.74,70.46,127.78,70.39,130.87"/>
	<path class="st103" d="M83.72,120.83c-0.12-0.01-0.24-0.01-0.37-0.01c-2.73-1.22-5.67-1.97-8.67-2.09c0.1-0.04,0.21-0.08,0.32-0.12
		c2.27,0.24,4.04,0.53,4.35,0.6C80.87,119.52,82.34,120.08,83.72,120.83"/>
	<path class="st104" d="M80.23,143.15c-0.8,0-1.6-0.13-2.38-0.41c-1.63-0.59-2.89-1.71-3.88-3.02c-0.43-0.42-0.83-0.88-1.19-1.37
		c1.89-0.28,3.7-0.75,5.43-1.39c0.16,0.14,0.31,0.29,0.47,0.43c0.21,0.43,0.4,0.87,0.6,1.33c0.73,1.61,1.57,3.18,3.1,4.12
		C81.68,143.04,80.95,143.15,80.23,143.15"/>
	<path class="st105" d="M78.21,136.96c-0.09-0.08-0.18-0.17-0.27-0.25c-2.13-1.94-4.39-3.74-6.82-5.35
		c-0.24-0.16-0.49-0.32-0.74-0.49c0.07-3.09,1.36-6.13,3.9-8.25c1.74-1.45,3.72-2.09,5.7-2.09c0.87,0,1.73,0.12,2.57,0.35
		c-0.58,0.1-1.14,0.31-1.68,0.6c-0.06,0-0.12-0.01-0.17-0.01c-0.4,0-0.82,0.08-1.26,0.26c-1.52,0.62-1.98,1.9-1.73,3.08
		c-0.02,0.02-0.03,0.04-0.04,0.05c-0.95,1.15-1.6,2.44-1.76,3.88c-0.12,1.09,0.97,2.33,2.09,2.56c0.4,0.08,0.8,0.12,1.22,0.12
		c1.35,0,2.74-0.4,3.86-1.06c1.52-0.9,3.07-1.92,4-3.38c0.65-1.02,0.75-2.22,0.38-3.29c0.89,0.86,1.63,1.86,2.17,2.95
		c0.36,0.72,0.62,1.45,0.8,2.19C86.97,132.33,82.89,135.24,78.21,136.96"/>
	<path class="st106" d="M82.38,142.85c-1.53-0.95-2.38-2.51-3.1-4.12c-0.2-0.45-0.39-0.9-0.6-1.33c-0.16-0.14-0.31-0.29-0.47-0.43
		c4.68-1.72,8.76-4.63,12.21-8.12c1.04,4.31-0.81,8.88-4.28,11.93C85.07,141.71,83.77,142.45,82.38,142.85"/>
	<path class="st107" d="M87.34,123.42c-0.69-0.63-1.42-1.21-2.2-1.72c0.64,0.34,1.26,0.71,1.87,1.1
		C87.14,123,87.25,123.21,87.34,123.42"/>
	<path class="st108" d="M87.01,122.81c-0.61-0.39-1.23-0.76-1.87-1.1c-0.46-0.31-0.94-0.6-1.43-0.87c0.76,0.07,1.51,0.33,2.21,0.83
		C86.37,121.98,86.74,122.37,87.01,122.81"/>
	<path class="st109" d="M87.45,123.7c-1.37-1.33-3.08-2.32-4.9-2.82c0.26-0.04,0.53-0.07,0.79-0.07c0,0,0.01,0,0.01,0
		c0.61,0.27,1.21,0.56,1.79,0.88c0.77,0.52,1.51,1.1,2.2,1.72C87.38,123.52,87.42,123.61,87.45,123.7"/>
	<path class="st110" d="M85.15,121.7c-0.59-0.32-1.18-0.61-1.79-0.88c0.12,0,0.24,0,0.37,0.01C84.21,121.1,84.69,121.39,85.15,121.7
		"/>
	<path class="st111" d="M79.21,131.43c-0.41,0-0.82-0.04-1.22-0.12c-1.12-0.23-2.21-1.47-2.09-2.56c0.17-1.45,0.81-2.74,1.76-3.88
		c0.01-0.02,0.03-0.04,0.04-0.05c0.28,1.29,1.41,2.45,2.93,2.45c0.4,0,0.82-0.08,1.26-0.26c3.14-1.27,1.75-5.36-1.03-5.52
		c0.54-0.3,1.1-0.5,1.68-0.6c1.82,0.5,3.53,1.49,4.9,2.82c0.37,1.07,0.27,2.27-0.38,3.29c-0.93,1.46-2.48,2.48-4,3.38
		C81.95,131.03,80.56,131.43,79.21,131.43"/>
	<path class="st112" d="M77.71,124.82c-0.25-1.17,0.2-2.46,1.73-3.08c0.44-0.18,0.86-0.26,1.26-0.26c0.06,0,0.12,0,0.17,0.01
		c-0.26,0.15-0.52,0.31-0.77,0.5c-0.65,0.5-1.1,1.15-1.57,1.79c-0.16,0.22-0.37,0.57-0.58,0.75l0.25-0.29
		C78.03,124.43,77.87,124.62,77.71,124.82"/>
	<path class="st113" d="M80.63,127.27c-1.51,0-2.65-1.16-2.93-2.45c0.16-0.19,0.32-0.39,0.49-0.58l-0.25,0.29
		c0.21-0.18,0.42-0.53,0.58-0.75c0.47-0.64,0.92-1.3,1.57-1.79c0.25-0.19,0.5-0.36,0.77-0.5c2.77,0.17,4.16,4.25,1.03,5.52
		C81.46,127.19,81.03,127.27,80.63,127.27"/>
	<path class="st114" d="M137.34,94.94c-4.31,1.47-8.19,3.96-11.39,7.02c-5.56,5.32-9.17,13.14-6.85,20.24
		c1.7,5.22,6.26,9.19,11.07,12.31c6.61,4.28,14.29,7.49,22.33,7.64c8.05,0.15,16.44-3.19,20.64-9.58
		c3.44-5.24,3.71-11.92,1.85-17.81c-1.98-6.27-6.56-14.71-13.09-17.86C154.6,93.38,145.11,92.3,137.34,94.94"/>
	<g>
		<defs>
			<path id="SVGID_00000014600898368293650950000004102737589060202144_" d="M137.34,94.94c-4.31,1.47-8.19,3.96-11.39,7.02
				c-5.56,5.32-9.17,13.14-6.85,20.24c1.7,5.22,6.26,9.19,11.07,12.31c6.61,4.28,14.29,7.49,22.33,7.64
				c8.05,0.15,16.44-3.19,20.64-9.58c3.44-5.24,3.71-11.92,1.85-17.81c-1.98-6.27-6.56-14.71-13.09-17.86
				C154.6,93.38,145.11,92.3,137.34,94.94"/>
		</defs>
		<clipPath id="SVGID_00000042008374227673862440000002586096383565185209_">
			<use xlink:href="#SVGID_00000014600898368293650950000004102737589060202144_"  style="overflow:visible;"/>
		</clipPath>
		<path style="clip-path:url(#SVGID_00000042008374227673862440000002586096383565185209_);fill:#4B6F9A;" d="M152.72,92.3
			c0.89,2.26,6.23,5.61,8.01,7.25c1.96,1.82,4.2,5.11,5.62,7.33c2.78,4.36,3.78,9.55,3.33,14.63c-0.45,5.16-3.05,9.71-7.39,12.32
			c-5.11,3.06-10.27,4.57-15.78,6.52c-2.12,0.75-3.68,2.82-1.51,3.88c10.99,5.42,26.07-1.45,31.56-11.02
			c5.91-10.3,3.3-23.52-4.93-32.07c-2.16-2.25-4.68-4.15-7.52-5.61c-2.35-1.21-8.22-5.74-10.85-4.54c-0.54,0.24,1.61,3.82,1.81,4.34
			L152.72,92.3"/>
		<path style="clip-path:url(#SVGID_00000042008374227673862440000002586096383565185209_);fill:#3C577B;" d="M150.1,90.96
			c-3.58-1.49-7.66-0.48-11.26,0.48c-4.06,1.08-7.92,2.67-11.49,4.78c-6.06,3.59-11.07,9.06-13.13,15.55
			c-2.26,7.14-0.77,14.25,3.85,20.27c2.35,3.07,5.52,5.73,8.87,7.82c3.97,2.48,8.02,3.73,12.63,4.69c1.52,0.32,3.13,0.12,4.08-1.18
			c0.17-0.23,0.36-0.51,0.44-0.78c0.48-1.47,1.14-1.46-0.13-2.42c-3-2.26-7.15-5.71-10.34-7.74c-2.52-1.61-4.78-3.24-6.69-5.46
			c-1.66-1.93-2.9-4.13-3.34-6.58c-0.38-2.17-0.05-4.37,0.75-6.43c1.84-4.78,5.74-8.42,10.48-11.31c2.48-1.51,5.24-2.66,7.94-3.8
			c3.04-1.28,9.43-2.38,11.47-4.96C155.08,92.82,151.29,91.45,150.1,90.96"/>
		<path style="clip-path:url(#SVGID_00000042008374227673862440000002586096383565185209_);fill:#465F84;" d="M135.56,119.91
			c-3.04-3.98-5.79-9.26-4.97-14.08c0.01-0.07,0.02-0.13,0.04-0.2c1.3-1.08,2.71-2.07,4.22-2.99c1.94-1.18,4.06-2.14,6.18-3.05
			c-0.67,1.34-1.19,2.77-1.43,4.17c-0.41,2.43,0.27,5,1.43,7.38c-1.08,1.04-2.05,2.18-2.88,3.41
			C137.02,116.2,136.11,118.02,135.56,119.91C135.56,119.91,135.56,119.91,135.56,119.91"/>
		<path style="clip-path:url(#SVGID_00000042008374227673862440000002586096383565185209_);fill:#466993;" d="M170.45,135.77
			c-2.38-0.16-4.77-0.42-7.13-0.82c2.34-1.34,4.4-3.13,6.03-5.36c0.29-0.4,0.56-0.81,0.82-1.23c0.94,0.1,1.88,0.18,2.82,0.23
			c0.73,0.04,1.37,0.22,1.92,0.49c-0.45,1.21-1.04,2.38-1.76,3.48C172.38,133.74,171.47,134.81,170.45,135.77"/>
		<path style="clip-path:url(#SVGID_00000042008374227673862440000002586096383565185209_);fill:#365275;" d="M130.62,105.63
			c0.45-2.44,1.62-4.96,2.96-7.08c0.73-1.15,1.57-2.16,2.62-3.07l0.22-0.2c0.3-0.12,0.61-0.23,0.92-0.33
			c0.53-0.18,1.06-0.34,1.61-0.49c0.42,0.25,0.9,0.37,1.39,0.37c0.87,0,1.75-0.38,2.28-1.09c1.35-0.18,2.73-0.26,4.11-0.26
			c0.97,0,1.95,0.04,2.92,0.13c-0.42,0.67-1.2,1.05-1.98,1.05c-0.63,0-1.25-0.24-1.68-0.76c-0.22,0.1-0.43,0.23-0.62,0.37
			l-0.13,0.09c-0.21,0.21-0.45,0.41-0.72,0.58l-0.29,0.25c-0.87,0.75-1.56,1.59-2.17,2.55c-0.37,0.59-0.73,1.22-1.05,1.86
			c-2.12,0.91-4.23,1.87-6.18,3.05C133.33,103.56,131.92,104.55,130.62,105.63"/>
		<path style="clip-path:url(#SVGID_00000042008374227673862440000002586096383565185209_);fill:#41597E;" d="M134.16,127.22
			c-1.45-1.03-3.06-1.89-4.82-2.54c-0.56-0.21-1.13-0.39-1.71-0.55c-1.75-2.15-3.28-4.6-4.07-7.13c0.14-1.04,0.42-2.06,0.8-3.05
			c1.26-3.26,3.48-6,6.27-8.32c-0.01,0.07-0.02,0.13-0.04,0.2c-0.82,4.83,1.93,10.1,4.97,14.08
			C134.45,122.21,133.82,124.69,134.16,127.22"/>
		<path style="clip-path:url(#SVGID_00000042008374227673862440000002586096383565185209_);fill:#3F6189;" d="M163.04,138.47
			c-2.99,0-6-0.18-8.95-0.59c3.28-0.35,6.45-1.32,9.23-2.92c2.36,0.39,4.75,0.66,7.13,0.82c-0.56,0.53-1.15,1.02-1.77,1.48
			c-0.53,0.39-1.08,0.76-1.64,1.11c-0.09,0-0.17,0-0.26,0.01C165.53,138.44,164.28,138.47,163.04,138.47"/>
		<path style="clip-path:url(#SVGID_00000042008374227673862440000002586096383565185209_);fill:#324E6E;" d="M123.56,117
			c-0.41-1.32-0.63-2.67-0.57-4.01c0.11-2.54,0.97-5.24,2.06-7.56c0.58-1.23,1.29-2.32,2.21-3.34l0.3-0.34
			c0.1-0.09,0.55-0.95,0.99-2.04c2.37-1.84,5.01-3.36,7.86-4.44l-0.22,0.2c-1.05,0.91-1.89,1.92-2.62,3.07
			c-1.34,2.12-2.51,4.64-2.96,7.08c-2.79,2.32-5.01,5.06-6.27,8.32C123.97,114.94,123.7,115.97,123.56,117 M140.33,94.82
			c-0.49,0-0.97-0.12-1.39-0.37c1.19-0.32,2.42-0.56,3.66-0.72C142.09,94.44,141.21,94.82,140.33,94.82"/>
		<path style="clip-path:url(#SVGID_00000042008374227673862440000002586096383565185209_);fill:#3C5477;" d="M145.02,141.16
			c-0.1-0.02-0.21-0.05-0.31-0.08c0.01-0.26-0.17-0.49-0.73-0.92c-0.56-0.42-1.16-0.89-1.78-1.37c-0.25-0.95-0.58-1.9-0.97-2.82
			c1.04,0.5,2.14,0.9,3.25,1.19c2.22,0.58,4.51,0.87,6.79,0.87c0.7,0,1.41-0.03,2.1-0.08c-2.24,0.82-4.52,1.57-6.87,2.4
			C145.95,140.54,145.44,140.83,145.02,141.16 M127.63,124.13c-0.98-0.27-1.98-0.47-2.99-0.62c-0.48-0.99-0.84-2.04-1.03-3.13
			c-0.2-1.13-0.2-2.26-0.05-3.37C124.35,119.53,125.88,121.98,127.63,124.13"/>
		<path style="clip-path:url(#SVGID_00000042008374227673862440000002586096383565185209_);fill:#3B5B83;" d="M153.03,142.16
			c-0.17,0-0.35,0-0.52,0c-2.54-0.05-5.04-0.4-7.49-1l0,0c0.42-0.33,0.93-0.61,1.48-0.81c2.35-0.83,4.63-1.58,6.87-2.4
			c0.24-0.02,0.48-0.04,0.72-0.07c2.95,0.41,5.96,0.59,8.95,0.59c1.25,0,2.49-0.03,3.74-0.09c0.09,0,0.17-0.01,0.26-0.01
			c-0.85,0.52-1.74,0.99-2.65,1.4c-0.42,0.19-0.85,0.37-1.28,0.54c-0.23,0.09-0.46,0.17-0.69,0.25c-0.22,0.08-0.44,0.15-0.66,0.22
			c-1.25,0.41-2.54,0.73-3.84,0.95C156.3,142.01,154.66,142.16,153.03,142.16"/>
		<path style="clip-path:url(#SVGID_00000042008374227673862440000002586096383565185209_);fill:#2D4968;" d="M144.71,141.08
			c-0.72-0.18-1.44-0.38-2.15-0.61c-0.1-0.56-0.22-1.12-0.36-1.68c0.62,0.49,1.22,0.95,1.78,1.37
			C144.53,140.59,144.72,140.82,144.71,141.08L144.71,141.08 M124.64,123.51c-1.25-0.18-2.51-0.26-3.78-0.26
			c-0.45,0-0.9,0.01-1.35,0.03c-0.15-0.35-0.28-0.71-0.4-1.08c-0.03-0.08-0.05-0.15-0.07-0.23c-0.31-1-0.5-2.01-0.59-3.03
			c-0.04-0.43-0.05-0.87-0.05-1.3c0-5.73,3.17-11.48,7.56-15.68c0.83-0.79,1.7-1.54,2.61-2.25c-0.44,1.09-0.89,1.95-0.99,2.04
			l-0.3,0.34c-0.93,1.02-1.63,2.11-2.21,3.34c-1.1,2.32-1.96,5.02-2.06,7.56c-0.06,1.34,0.16,2.69,0.57,4.01
			c-0.15,1.11-0.14,2.25,0.05,3.37C123.8,121.47,124.16,122.52,124.64,123.51"/>
	</g>
	<path class="st126" d="M166.77,107.58c-1.28-0.87-2.77-1.58-4.48-2.07c-1.83-0.52-3.71-0.77-5.56-0.77c-1.93,0-3.85,0.27-5.7,0.76
		c-0.16-0.58-0.34-1.17-0.54-1.78c-1.11-3.39,1.42-5.73,4.36-6.16c0.56-0.17,1.15-0.25,1.76-0.25c0.49,0,0.99,0.05,1.49,0.16
		c1.07,0.81,2.05,1.54,2.63,2.08c1.96,1.82,4.2,5.11,5.62,7.33C166.49,107.11,166.63,107.34,166.77,107.58"/>
	<path class="st127" d="M167.08,107.79c-0.1-0.07-0.2-0.15-0.31-0.22c-0.14-0.24-0.28-0.47-0.43-0.7c-1.41-2.22-3.65-5.51-5.62-7.33
		c-0.59-0.54-1.56-1.27-2.63-2.08c0.48,0.1,0.96,0.25,1.43,0.44C162.3,99.02,165.22,104.03,167.08,107.79"/>
	<path class="st128" d="M167.76,128.06c-0.39-0.06-0.79-0.12-1.18-0.19c1.78-2.78,2.91-5.97,3.19-9.13c0.02,0.92-0.02,1.84-0.1,2.76
		C169.47,123.87,168.82,126.09,167.76,128.06 M145.25,117.29c-0.24-0.26-0.47-0.53-0.7-0.81c-1.28-1.53-2.57-3.37-3.53-5.34
		c2.76-2.65,6.25-4.63,10.01-5.64c0.32,1.16,0.57,2.29,0.73,3.43c-0.02,0.61-0.08,1.24-0.13,1.85c-2.16,1.15-4.04,2.8-5.38,4.78
		C145.88,116.11,145.54,116.69,145.25,117.29"/>
	<path class="st129" d="M170.16,128.37c-0.8-0.08-1.6-0.18-2.4-0.3c1.06-1.97,1.71-4.2,1.92-6.55c0.08-0.92,0.11-1.84,0.1-2.76
		c0.21-2.3-0.03-4.58-0.78-6.68c-0.11-0.32-0.83-2.08-1.91-4.27C173.55,112.47,174.28,121.59,170.16,128.37"/>
	<path class="st130" d="M161.05,134.54c-0.41-0.08-0.81-0.17-1.22-0.26c0.8-0.41,1.55-0.9,2.25-1.44c1.76-1.37,3.28-3.07,4.49-4.96
		c0.39,0.07,0.79,0.13,1.18,0.19c-1.27,2.36-3.11,4.35-5.48,5.76C161.87,134.07,161.46,134.31,161.05,134.54 M146.16,129.13
		c-3.61-2.07-6.87-4.69-9.59-7.95c-0.34-0.41-0.68-0.83-1.02-1.27c0,0,0,0,0,0c0.56-1.89,1.46-3.71,2.58-5.36
		c0.83-1.23,1.8-2.37,2.88-3.41c0.96,1.97,2.26,3.82,3.53,5.34c0.23,0.28,0.46,0.54,0.7,0.81c-0.3,0.61-0.54,1.23-0.73,1.87
		c-0.8,1.65-1.22,3.44-0.88,5.26c0.31,1.67,1.25,3.07,2.53,4.15C146.15,128.76,146.15,128.94,146.16,129.13"/>
	<path class="st131" d="M163.32,134.96c-0.76-0.13-1.52-0.26-2.27-0.42c0.41-0.23,0.82-0.46,1.23-0.71
		c2.36-1.42,4.21-3.41,5.48-5.76c0.8,0.12,1.6,0.22,2.4,0.3c-0.25,0.42-0.53,0.83-0.82,1.23
		C167.72,131.83,165.66,133.61,163.32,134.96"/>
	<path class="st132" d="M153.7,137.82c-4.71-0.68-9.29-1.93-13.5-3.92c-1.46-2.57-3.49-4.89-6.03-6.69c-0.34-2.53,0.29-5,1.39-7.3
		c0.34,0.44,0.68,0.87,1.02,1.27c2.72,3.26,5.98,5.88,9.59,7.95c0.02,0.31,0.06,0.63,0.14,0.96c0.46,1.95,1.75,3.61,3.67,4.58
		c1.4,0.71,2.87,1.02,4.33,1.02c1.91,0,3.81-0.53,5.53-1.41c0.41,0.09,0.81,0.18,1.22,0.26C158.63,135.88,156.19,136.9,153.7,137.82
		"/>
	<path class="st133" d="M154.09,137.88c-0.13-0.02-0.26-0.04-0.39-0.05c2.49-0.92,4.93-1.95,7.35-3.29
		c0.75,0.15,1.51,0.29,2.27,0.42C160.53,136.56,157.36,137.53,154.09,137.88"/>
	<path class="st134" d="M151.26,138.03c-2.28,0-4.57-0.29-6.79-0.87c-1.12-0.29-2.22-0.69-3.25-1.19c-0.3-0.7-0.64-1.39-1.02-2.06
		c4.21,1.98,8.79,3.24,13.5,3.92c-0.11,0.04-0.22,0.08-0.33,0.12C152.67,138,151.97,138.03,151.26,138.03"/>
	<path class="st135" d="M153.37,137.95c0.11-0.04,0.22-0.08,0.33-0.12c0.13,0.02,0.26,0.04,0.39,0.05
		C153.85,137.9,153.61,137.93,153.37,137.95"/>
	<path class="st136" d="M166.58,127.88c-0.39-0.06-0.78-0.14-1.16-0.21c0.67-0.59,1.27-1.26,1.81-2c1.09-1.5,1.8-3.22,2.1-4.98
		c0.46-0.95,0.49-2.07,0.1-3.08c-0.39-3.62-2.63-6.9-6.95-8.13c-0.15-0.04-0.3-0.08-0.45-0.12c0.16-0.89-0.16-1.84-1.19-2.53
		c-0.56-0.37-1.13-0.53-1.67-0.53c-1.62,0-2.98,1.43-3.01,2.9c-1.58,0.29-3.12,0.83-4.53,1.58c0.05-0.61,0.11-1.23,0.13-1.85
		c-0.16-1.14-0.41-2.27-0.73-3.43c1.85-0.5,3.77-0.76,5.7-0.76c1.86,0,3.73,0.25,5.56,0.77c1.71,0.49,3.2,1.19,4.48,2.07
		c1.99,3.41,2.94,7.27,3,11.17C169.49,121.91,168.36,125.1,166.58,127.88"/>
	<path class="st137" d="M169.77,118.75c-0.07-3.9-1.02-7.77-3-11.17c0.1,0.07,0.21,0.14,0.31,0.22c1.08,2.19,1.8,3.95,1.91,4.27
		C169.74,114.17,169.98,116.45,169.77,118.75"/>
	<path class="st138" d="M159.83,134.28c-4.84-1.09-9.49-2.75-13.67-5.15c-0.01-0.19-0.01-0.37,0-0.56c1.22,1.03,2.75,1.77,4.35,2.19
		c1.49,0.39,3.03,0.58,4.56,0.58c3.82,0,7.58-1.21,10.34-3.68c0.39,0.07,0.78,0.15,1.16,0.21c-1.21,1.89-2.73,3.59-4.49,4.96
		C161.39,133.38,160.63,133.87,159.83,134.28"/>
	<path class="st139" d="M154.31,135.69c-1.46,0-2.94-0.31-4.33-1.02c-1.91-0.97-3.21-2.63-3.67-4.58c-0.08-0.33-0.12-0.65-0.14-0.96
		c4.18,2.39,8.83,4.06,13.67,5.15C158.12,135.16,156.22,135.69,154.31,135.69"/>
	<path class="st140" d="M149.85,121.38c-1.67-1.19-3.21-2.55-4.61-4.09c0.29-0.6,0.63-1.18,1-1.73c1.34-1.98,3.22-3.63,5.38-4.78
		c-0.03,0.32-0.06,0.64-0.08,0.95c-0.26,3.13-0.81,6.21-1.59,9.26C149.92,121.12,149.89,121.25,149.85,121.38"/>
	<path class="st141" d="M146.16,128.57c-1.28-1.08-2.22-2.48-2.53-4.15c-0.34-1.82,0.09-3.6,0.88-5.26
		c0.19-0.64,0.43-1.26,0.73-1.87c1.39,1.54,2.94,2.9,4.61,4.09c-0.06,0.22-0.12,0.45-0.18,0.68c-0.33,0.44-0.68,0.87-1.03,1.31
		C147.39,124.97,146.26,126.64,146.16,128.57"/>
	<path class="st142" d="M165.42,127.67c-5.64-1.08-11.04-3.06-15.56-6.28c0.03-0.13,0.07-0.26,0.1-0.39
		c0.78-3.05,1.33-6.14,1.59-9.26c0.03-0.31,0.05-0.63,0.08-0.95c1.41-0.75,2.94-1.29,4.53-1.58c-0.02,0.77,0.34,1.56,1.23,2.15
		c0.56,0.37,1.13,0.53,1.67,0.53c1.48,0,2.74-1.19,2.98-2.52c0.15,0.04,0.3,0.08,0.45,0.12c4.32,1.23,6.56,4.52,6.95,8.13
		c-0.31-0.82-0.9-1.57-1.74-2.11c-1.51-0.96-3.45-0.9-5.08-1.1c-0.77-0.09-1.56-0.17-2.33-0.17c-1.04,0-2.06,0.14-3.01,0.57
		c-1.07,0.48-1.68,1.96-1.31,2.99c0.6,1.66,2.31,3.04,4.01,3.76c1.68,0.71,3.32,1.42,5.09,1.42c0.53,0,1.06-0.06,1.62-0.2
		c1.32-0.34,2.2-1.12,2.66-2.06c-0.3,1.75-1.01,3.48-2.1,4.98C166.69,126.41,166.08,127.08,165.42,127.67"/>
	<path class="st143" d="M155.07,131.34c-1.53,0-3.07-0.2-4.56-0.58c-1.6-0.42-3.13-1.16-4.35-2.19c0.09-1.93,1.23-3.61,2.48-5.2
		c0.35-0.45,0.7-0.88,1.03-1.31c0.06-0.23,0.12-0.45,0.18-0.68c4.52,3.22,9.92,5.21,15.56,6.28
		C162.65,130.13,158.89,131.34,155.07,131.34"/>
	<path class="st144" d="M169.33,120.7c0.18-1.03,0.21-2.07,0.1-3.08C169.82,118.63,169.79,119.75,169.33,120.7"/>
	<path class="st145" d="M165.05,122.96c-1.78,0-3.41-0.71-5.09-1.42c-1.7-0.71-3.41-2.1-4.01-3.76c-0.37-1.04,0.24-2.52,1.31-2.99
		c0.96-0.43,1.98-0.57,3.01-0.57c0.78,0,1.56,0.08,2.33,0.17c1.62,0.2,3.56,0.14,5.08,1.1c0.85,0.54,1.43,1.29,1.74,2.11
		c0.11,1.01,0.07,2.05-0.1,3.08c-0.46,0.94-1.34,1.72-2.66,2.06C166.12,122.9,165.58,122.96,165.05,122.96"/>
	<path class="st146" d="M143.63,103.35c0.3,0.78,0.88,1.24,1.48,1.74c0.31,0.26,1.15,0.54,1.07,1.04c-0.45,2.86-4.22,0.66-5.11,1.8
		c-0.48,0.61-0.46,1.22-0.24,1.69c0.62,1.3,3.16,0.92,4.65,0.5c1.72-0.48,3.33-1.95,3.96-3.77c0.63-1.85-0.03-3.13-1.21-3.91
		c-0.9-0.6-2.84-1.45-4.2-0.1C143.74,102.6,143.52,103.04,143.63,103.35L143.63,103.35z"/>
	<path class="st147" d="M143.82,109.1c-1.5,0.12-4.62-1.33-5.06-2.61c-0.92-2.72,2.19-3.38,2.78-3.48c0.98-0.16,2.11-0.32,3.19,0.06
		c0.09,0.03,3.82,0.91,3.85,2.34C148.65,108.61,145.17,109,143.82,109.1L143.82,109.1z M152.86,101.81c-1.1-1.32-2.54-2-4.26-2.08
		c-0.65-0.33-1.46-0.49-2.36-0.52c-2.56-0.1-5.58-0.2-8.39,0.94c-2.31,0.94-4.78,3.12-5.29,5.69c-0.64,3.23,1.74,4.96,3.63,6.33
		c2.16,1.57,4.63,2.52,7.87,1.81c2.58-0.57,6.42-1.95,8.42-4.53C154.61,106.68,154.35,103.59,152.86,101.81L152.86,101.81z"/>
	<g>
		<defs>
			<path id="SVGID_00000124871919009644290550000007344357749925627559_" d="M143.82,109.1c-1.5,0.12-4.62-1.33-5.06-2.61
				c-0.92-2.72,2.19-3.38,2.78-3.48c0.98-0.16,2.11-0.32,3.19,0.06c0.09,0.03,3.82,0.91,3.85,2.34
				C148.65,108.61,145.17,109,143.82,109.1 M152.86,101.81c-1.1-1.32-2.54-2-4.26-2.08c-0.65-0.33-1.46-0.49-2.36-0.52
				c-2.56-0.1-5.58-0.2-8.39,0.94c-2.31,0.94-4.78,3.12-5.29,5.69c-0.64,3.23,1.74,4.96,3.63,6.33c2.16,1.57,4.63,2.52,7.87,1.81
				c2.58-0.57,6.42-1.95,8.42-4.53C154.61,106.68,154.35,103.59,152.86,101.81"/>
		</defs>
		<clipPath id="SVGID_00000014615505049749959480000006370218284970950838_">
			<use xlink:href="#SVGID_00000124871919009644290550000007344357749925627559_"  style="overflow:visible;"/>
		</clipPath>
		<path style="clip-path:url(#SVGID_00000014615505049749959480000006370218284970950838_);fill:#34506B;" d="M149.28,99.41
			c-0.56-1.6-0.8-2.63-2.41-3.31c-1.57-0.66-3.23-0.92-5.19-0.62c-3.58,0.55-7.53,2.9-10.07,6.42c-2.49,3.45-3.31,7.54-2.07,10.46
			c1.21,2.87,5.22,5.65,9.14,2.94c1.15-0.79,1.89-2.06,1.61-3.2c-0.75-3.02-8.25-3.07-4.21-8.13c1.45-1.81,3.65-2.67,5.48-2.93
			c1.28-0.18,2.41-0.06,3.61-0.01c1.1,0.05,2.16-0.41,3.28-0.54C148.92,100.45,149.44,99.86,149.28,99.41L149.28,99.41z"/>
		<path style="clip-path:url(#SVGID_00000014615505049749959480000006370218284970950838_);fill:#40658A;" d="M142.04,98.65
			c5.22,1.36,8.91,3.28,7.09,8.27c-1.91,5.25-10.41,3.85-14.47,3.22c-1.65-0.26-0.4,3.14,0.11,4.74c1.17,3.67,6.65,3.31,10.48,2.16
			c4.43-1.33,8.82-5.01,10.35-9.8c2.67-8.41-4.92-15.82-13.08-12.02C140.81,96.02,140.88,98.29,142.04,98.65L142.04,98.65z"/>
	</g>
	<path class="st150" d="M162.03,109.36c-1.09-0.27-2.19-0.4-3.29-0.4c-0.87,0-1.74,0.08-2.59,0.23c0.03-1.47,1.39-2.9,3.01-2.9
		c0.54,0,1.11,0.16,1.67,0.53C161.87,107.52,162.19,108.47,162.03,109.36"/>
	<path class="st151" d="M159.05,111.88c-0.54,0-1.11-0.16-1.67-0.53c-0.89-0.59-1.25-1.38-1.23-2.15c0.85-0.16,1.72-0.23,2.59-0.23
		c1.1,0,2.2,0.13,3.29,0.4C161.8,110.69,160.54,111.88,159.05,111.88"/>
	<path class="st152" d="M93.29,159.84c2.2,3.49,5.45,6.47,9.23,8.82c6.57,4.07,15.58,6.16,23,3.31c5.45-2.1,9.15-6.48,11.88-10.96
		c3.75-6.16,6.18-13.09,5.23-19.96c-0.95-6.87-5.75-13.6-13.3-16.37c-6.19-2.27-13.5-1.67-19.66,0.65
		c-6.56,2.47-15.12,7.42-17.65,13.37C89.2,145.35,89.34,153.56,93.29,159.84"/>
	<g>
		<defs>
			<path id="SVGID_00000055670085041729591410000002942225095856396954_" d="M93.29,159.84c2.2,3.49,5.45,6.47,9.23,8.82
				c6.57,4.07,15.58,6.16,23,3.31c5.45-2.1,9.15-6.48,11.88-10.96c3.75-6.16,6.18-13.09,5.23-19.96c-0.95-6.87-5.75-13.6-13.3-16.37
				c-6.19-2.27-13.5-1.67-19.66,0.65c-6.56,2.47-15.12,7.42-17.65,13.37C89.2,145.35,89.34,153.56,93.29,159.84"/>
		</defs>
		<clipPath id="SVGID_00000121262915323924777640000012682954185419904409_">
			<use xlink:href="#SVGID_00000055670085041729591410000002942225095856396954_"  style="overflow:visible;"/>
		</clipPath>
		<path style="clip-path:url(#SVGID_00000121262915323924777640000012682954185419904409_);fill:#547BA9;" d="M88.28,147.08
			c2.34-1.04,5.25-6,6.8-7.72c1.71-1.9,4.99-4.22,7.21-5.69c4.37-2.91,9.89-4.41,15.49-4.66c5.69-0.26,11.01,1.38,14.44,4.76
			c4.05,3.97,6.4,8.17,9.29,12.62c1.11,1.71,3.58,2.78,4.44,0.8c4.38-10.03-5.19-22.01-16.37-25.49
			c-12.05-3.75-26.09,0.12-34.27,8.2c-2.15,2.12-3.87,4.5-5.07,7.1c-0.99,2.15-5.12,7.71-3.45,9.8c0.34,0.43,3.94-1.85,4.48-2.08
			L88.28,147.08"/>
		<path style="clip-path:url(#SVGID_00000121262915323924777640000012682954185419904409_);fill:#426891;" d="M87.18,149.48
			c-1.13,3.23,0.53,6.58,2.07,9.52c1.74,3.32,4,6.41,6.8,9.18c4.75,4.71,11.41,8.29,18.76,9.24c8.09,1.04,15.63-1.12,21.56-5.8
			c3.02-2.38,5.48-5.41,7.3-8.52c2.16-3.69,2.96-7.29,3.36-11.34c0.13-1.33-0.3-2.68-1.85-3.33c-0.27-0.11-0.61-0.24-0.91-0.28
			c-1.67-0.22-1.75-0.79-2.62,0.41c-2.05,2.83-5.23,6.8-7.01,9.76c-1.41,2.35-2.87,4.47-5.02,6.38c-1.87,1.65-4.1,2.99-6.71,3.66
			c-2.32,0.6-4.75,0.59-7.11,0.17c-5.46-0.97-9.98-3.84-13.77-7.51c-1.99-1.93-3.63-4.13-5.24-6.29c-1.81-2.42-3.9-7.73-6.99-9.14
			C88.53,145.01,87.56,148.4,87.18,149.48"/>
		<path style="clip-path:url(#SVGID_00000121262915323924777640000012682954185419904409_);fill:#506C96;" d="M105.56,164.04h0.53
			c0,0-0.15,0.19-0.22,0.19c-1.36-0.97-2.63-2.05-3.84-3.22c-1.56-1.51-2.9-3.19-4.18-4.88c1.55,0.4,4.74,1.3,4.74,1.3h0.21
			c0,0,5.26-1.48,7.63-2.74c1.28,0.79,2.66,1.47,4.11,2.02c1.96,0.74,6.2,2.37,6.2,2.37s0,0,0,0c-3.85,3.04-9.12,5.99-14.4,5.99"/>
		<path style="clip-path:url(#SVGID_00000121262915323924777640000012682954185419904409_);fill:#3F6189;" d="M105.87,164.23
			c-2.73-0.08-5.63-0.76-8.13-1.64c-1.36-0.48-2.58-1.07-3.71-1.84l-0.25-0.17c-0.17-0.24-0.33-0.49-0.49-0.74
			c-0.27-0.43-0.52-0.86-0.75-1.31c0.6-1.08,0.01-2.47-1.29-3.03c-0.5-1.48-0.83-3.01-1.01-4.56c-0.04-0.35-0.07-0.7-0.1-1.06
			c-0.01-0.12-0.02-0.24-0.02-0.36c1.43,0.49,1.95,2.13,0.82,3.08c0.14,0.18,0.31,0.34,0.49,0.48l0.11,0.1
			c0.26,0.15,0.51,0.33,0.73,0.54l0.32,0.21c0.94,0.64,1.95,1.13,3.08,1.53c0.69,0.24,1.43,0.47,2.18,0.66
			c1.28,1.69,2.62,3.37,4.18,4.88C103.24,162.18,104.51,163.27,105.87,164.23"/>
		<path style="clip-path:url(#SVGID_00000121262915323924777640000012682954185419904409_);fill:#4E73A2;" d="M133.3,132.75
			c-1.79-1.82-4.02-3.35-6.68-4.46c-0.47-0.2-0.96-0.38-1.45-0.54c-0.02-0.81-0.07-1.62-0.14-2.43c-0.05-0.63,0.05-1.19,0.27-1.69
			c1.38,0.23,2.73,0.58,4.04,1.06c1.38,0.51,2.67,1.15,3.86,1.9C133.36,128.62,133.4,130.69,133.3,132.75"/>
		<path style="clip-path:url(#SVGID_00000121262915323924777640000012682954185419904409_);fill:#49658E;" d="M119.06,169
			c-1.19,0-2.38-0.11-3.55-0.32c-4.03-0.72-7.58-2.39-10.73-4.64c0.08,0,0.16,0,0.24,0.01c0.09,0,0.18,0,0.27,0
			c5.71,0,11.39-3.19,15.56-6.47c1.71,0.42,3.47,0.68,5.24,0.68c1.39,0,2.79-0.16,4.16-0.52c1.57-0.42,2.96-1.08,4.16-1.92
			c-1.07,1.75-2.33,3.44-3.81,5.05c-2.82,3.06-6.83,6.44-11.37,8.14c-0.05,0,0.54,0,0.54,0"/>
		<path style="clip-path:url(#SVGID_00000121262915323924777640000012682954185419904409_);fill:#3A5B84;" d="M113.32,170.05
			c-2.31,0-4.73-0.36-6.89-0.88c-1.41-0.34-2.71-0.81-3.94-1.47l-0.41-0.22c-0.11-0.08-1.11-0.35-2.36-0.59
			c-2.33-1.79-4.36-3.85-5.93-6.14l0.25,0.17c1.14,0.78,2.36,1.37,3.71,1.84c2.5,0.88,5.4,1.56,8.13,1.64
			c2.92,2.08,6.21,3.63,9.94,4.29c1.09,0.19,2.19,0.3,3.29,0.3c0.05,0,0.1,0,0.15,0c-1.38,0.52-2.82,0.87-4.29,0.99
			C114.42,170.03,113.87,170.05,113.32,170.05"/>
		<path style="clip-path:url(#SVGID_00000121262915323924777640000012682954185419904409_);fill:#3A5B84;" d="M92.54,158.54
			c-0.51-0.97-0.94-1.99-1.29-3.03C92.55,156.07,93.14,157.46,92.54,158.54"/>
		<path style="clip-path:url(#SVGID_00000121262915323924777640000012682954185419904409_);fill:#486C9B;" d="M137.77,140.24
			c-0.84-2.75-2.33-5.32-4.46-7.5c0.1-2.06,0.06-4.12-0.1-6.17c1.2,0.76,2.31,1.63,3.3,2.58c0.01,0.07,0.03,0.15,0.04,0.22
			C137.36,132.94,137.81,136.61,137.77,140.24"/>
		<path style="clip-path:url(#SVGID_00000121262915323924777640000012682954185419904409_);fill:#446089;" d="M119.24,168.83
			c4.21-1.57,7.91-4.7,10.53-7.53c1.37-1.49,2.54-3.05,3.53-4.68c2.82-1.98,4.5-5.01,5.01-8.11c0.42-2.56,0.29-5.18-0.38-7.67
			c1.21,1.8,2.34,3.65,3.57,5.54c0.29,0.44,0.67,0.84,1.09,1.16c-0.01,0.09-0.03,0.18-0.04,0.28c-0.28,0.02-0.51,0.21-0.9,0.74
			c-2.05,2.83-5.23,6.8-7.01,9.76c-1.41,2.35-2.87,4.47-5.02,6.38c-1.87,1.65-4.1,2.99-6.71,3.66
			C121.71,168.67,120.48,168.82,119.24,168.83"/>
		<path style="clip-path:url(#SVGID_00000121262915323924777640000012682954185419904409_);fill:#436595;" d="M142.59,147.55
			L142.59,147.55c-0.42-0.32-0.8-0.72-1.09-1.16c-1.23-1.89-2.36-3.74-3.57-5.54c-0.05-0.2-0.11-0.4-0.17-0.6
			c0.05-3.63-0.4-7.3-1.21-10.86c-0.02-0.07-0.03-0.15-0.04-0.22c3.4,3.27,5.53,7.55,6.13,11.89c0.14,1.01,0.21,2.01,0.21,3.02
			C142.85,145.23,142.76,146.39,142.59,147.55"/>
		<path style="clip-path:url(#SVGID_00000121262915323924777640000012682954185419904409_);fill:#37557E;" d="M118.06,173.29
			c-5.46,0-11.07-1.85-15.54-4.63c-0.97-0.6-1.91-1.25-2.81-1.94c1.25,0.24,2.25,0.52,2.36,0.59l0.41,0.22
			c1.24,0.66,2.53,1.13,3.94,1.47c2.16,0.52,4.58,0.88,6.89,0.88c0.55,0,1.1-0.02,1.63-0.06c1.47-0.12,2.91-0.47,4.29-0.99
			c1.24-0.01,2.47-0.16,3.67-0.47c2.62-0.67,4.84-2.01,6.71-3.66c2.15-1.9,3.62-4.03,5.02-6.38c1.77-2.96,4.96-6.93,7.01-9.76
			c0.38-0.53,0.61-0.72,0.9-0.74l0,0c-0.71,4.58-2.63,9.06-5.15,13.19c-2.73,4.48-6.43,8.86-11.88,10.96
			C123.16,172.88,120.63,173.29,118.06,173.29"/>
	</g>
	<path class="st164" d="M98.68,148.02c-2.42,0-4.28-1.53-4.96-3.4c-0.47-0.82-0.65-1.77-0.55-2.76c0.74-1.01,1.39-1.93,1.9-2.5
		c1.71-1.9,4.99-4.22,7.21-5.69c0.23-0.15,0.46-0.3,0.7-0.45c-0.77,1.2-1.34,2.56-1.63,4.07c-0.65,3.31-0.02,6.62,1.55,9.59
		c-0.61,0.21-1.23,0.44-1.86,0.68C100.22,147.88,99.42,148.02,98.68,148.02"/>
	<path class="st165" d="M93.17,141.86c0.04-0.42,0.13-0.85,0.28-1.27c0.83-2.49,5.89-5.61,9.73-7.66c-0.07,0.1-0.13,0.19-0.19,0.29
		c-0.24,0.15-0.47,0.3-0.7,0.45c-2.22,1.48-5.5,3.8-7.21,5.69C94.57,139.93,93.91,140.85,93.17,141.86"/>
	<path class="st166" d="M110.44,154.7c-3.27-2.02-5.9-4.74-7.53-7.82c1.22-0.42,2.42-0.77,3.64-1.05c0.67-0.06,1.36-0.09,2.03-0.12
		c1.55,1.7,3.61,3.09,5.95,3.98c0.65,0.25,1.33,0.46,2.03,0.64c-0.25,0.23-0.51,0.47-0.78,0.7
		C114.28,152.3,112.45,153.64,110.44,154.7 M125.14,130.85c-2.4-0.86-5-1.39-7.59-1.55c-0.22-0.1-0.45-0.18-0.68-0.24
		c0.3-0.02,0.6-0.04,0.9-0.05c0.39-0.02,0.78-0.03,1.16-0.03c2.18,0,4.29,0.28,6.24,0.84C125.17,130.17,125.16,130.51,125.14,130.85
		"/>
	<path class="st167" d="M103.18,132.93c2.94-4.25,8.62-6.39,14.49-6.39c2.54,0,5.11,0.4,7.51,1.2c0.02,0.69,0.02,1.39,0,2.08
		c-1.95-0.56-4.06-0.84-6.24-0.84c-0.39,0-0.77,0.01-1.16,0.03c-0.3,0.01-0.6,0.03-0.9,0.05c-0.38-0.1-0.78-0.15-1.19-0.15
		c-0.7,0-1.42,0.15-2.05,0.43c-2.14,0.19-4.19,0.66-6.06,1.43C107.24,130.91,105.42,131.74,103.18,132.93"/>
	<path class="st168" d="M121.53,157.44c0,0-0.78,0-0.78,0c-2.13-0.24-4.24-0.78-6.2-1.53c-1.45-0.55-2.83-1.23-4.11-2.02
		c2.02-1.07,3.85-2.4,5.34-3.68c0.27-0.23,0.53-0.46,0.78-0.7c0.7,0.18,1.42,0.31,2.14,0.39c1.07,0.26,2.16,0.42,3.26,0.42
		c0.87,0,1.73-0.1,2.59-0.33c1.78-0.47,3.17-1.45,4.18-2.67c0.2-0.01,0.4-0.04,0.61-0.07c-1.76,3.33-4.16,6.44-7.33,9.16
		c-0.4,0.34-0.81,0.68-1.25,1.02 M133.05,135.8c-0.56-0.63-1.19-1.21-1.88-1.74c-1.74-1.33-3.8-2.41-6.03-3.21
		c0.02-0.34,0.03-0.69,0.04-1.03c2.74,0.78,5.17,2.11,7.04,3.94c0.32,0.32,0.64,0.64,0.94,0.96
		C133.13,135.08,133.09,135.44,133.05,135.8"/>
	<path class="st169" d="M133.16,134.73c-0.3-0.32-0.62-0.64-0.94-0.96c-1.87-1.84-4.3-3.16-7.04-3.94c0.02-0.69,0.02-1.39,0-2.08
		c0.49,0.16,0.97,0.35,1.45,0.54c2.66,1.11,4.89,2.64,6.68,4.46C133.27,133.41,133.22,134.07,133.16,134.73"/>
	<path class="st170" d="M125.6,158.88c-1.63,0-3.26-0.24-4.85-0.63c0.43-0.34,0.85-0.68,1.25-1.02c3.17-2.72,5.57-5.82,7.33-9.16
		c0.34-0.05,0.68-0.13,1.03-0.24c2.06-0.64,3.69-1.94,4.48-3.69c1.34-2.94,0.33-5.96-1.79-8.34c0.04-0.36,0.08-0.71,0.11-1.07
		c1.79,1.9,3.25,3.85,4.6,5.85c-0.12,5.58-1.44,11.08-4.46,16.04c-1.11,0.78-2.39,1.39-3.85,1.78
		C128.18,158.73,126.89,158.88,125.6,158.88"/>
	<path class="st171" d="M137.76,140.58c-1.35-2-2.81-3.95-4.6-5.85c0.06-0.66,0.11-1.32,0.14-1.98c2.13,2.17,3.63,4.75,4.46,7.5
		C137.77,140.35,137.76,140.47,137.76,140.58"/>
	<path class="st172" d="M133.3,156.62c3.02-4.96,4.34-10.46,4.46-16.04c0.06,0.09,0.12,0.18,0.18,0.27c0.67,2.49,0.8,5.11,0.38,7.67
		C137.8,151.6,136.12,154.64,133.3,156.62"/>
	<path class="st173" d="M137.94,140.84c-0.06-0.09-0.12-0.18-0.18-0.27c0-0.11,0-0.22,0.01-0.34
		C137.83,140.44,137.88,140.64,137.94,140.84"/>
	<path class="st174" d="M102.91,146.88c-1.57-2.97-2.2-6.27-1.55-9.59c0.3-1.52,0.86-2.88,1.63-4.07c3.06-1.88,6.63-3.11,10.37-3.74
		c-0.23,0.12-0.46,0.27-0.66,0.43c-3.5,0.94-6.35,3.19-7.04,6.73c-0.64,3.27,0.57,6.52,2.91,9.08c-0.67,0.03-1.36,0.06-2.03,0.12
		C105.33,146.11,104.13,146.46,102.91,146.88"/>
	<path class="st175" d="M102.99,133.22c0.06-0.1,0.13-0.19,0.19-0.29c2.24-1.19,4.06-2.02,4.39-2.16c1.86-0.77,3.92-1.24,6.06-1.43
		c-0.09,0.04-0.18,0.09-0.27,0.13C109.62,130.11,106.05,131.34,102.99,133.22"/>
	<path class="st174" d="M125.07,131.87c-0.74-0.49-1.55-0.93-2.43-1.29c-1.51-0.63-3.15-1-4.8-1.12c-0.1-0.05-0.2-0.1-0.3-0.15
		c2.59,0.16,5.18,0.69,7.59,1.55C125.12,131.19,125.1,131.53,125.07,131.87"/>
	<path class="st176" d="M128.72,148.14c0.95-1.17,1.55-2.56,1.78-3.97c0.76-4.59-1.13-9.43-5.43-12.3c0.03-0.34,0.05-0.68,0.07-1.02
		c2.23,0.8,4.29,1.88,6.03,3.21c0.69,0.53,1.32,1.11,1.88,1.74c-0.51,4.25-1.69,8.42-3.72,12.28
		C129.13,148.1,128.92,148.13,128.72,148.14"/>
	<path class="st177" d="M129.33,148.07c2.03-3.86,3.2-8.02,3.72-12.28c2.12,2.38,3.13,5.4,1.79,8.34c-0.8,1.75-2.42,3.06-4.48,3.69
		C130.01,147.94,129.67,148.02,129.33,148.07"/>
	<path class="st178" d="M116.56,150.33c-0.69-0.18-1.37-0.39-2.03-0.64c-2.35-0.89-4.4-2.28-5.95-3.98c0.35-0.02,0.7-0.03,1.05-0.05
		c1.19-0.06,2.39-0.09,3.58-0.09c2.25,0,4.49,0.1,6.74,0.29c0.15,0.01,0.29,0.02,0.44,0.04
		C119.31,147.46,118.04,148.95,116.56,150.33"/>
	<path class="st179" d="M121.96,151.14c-1.1,0-2.2-0.16-3.26-0.42c-0.72-0.08-1.44-0.21-2.14-0.39c1.49-1.38,2.75-2.87,3.82-4.43
		c0.25,0.02,0.51,0.04,0.76,0.07c0.52,0.22,1.04,0.47,1.58,0.72c1.74,0.79,3.53,1.49,5.43,1.49c0.19,0,0.38-0.01,0.58-0.02
		c-1,1.23-2.4,2.2-4.18,2.67C123.69,151.04,122.83,151.14,121.96,151.14"/>
	<path class="st180" d="M120.38,145.9c-0.15-0.01-0.29-0.02-0.44-0.04c-2.24-0.18-4.49-0.29-6.74-0.29c-1.19,0-2.39,0.03-3.58,0.09
		c-0.34,0.02-0.69,0.03-1.05,0.05c-2.34-2.56-3.55-5.81-2.91-9.08c0.69-3.54,3.54-5.79,7.04-6.73c-0.33,0.27-0.62,0.58-0.84,0.95
		c-1.01,1.68-0.76,3.24-0.78,5.05c-0.01,1.25,0.1,3.3,0.94,4.34c0.58,0.72,1.48,1.34,2.47,1.34c0.24,0,0.49-0.04,0.74-0.12
		c1.99-0.66,3.26-2.5,3.93-4.3c0.81-2.18,1.16-4.14,0.06-6.31c-0.32-0.62-0.79-1.08-1.36-1.4c1.65,0.12,3.29,0.5,4.8,1.12
		c0.88,0.37,1.69,0.8,2.43,1.29C124.68,136.8,123.26,141.65,120.38,145.9"/>
	<path class="st181" d="M128.15,148.17c-1.9,0-3.7-0.7-5.43-1.49c-0.54-0.25-1.05-0.49-1.58-0.72c-0.25-0.02-0.51-0.04-0.76-0.07
		c2.89-4.25,4.3-9.09,4.7-14.03c4.3,2.87,6.19,7.71,5.43,12.3c-0.23,1.41-0.83,2.81-1.78,3.97
		C128.53,148.16,128.34,148.17,128.15,148.17"/>
	<path class="st182" d="M117.55,129.3c-0.56-0.03-1.12-0.05-1.68-0.05c-0.38,0-0.75,0.01-1.13,0.02c0.71-0.09,1.42-0.16,2.13-0.21
		C117.11,129.12,117.34,129.2,117.55,129.3"/>
	<path class="st183" d="M113.63,129.34c0.64-0.28,1.35-0.43,2.05-0.43c0.4,0,0.8,0.05,1.19,0.15c-0.71,0.05-1.42,0.12-2.13,0.21
		C114.37,129.29,114,129.31,113.63,129.34"/>
	<path class="st184" d="M112.7,129.9c0.2-0.16,0.42-0.3,0.66-0.43c0.46-0.08,0.92-0.15,1.39-0.2c0.38-0.02,0.75-0.02,1.13-0.02
		c0.56,0,1.12,0.02,1.68,0.05c0.1,0.05,0.2,0.1,0.3,0.15c-0.41-0.03-0.82-0.05-1.22-0.05C115.28,129.4,113.95,129.57,112.7,129.9"/>
	<path class="st185" d="M113.36,129.48c0.09-0.05,0.18-0.09,0.27-0.13c0.37-0.03,0.74-0.06,1.11-0.07
		C114.28,129.33,113.82,129.4,113.36,129.48"/>
	<path class="st186" d="M114.48,141.58c-0.99,0-1.89-0.62-2.47-1.34c-0.83-1.04-0.95-3.09-0.94-4.34c0.02-1.82-0.23-3.38,0.78-5.05
		c0.22-0.36,0.51-0.68,0.84-0.95c1.25-0.33,2.58-0.5,3.92-0.5c0.41,0,0.82,0.01,1.22,0.05c0.57,0.32,1.04,0.78,1.36,1.4
		c1.11,2.16,0.76,4.12-0.06,6.31c-0.67,1.8-1.94,3.64-3.93,4.3C114.98,141.54,114.73,141.58,114.48,141.58"/>
	<path class="st187" d="M101.58,153.44c0.81-0.35,1.23-0.91,1.69-1.47c0.24-0.29,0.43-1.04,0.99-1.04c3.18,0.03,1.31,3.5,2.67,4.12
		c0.73,0.33,1.39,0.24,1.87-0.01c1.34-0.69,0.56-2.8-0.1-4.02c-0.76-1.4-2.59-2.59-4.65-2.9c-2.11-0.31-3.4,0.42-4.1,1.52
		c-0.53,0.84-1.18,2.6,0.47,3.58C100.76,153.44,101.27,153.58,101.58,153.44L101.58,153.44z"/>
	<path class="st188" d="M107.83,152.56c0.34,1.26-0.81,4.1-2.15,4.63c-2.83,1.12-3.99-1.44-4.18-1.93
		c-0.31-0.81-0.65-1.76-0.38-2.72c0.02-0.08,0.47-3.36,2.02-3.57C106.62,148.52,107.52,151.43,107.83,152.56L107.83,152.56z
		 M98.63,145.78c-1.28,1.1-1.83,2.41-1.68,3.88c-0.27,0.59-0.33,1.3-0.24,2.07c0.25,2.2,0.55,4.77,2.19,7.02
		c1.35,1.84,4.06,3.68,6.94,3.8c3.6,0.14,5.16-2.1,6.39-3.88c1.41-2.03,2.11-4.25,0.88-6.92c-0.97-2.13-3.02-5.22-6.1-6.6
		C103.7,143.68,100.37,144.29,98.63,145.78L98.63,145.78z"/>
	<g>
		<defs>
			<path id="SVGID_00000053532512828886945670000000729629385296288150_" d="M107.83,152.56c0.34,1.26-0.81,4.1-2.15,4.63
				c-2.83,1.12-3.99-1.44-4.18-1.93c-0.31-0.81-0.65-1.76-0.38-2.72c0.02-0.08,0.47-3.36,2.02-3.57
				C106.62,148.52,107.52,151.43,107.83,152.56 M98.63,145.78c-1.28,1.1-1.83,2.41-1.68,3.88c-0.27,0.59-0.33,1.3-0.24,2.07
				c0.25,2.2,0.55,4.77,2.19,7.02c1.35,1.84,4.06,3.68,6.94,3.8c3.6,0.14,5.16-2.1,6.39-3.88c1.41-2.03,2.11-4.25,0.88-6.92
				c-0.97-2.13-3.02-5.22-6.1-6.6C103.7,143.68,100.37,144.29,98.63,145.78"/>
		</defs>
		<clipPath id="SVGID_00000030465441562875497230000011953902065625549449_">
			<use xlink:href="#SVGID_00000053532512828886945670000000729629385296288150_"  style="overflow:visible;"/>
		</clipPath>
		<path style="clip-path:url(#SVGID_00000030465441562875497230000011953902065625549449_);fill:#406183;" d="M96.51,149.12
			c-1.66,0.68-2.76,1.01-3.28,2.46c-0.5,1.41-0.55,2.86,0.05,4.49c1.1,2.98,4.2,6.05,8.39,7.77c4.1,1.69,8.67,1.87,11.68,0.46
			c2.96-1.39,5.43-5.15,1.94-8.15c-1.02-0.88-2.5-1.35-3.7-0.97c-3.18,1.01-2.21,7.41-8.27,4.6c-2.18-1.01-3.41-2.77-3.95-4.3
			c-0.38-1.06-0.4-2.04-0.51-3.07c-0.1-0.94-0.74-1.79-1.04-2.72C97.69,149.3,96.97,148.94,96.51,149.12L96.51,149.12z"/>
		<path style="clip-path:url(#SVGID_00000030465441562875497230000011953902065625549449_);fill:#48719B;" d="M96.69,155.38
			c0.76-4.61,2.34-7.99,8.04-7.06c5.99,0.97,5.64,8.38,5.51,11.92c-0.05,1.44,3.48-0.05,5.15-0.68c3.84-1.45,2.68-6.07,0.9-9.19
			c-2.07-3.61-6.68-6.88-12.12-7.58c-9.53-1.23-16.57,6.16-11.29,12.63C93.99,156.76,96.45,156.42,96.69,155.38L96.69,155.38z"/>
	</g>
	<path class="st191" d="M135.81,145.97c1.82-2.92-3.58-5.3-5.4-2.38C128.58,146.51,133.98,148.89,135.81,145.97L135.81,145.97z"/>
</g>
</svg>
