<?xml version="1.0" encoding="utf-8"?>
<!-- Generator: Adobe Illustrator 27.5.0, SVG Export Plug-In . SVG Version: 6.00 Build 0)  -->
<svg version="1.1" id="Layer_1" xmlns="http://www.w3.org/2000/svg" xmlns:xlink="http://www.w3.org/1999/xlink" x="0px" y="0px"
	 viewBox="0 0 250 250" style="enable-background:new 0 0 250 250;" xml:space="preserve">
<style type="text/css">
	.st0{fill:#F6D70E;}
	.st1{clip-path:url(#SVGID_00000013194108142546029070000001302092532381725852_);fill:#F8EE4C;}
	.st2{clip-path:url(#SVGID_00000013194108142546029070000001302092532381725852_);fill:#F5B21B;}
	.st3{clip-path:url(#SVGID_00000013194108142546029070000001302092532381725852_);fill:#F9CD14;}
	.st4{clip-path:url(#SVGID_00000013194108142546029070000001302092532381725852_);fill:#FEE522;}
	.st5{clip-path:url(#SVGID_00000013194108142546029070000001302092532381725852_);fill:#F6B21A;}
	.st6{clip-path:url(#SVGID_00000013194108142546029070000001302092532381725852_);fill:#F9C616;}
	.st7{clip-path:url(#SVGID_00000013194108142546029070000001302092532381725852_);fill:#F7C21A;}
	.st8{clip-path:url(#SVGID_00000013194108142546029070000001302092532381725852_);fill:#F6D70E;}
	.st9{clip-path:url(#SVGID_00000013194108142546029070000001302092532381725852_);fill:#F5C618;}
	.st10{clip-path:url(#SVGID_00000013194108142546029070000001302092532381725852_);fill:#FAD219;}
	.st11{clip-path:url(#SVGID_00000013194108142546029070000001302092532381725852_);fill:#F5C01A;}
	.st12{clip-path:url(#SVGID_00000013194108142546029070000001302092532381725852_);fill:#FAC618;}
	.st13{clip-path:url(#SVGID_00000013194108142546029070000001302092532381725852_);fill:#F5BE1A;}
	.st14{clip-path:url(#SVGID_00000013194108142546029070000001302092532381725852_);fill:#F9C516;}
	.st15{clip-path:url(#SVGID_00000013194108142546029070000001302092532381725852_);fill:#FBD61A;}
	.st16{clip-path:url(#SVGID_00000013194108142546029070000001302092532381725852_);fill:#F8BC18;}
	.st17{clip-path:url(#SVGID_00000013194108142546029070000001302092532381725852_);fill:#FDC918;}
	.st18{fill:#FFCA19;}
	.st19{clip-path:url(#SVGID_00000124844461375439601520000015458020513745910941_);fill:#FEBC18;}
	.st20{clip-path:url(#SVGID_00000124844461375439601520000015458020513745910941_);fill:#FEDE0D;}
	.st21{fill:#FDB515;}
	.st22{fill:#FBAA1B;}
	.st23{fill:#FFCC12;}
	.st24{fill:#FFD528;}
	.st25{fill:#FAE00D;}
	.st26{fill:#FFFAF2;}
	.st27{fill:#FFFFFF;}
	.st28{clip-path:url(#SVGID_00000110459750643217356300000012550654124790397094_);fill:#FFD528;}
	.st29{clip-path:url(#SVGID_00000152249746295701154680000017797347602680775553_);fill:#FFD528;}
	.st30{clip-path:url(#SVGID_00000148636594553274684340000007337157611355351172_);fill:#FFD528;}
	.st31{clip-path:url(#SVGID_00000067935259009916284330000015956293037113708933_);fill:#FFD528;}
	.st32{clip-path:url(#SVGID_00000173156526924318611280000017592732908493430406_);fill:#FFD528;}
	.st33{clip-path:url(#SVGID_00000074444395207792729100000003590150693593962920_);fill:#FFD528;}
	.st34{clip-path:url(#SVGID_00000141448937518942148010000001278528576769228725_);fill:#FFD528;}
	.st35{clip-path:url(#SVGID_00000081632453595910057370000008811267375493550470_);fill:#FFD528;}
	.st36{fill:#FFFBF4;}
	.st37{fill:#FAE426;}
	.st38{fill:#FDDC44;}
	.st39{fill:#FBE862;}
	.st40{fill:#FEE36D;}
	.st41{fill:#FAEA69;}
	.st42{fill:#FDE373;}
	.st43{fill:#FAEB7C;}
	.st44{fill:#FBEC71;}
	.st45{fill:#FBEF77;}
</style>
<g>
	<path class="st0" d="M88.2,90.66c1.39-5.94,9.67-20.48,14.25-24.56c5.82-5.18,12.73-9.11,17.64-15.15
		c1.23-1.52,2.23-3.25,3.74-4.49c2.38-1.95,5.93-2.35,8.69-0.99c3.3,1.63,5.06,5.24,7.82,7.67c3.64,3.2,8.69,4.1,13.29,5.67
		c4.01,1.37,7.82,3.33,11.26,5.8c2.6,1.87,4.99,4.02,7.2,6.34c9.57,10.05,15.63,23.31,17.05,37.07c1.42,13.76-1.79,27.93-8.92,39.81
		c-2.22,3.7-4.84,7.22-8.18,9.98c-7.33,6.06-18.3,13.43-35.68,10.1c-9.37-1.8-23.83-6.11-30.81-12.56
		C87.11,138.32,82.13,116.54,88.2,90.66"/>
	<g>
		<defs>
			<path id="SVGID_1_" d="M88.2,90.66c1.39-5.94,9.67-20.48,14.25-24.56c5.82-5.18,12.73-9.11,17.64-15.15
				c1.23-1.52,2.23-3.25,3.74-4.49c2.38-1.95,5.93-2.35,8.69-0.99c3.3,1.63,5.06,5.24,7.82,7.67c3.64,3.2,8.69,4.1,13.29,5.67
				c4.01,1.37,7.82,3.33,11.26,5.8c2.6,1.87,4.99,4.02,7.2,6.34c9.57,10.05,15.63,23.31,17.05,37.07
				c1.42,13.76-1.79,27.93-8.92,39.81c-2.22,3.7-4.84,7.22-8.18,9.98c-7.33,6.06-18.3,13.43-35.68,10.1
				c-9.37-1.8-23.83-6.11-30.81-12.56C87.11,138.32,82.13,116.54,88.2,90.66"/>
		</defs>
		<clipPath id="SVGID_00000047753030722224529610000008441962251570157195_">
			<use xlink:href="#SVGID_1_"  style="overflow:visible;"/>
		</clipPath>
		<path style="clip-path:url(#SVGID_00000047753030722224529610000008441962251570157195_);fill:#F8EE4C;" d="M138.27,41.53
			c-0.38-1.42-1.62-2.12-3.09-1.75c-2.95,0.75-2.44,4.36-1.36,6.41c2.96,5.65,9.12,9.86,14.29,13.32
			c5.23,3.5,10.09,7.07,14.22,11.84c3.98,4.6,6.89,9.84,9.26,15.41c5.33,12.49,5.48,26.59,3.12,39.77
			c-1.07,5.98-2.42,12.95-6.3,17.81c-3.82,4.79-9.12,9.62-14.21,13.06c-5.95,4.02-13.1,4.85-20.12,4.66
			c-4.37-0.12-8.75-0.51-13.09-1.02c-4.8-0.56-9.89-1.12-14.41,0.93c-3.17,1.44-4.32,6.27-1.74,8.81c5.95,5.84,15.93,5.9,23.83,6.44
			c7.32,0.49,15.04,0.5,22.14-1.55c7.42-2.15,13.68-6.2,19.36-11.34c5.61-5.08,11.37-10.36,14.65-17.26
			c3.2-6.72,4.67-14.56,5.8-21.86c1.23-7.95,1.36-15.99,0.46-23.99c-1.53-13.57-6.87-26.73-15.96-37.05
			c-4.88-5.55-10.83-9.88-17.4-13.25c-3.52-1.8-7.05-3.65-10.67-5.23c-1.48-0.65-2.87-1.39-4.28-2.19
			c-0.74-0.42-1.49-0.81-2.23-1.25c-0.44-0.25-0.87-0.52-1.3-0.79c-0.84-0.77-1.22-0.55-1.12,0.66c-0.42,0.37-0.85,0.74-1.27,1.11
			l0.37-0.13C137.88,42.88,138.48,42.29,138.27,41.53"/>
		<path style="clip-path:url(#SVGID_00000047753030722224529610000008441962251570157195_);fill:#F5B21B;" d="M113.2,46.81
			c-3.77,7.64-13.17,11.63-18.78,17.79c-6.71,7.36-11.66,16.02-14.46,25.57c-5.35,18.26-2.34,38.55,7.49,54.79
			c5.16,8.52,13.53,20.92,24.95,19.97c2.59-0.21,4.09-3.3,3.68-5.55c-1.45-8.02-10.02-13.82-14.19-20.47
			c-4.3-6.85-7.21-14.25-8.48-22.22c-2.62-16.49,3.2-33.08,13.61-45.85c5.71-7.01,13.61-14.49,9.99-24.28
			C116.33,44.69,113.89,45.42,113.2,46.81"/>
		<path style="clip-path:url(#SVGID_00000047753030722224529610000008441962251570157195_);fill:#F9CD14;" d="M156.14,117.57
			c-8.1,0-16.22-1.54-23.79-4.61c-10.02-4.06-19.35-10.69-26.38-18.88c-2.79-3.25-5.14-7.04-6.83-11.11
			c2.17-4.31,4.83-8.38,7.88-12.13c4.28-5.26,9.79-10.77,10.76-17.33c0.81-0.81,1.58-1.66,2.31-2.56c1.23-1.52,2.23-3.25,3.74-4.49
			c1.44-1.18,3.3-1.79,5.16-1.79c0.5,0,1,0.04,1.49,0.13l0,0c-0.36-0.07-0.73-0.11-1.1-0.13c-0.13-0.01-0.26-0.01-0.39-0.01
			c-1.42,0-2.85,0.36-4.08,1.05c-0.33,0.18-0.64,0.39-0.93,0.62c-0.6,1.83-0.6,3.98-0.71,5.76c-0.06,0.98,0.76,1.62,1.59,1.62
			c0.47,0,0.93-0.2,1.25-0.65c0.65-0.92,1.41-1.93,2.06-2.99c0.17,0.26,0.35,0.51,0.53,0.76c-0.91,4.12-1.27,8.38-1.23,12.6
			c0.05,4.7,0.73,9.42,1.43,14.06c0.68,4.57,1.72,9.9,4.19,13.46c4.08,5.87,11.64,8.61,18.4,8.61c0.8,0,1.59-0.04,2.37-0.12
			c7.2-0.72,13.7-3.81,19.52-7.9c2.32,7.32,3.06,15.07,2.73,22.77C169.67,116.49,162.91,117.57,156.14,117.57"/>
		<path style="clip-path:url(#SVGID_00000047753030722224529610000008441962251570157195_);fill:#FEE522;" d="M189.46,114.41
			c0-2.12-0.11-4.24-0.33-6.35c-4.1,2.64-8.48,4.73-13.04,6.27c0.33-7.7-0.41-15.45-2.73-22.77c2.24-1.58,4.38-3.3,6.42-5.09
			c0.69-0.61,1.59-0.89,2.63-0.91c3.6,7,5.9,14.66,6.71,22.48C189.35,110.14,189.46,112.28,189.46,114.41L189.46,114.41"/>
		<path style="clip-path:url(#SVGID_00000047753030722224529610000008441962251570157195_);fill:#F6B21A;" d="M85.75,110.47
			L85.75,110.47c0-6.3,0.83-12.91,2.45-19.81c1.39-5.94,9.67-20.48,14.25-24.56c4.95-4.41,10.71-7.92,15.34-12.59
			c-0.97,6.55-6.48,12.07-10.76,17.33c-3.05,3.75-5.71,7.83-7.88,12.13c-1.24-3.01-2.12-6.16-2.54-9.36
			c-3.77,5.86-7.51,13.23-8.41,17.05C86.58,97.56,85.75,104.17,85.75,110.47"/>
		<path style="clip-path:url(#SVGID_00000047753030722224529610000008441962251570157195_);fill:#F9C616;" d="M134.19,55.15
			c-0.14,0-0.28-0.02-0.41-0.07c-1.66-0.58-3.58-2.22-5.08-4.24c0.2-0.92,0.43-1.83,0.7-2.74c1.31,0.13,2.66,0.2,3.84,0.61
			c1.07,0.36,1.83,1.17,2.59,2c0.12,1.21,0.04,2.42-0.37,3.56C135.25,54.81,134.73,55.15,134.19,55.15"/>
		<path style="clip-path:url(#SVGID_00000047753030722224529610000008441962251570157195_);fill:#F7C21A;" d="M128.69,50.84
			c-0.18-0.25-0.36-0.5-0.53-0.76c0.39-0.64,0.74-1.31,0.99-2c0.08,0.01,0.16,0.02,0.24,0.02C129.13,49.01,128.9,49.92,128.69,50.84
			"/>
		<path style="clip-path:url(#SVGID_00000047753030722224529610000008441962251570157195_);fill:#F6D70E;" d="M126.1,53.07
			c1.61-2.31,3.96-5.09,3.35-8.12c-0.34-1.71-2.46-2.36-3.77-1.26c-2.35,1.98-2.24,5.64-2.41,8.41
			C123.17,53.64,125.23,54.32,126.1,53.07"/>
		<path style="clip-path:url(#SVGID_00000047753030722224529610000008441962251570157195_);fill:#F5C618;" d="M141.16,54.52
			c-1.43-0.54-2.79-1.41-3.91-2.34c-0.52-0.43-0.97-0.95-1.43-1.45c-0.06-0.65-0.18-1.29-0.34-1.93
			C137.04,50.9,139.03,52.79,141.16,54.52"/>
		<path style="clip-path:url(#SVGID_00000047753030722224529610000008441962251570157195_);fill:#FAD219;" d="M142.99,54.99
			c-0.62-0.09-1.23-0.25-1.84-0.48c-2.12-1.72-4.12-3.61-5.69-5.72c-0.12-0.51-0.27-1.01-0.43-1.5c1.87,1.79,3.33,4.12,5.3,5.86
			C141.16,53.87,142.05,54.47,142.99,54.99"/>
		<path style="clip-path:url(#SVGID_00000047753030722224529610000008441962251570157195_);fill:#F5C01A;" d="M135.81,50.72
			c-0.75-0.83-1.52-1.64-2.59-2c-1.18-0.41-2.53-0.48-3.84-0.61c0.32-1.11,0.68-2.21,1.1-3.29c0.71,0.13,1.39,0.35,2.04,0.67
			c0.49,0.24,0.94,0.52,1.36,0.84c0.46,0.86,0.99,1.68,1.58,2.47C135.63,49.42,135.75,50.07,135.81,50.72"/>
		<path style="clip-path:url(#SVGID_00000047753030722224529610000008441962251570157195_);fill:#FAC618;" d="M135.47,48.79
			c-0.59-0.79-1.12-1.62-1.58-2.47c0.4,0.3,0.78,0.63,1.15,0.98C135.2,47.78,135.34,48.28,135.47,48.79"/>
		<path style="clip-path:url(#SVGID_00000047753030722224529610000008441962251570157195_);fill:#F5BE1A;" d="M129.39,48.1
			c-0.08-0.01-0.16-0.02-0.24-0.02c0.37-1.01,0.52-2.05,0.31-3.13c-0.02-0.09-0.04-0.18-0.07-0.27c0.37,0.02,0.74,0.06,1.1,0.13
			C130.07,45.89,129.71,46.99,129.39,48.1"/>
		<path style="clip-path:url(#SVGID_00000047753030722224529610000008441962251570157195_);fill:#F5C618;" d="M129.15,48.08
			c-0.61-0.06-1.2-0.14-1.76-0.27c-1.11-0.26-1.96-1.07-2.47-2.08c1.23-0.69,2.66-1.05,4.08-1.05c0.13,0,0.26,0,0.39,0.01
			c0.03,0.09,0.05,0.18,0.07,0.27C129.67,46.03,129.51,47.08,129.15,48.08"/>
		<path style="clip-path:url(#SVGID_00000047753030722224529610000008441962251570157195_);fill:#F9C516;" d="M157.51,133.69
			c-2.45-4.22-5.95-8.53-9.43-11.49c-7.93-6.76-20.81-11.06-34.2-12.02c-2.19-0.16-4.31-0.24-6.37-0.24
			c-5.23,0-10.06,0.5-14.65,1.46c-0.51-9.87,1.86-19.63,6.29-28.43c1.68,4.07,4.04,7.86,6.83,11.11
			c7.03,8.19,16.36,14.82,26.38,18.88c7.57,3.06,15.69,4.61,23.79,4.61c6.77,0,13.54-1.08,19.95-3.24
			c-0.18,4.11-0.66,8.2-1.38,12.21c-0.14,0.76-0.28,1.55-0.43,2.34c-5.19,1.92-10.42,3.55-14.98,4.48
			C158.7,133.47,158.1,133.59,157.51,133.69"/>
		<path style="clip-path:url(#SVGID_00000047753030722224529610000008441962251570157195_);fill:#FBD61A;" d="M174.29,128.87
			c0.15-0.79,0.29-1.57,0.43-2.34c0.72-4.01,1.2-8.1,1.38-12.21c4.56-1.54,8.94-3.63,13.04-6.27c0.22,2.11,0.32,4.23,0.33,6.35
			c0,2.77-0.18,5.53-0.53,8.27C184.55,124.76,179.44,126.96,174.29,128.87"/>
		<path style="clip-path:url(#SVGID_00000047753030722224529610000008441962251570157195_);fill:#F6B21A;" d="M85.8,113.29
			c-0.04-0.93-0.06-1.87-0.05-2.82c0-6.3,0.83-12.91,2.45-19.81c0.9-3.82,4.63-11.19,8.41-17.05c0.42,3.2,1.29,6.36,2.54,9.36
			c-4.43,8.8-6.8,18.56-6.29,28.43C90.45,111.91,88.11,112.54,85.8,113.29"/>
		<path style="clip-path:url(#SVGID_00000047753030722224529610000008441962251570157195_);fill:#F8BC18;" d="M160.01,152.95
			c1.24-3.87,1.48-7.95,0.49-12.2c-0.5-2.13-1.57-4.58-3-7.05c0.6-0.11,1.2-0.22,1.8-0.35c4.56-0.93,9.79-2.56,14.98-4.48
			c-1.03,5.39-2.49,11.24-5.87,15.47C166.05,147.3,163.11,150.29,160.01,152.95"/>
		<path style="clip-path:url(#SVGID_00000047753030722224529610000008441962251570157195_);fill:#FDC918;" d="M153.23,167.81
			c1.41-2.83,2.66-5.71,3.73-8.5c1.32-2.04,2.35-4.16,3.05-6.36c3.1-2.66,6.04-5.64,8.41-8.61c3.38-4.23,4.84-10.08,5.87-15.47
			c5.15-1.91,10.26-4.1,14.64-6.19c-1.14,8.85-4.11,17.48-8.71,25.15c-2.22,3.7-4.84,7.22-8.18,9.98
			C167.43,161.62,161.39,165.94,153.23,167.81"/>
	</g>
	<path class="st18" d="M57.98,137.11c0,0-3.06,18.25,3.23,31.91c4.69,10.19,20.57,25.26,33.84,27.15
		c13.28,1.89,28.83,3.21,42.71-7.37c13.87-10.57,27.96-45.22,20.93-50.5C151.66,133.02,57.98,137.11,57.98,137.11"/>
	<g>
		<defs>
			<path id="SVGID_00000178197960311568374410000000824780559282879619_" d="M57.98,137.11c0,0-3.06,18.25,3.23,31.91
				c4.69,10.19,20.57,25.26,33.84,27.15c13.28,1.89,28.83,3.21,42.71-7.37c13.87-10.57,27.96-45.22,20.93-50.5
				C151.66,133.02,57.98,137.11,57.98,137.11"/>
		</defs>
		<clipPath id="SVGID_00000026876059030105882880000008455696097804840889_">
			<use xlink:href="#SVGID_00000178197960311568374410000000824780559282879619_"  style="overflow:visible;"/>
		</clipPath>
		<path style="clip-path:url(#SVGID_00000026876059030105882880000008455696097804840889_);fill:#FEBC18;" d="M92.55,157.14
			c-0.57,2.02-3.32,18.24-2.01,26.42c1.31,8.18,13.74,21.77,13.74,21.77s-57.55-3.85-58.81-4.65c-1.26-0.8-9.84-33.88-9.73-37.69
			c0.11-3.82,9.11-33.11,9.11-33.11l13.97-4.72L92.55,157.14"/>
		<path style="clip-path:url(#SVGID_00000026876059030105882880000008455696097804840889_);fill:#FEDE0D;" d="M141.16,160.23
			c0,0-7.85,22.08-11.95,31.65c-4.11,9.56-10.54,13.89-10.54,13.89s28.74,4.68,31.52-3.14c2.78-7.82,13.08-44.86,13.08-44.86
			l0.17-15.53L141.16,160.23"/>
	</g>
	<path class="st21" d="M107.76,181.68c-7.09,0-13.48-0.63-17.53-1.43c-0.05-1.16-0.05-2.4-0.02-3.68
		c5.94,1.37,11.65,2.05,17.25,2.39c1.61,0.1,3.29,0.15,4.99,0.15c6.1,0,12.59-0.63,18.06-1.77c1.38-0.29,2.7-0.62,3.97-1.01
		c-0.21,0.58-0.43,1.15-0.65,1.73C126.11,180.75,116.42,181.68,107.76,181.68"/>
	<path class="st22" d="M90.24,180.25c-0.93-0.19-1.74-0.38-2.4-0.58c-8.32-2.5-30.51-14.64-29.25-27.97
		c2.54,8.46,8.9,17.66,23.2,22.48c2.87,0.97,5.68,1.75,8.44,2.39C90.19,177.85,90.19,179.09,90.24,180.25"/>
	<path class="st23" d="M133.83,178.06c0.22-0.58,0.43-1.15,0.65-1.73c3.6-1.1,6.8-2.61,9.73-4.6c0.88-0.6,1.73-1.21,2.56-1.83
		c-1.41,1.41-3.13,2.86-5.21,4.34C139.37,175.79,136.74,177.05,133.83,178.06"/>
	<path class="st24" d="M160.5,140.75c2.8,12.08-4.27,22.83-16.29,30.99c-3.96,2.69-8.42,4.51-13.7,5.61
		c-7,1.46-15.66,2.08-23.05,1.62c-8.19-0.51-16.63-1.73-25.68-4.78c-18.73-6.32-23.84-20.16-24.58-29.99
		c-0.55-7.37,0.5-18.44,20.34-27.64c10.88-5.04,22.1-7.4,36.33-6.38c13.39,0.96,26.27,5.26,34.2,12.02
		C153.59,126.9,159.16,134.96,160.5,140.75"/>
	<path class="st25" d="M157.47,140.1c2.85,7.78,2.42,13.54-5.84,22.46c-2.67,2.89-6.76,6.16-10.88,8.18
		c-3.73,1.83-7.09,3.04-11.39,4.23c-12.58,3.48-27.06,2.13-40.04-1.08c-7.54-1.86-12.76-5.34-16.1-7.8
		c-4.49-3.3-7.46-7.36-9.94-11.45c-1.62-2.67-3.07-5.4-3.92-8.21c-3.29-10.98,7.88-22.53,21.44-29.02
		c11.55-5.53,24.41-6.25,38.2-4.29c4.51,0.64,20.14,4.52,27.55,11.82C151.18,129.5,155.5,134.72,157.47,140.1"/>
	<path class="st26" d="M155.68,140.38c2.75,7.33,2.33,12.76-5.6,21.15c-2.57,2.72-6.49,5.8-10.45,7.7
		c-3.58,1.72-6.82,2.86-10.95,3.98c-12.09,3.28-26,1.99-38.48-1.04c-7.25-1.76-12.26-5.04-15.48-7.36
		c-4.32-3.11-7.17-6.93-9.56-10.79c-1.56-2.52-2.96-5.09-3.77-7.74c-3.17-10.34,7.56-21.22,20.59-27.33
		c11.1-5.2,23.46-5.87,36.71-4.02c4.33,0.61,19.36,4.27,26.48,11.15C149.63,130.4,153.78,135.31,155.68,140.38"/>
	<path class="st25" d="M110.36,131.84c0.36-4.77,0.73-9.53,1.09-14.3c0.02-0.27,0.03-0.57-0.25-0.76c-0.23-0.16-0.6-0.2-0.95-0.23
		c-8.97-0.77-18.69,1.39-25.43,5.64c-0.94,0.59-1.9,1.36-1.72,2.17c0.12,0.52,0.68,0.92,1.23,1.29c5.06,3.33,11.32,5.9,15.8,9.57
		c1.47,1.21,5.89,5.39,9.23,3.63C111.17,137.89,110.26,133.12,110.36,131.84"/>
	<path class="st25" d="M97.67,135.94c-5.62-3.17-11.24-6.34-16.86-9.5c-0.32-0.18-0.68-0.37-1.1-0.36c-0.35,0.01-0.65,0.16-0.91,0.3
		c-6.86,3.79-10.62,9.77-9.84,15.65c0.11,0.82,0.42,1.76,1.54,2.18c0.71,0.27,1.59,0.26,2.4,0.22c7.44-0.32,14.72-1.68,22.18-1.51
		c2.46,0.06,10.51,0.58,10.55-2.11C105.65,139.35,99.19,136.8,97.67,135.94"/>
	<path class="st25" d="M92.4,145.12c-7.26,0.31-14.52,0.63-21.79,0.94c-0.41,0.02-0.87,0.05-1.12,0.25
		c-0.21,0.17-0.22,0.41-0.21,0.64c0.17,5.91,4.88,11.99,12.32,15.87c1.04,0.54,2.34,1.08,3.54,0.87c0.77-0.13,1.29-0.55,1.76-0.95
		c4.29-3.67,7.24-8.04,12.12-11.37c1.61-1.1,7.27-4.45,4.11-6.41C101.44,143.9,94.37,145.04,92.4,145.12"/>
	<path class="st25" d="M128.35,143.17c7.06-0.1,14.11-0.2,21.17-0.3c0.4,0,0.84-0.02,1.07-0.22c0.19-0.17,0.17-0.42,0.14-0.65
		c-0.8-6.08-5.52-13.03-13.19-17.25c-1.08-0.59-2.41-1.42-3.56-1.24c-0.73,0.12-2.33,1.56-2.75,1.96
		c-3.79,3.64-5.6,7.81-10.01,11.09c-1.45,1.08-6.62,4.35-3.33,6.47C119.66,144.16,126.44,143.2,128.35,143.17"/>
	<path class="st25" d="M123.67,151.84c5.53,3.23,11.06,6.47,16.59,9.7c0.32,0.18,0.67,0.38,1.1,0.37c0.35,0,0.65-0.15,0.92-0.29
		c6.97-3.7,10.9-9.64,10.29-15.52c-0.09-0.82-0.37-1.76-1.47-2.2c-0.7-0.28-1.58-0.28-2.39-0.25c-7.45,0.23-14.77,1.51-22.23,1.25
		c-2.45-0.09-10.49-0.71-10.61,1.98C115.79,148.33,122.17,150.97,123.67,151.84"/>
	<path class="st25" d="M110.78,156.34c-0.75,4.83-1.5,9.67-2.25,14.5c-0.04,0.28-0.07,0.58,0.18,0.77c0.22,0.16,0.58,0.2,0.92,0.22
		c8.81,0.61,18.6-1.77,25.6-6.2c0.98-0.62,1.99-1.41,1.88-2.23c-0.07-0.52-0.6-0.92-1.12-1.28c-4.73-3.28-10.71-5.75-14.84-9.39
		c-1.36-1.19-5.38-5.34-8.83-3.5C110.47,150.23,110.98,155.03,110.78,156.34"/>
	<path class="st27" d="M115.9,143.92c0.47-1.2-4.08-4.11-7.61-3.34c-3.53,0.77-3.87,3.03-1.89,4.91
		C108.37,147.37,114.3,147.96,115.9,143.92L115.9,143.92z"/>
	<path class="st25" d="M131.07,121.9c-0.72-1.68-15.86-5.65-16.53-4.78c-0.66,0.87-3.9,20.65-2.88,20.93
		c1.02,0.28,1.7,3.23,5.24,0.65C120.43,136.12,131.88,123.78,131.07,121.9"/>
	<path class="st25" d="M106.13,171.63c1.22-0.4,4.31-21.53,3.3-22.06c-1.01-0.53-3.38-3.02-5.51-0.15
		c-2.13,2.87-5.37,4.31-8.67,7.53c-3.29,3.22-8.28,7.67-7.17,8.97C89.2,167.23,103.72,172.43,106.13,171.63"/>
	<g>
		<defs>
			<path id="SVGID_00000119807873475246288950000003790131946926462643_" d="M110.36,131.84c0.36-4.77,0.73-9.53,1.09-14.3
				c0.02-0.27,0.03-0.57-0.25-0.76c-0.23-0.16-0.6-0.2-0.95-0.23c-8.97-0.77-18.69,1.39-25.43,5.64c-0.94,0.59-1.9,1.36-1.72,2.17
				c0.12,0.52,0.68,0.92,1.23,1.29c5.06,3.33,11.32,5.9,15.8,9.57c1.47,1.21,5.89,5.39,9.23,3.63
				C111.17,137.89,110.26,133.12,110.36,131.84"/>
		</defs>
		<clipPath id="SVGID_00000164479630058876568160000016246046540210272901_">
			<use xlink:href="#SVGID_00000119807873475246288950000003790131946926462643_"  style="overflow:visible;"/>
		</clipPath>
		<path style="clip-path:url(#SVGID_00000164479630058876568160000016246046540210272901_);fill:#FFD528;" d="M105.7,139.12
			c2.48-1.88,1.62-4.94,1.46-7.68c-0.15-2.5-0.25-5-0.33-7.5c-0.04-1.28,0.29-3.26-0.13-4.5c0.6-1.07,0.35-1.39-0.75-0.96
			c-0.77,0.07-1.54,0.16-2.3,0.28c-2.39,0.35-4.75,0.88-7.07,1.54c-2.54,0.73-5.04,1.61-7.43,2.73c-0.81,0.38-3.03,0.95-2.49,2.29
			c0.16,0.39,2.54,1.3,2.93,1.47c3.78,1.56,13.74,8.54,15.62,12.17c0.38,0.74-7.9-4.61-8.61-5.01c-3.74-2.08-7.15-3.17-11.17-4.65
			c-2.4-0.88-4.27-2.59-3.8-5.36c0.62-3.59,4.64-4.98,7.6-6.15c4.07-1.62,8.3-2.8,12.62-3.48c2.51-0.39,6.45-1.56,8.43,0.61
			c2.25,2.45,1.14,8.41,1.16,11.4c0.02,2.57,1.17,17.56-5.63,14.07C105.4,140.16,105.31,139.42,105.7,139.12"/>
	</g>
	<g>
		<defs>
			<path id="SVGID_00000070119974204496665030000011154139298095014589_" d="M97.67,135.94c-5.62-3.17-11.24-6.34-16.86-9.5
				c-0.32-0.18-0.68-0.37-1.1-0.36c-0.35,0.01-0.65,0.16-0.91,0.3c-6.86,3.79-10.62,9.77-9.84,15.65c0.11,0.82,0.42,1.76,1.54,2.18
				c0.71,0.27,1.59,0.26,2.4,0.22c7.44-0.32,14.72-1.68,22.18-1.51c2.46,0.06,10.51,0.58,10.55-2.11
				C105.65,139.35,99.19,136.8,97.67,135.94"/>
		</defs>
		<clipPath id="SVGID_00000124858928081656426220000012086533205328623288_">
			<use xlink:href="#SVGID_00000070119974204496665030000011154139298095014589_"  style="overflow:visible;"/>
		</clipPath>
		<path style="clip-path:url(#SVGID_00000124858928081656426220000012086533205328623288_);fill:#FFD528;" d="M104.25,141.04
			c-4.48-0.9-9.55-2.89-13.67-4.85c-2.39-1.14-4.57-2.63-6.83-3.98c-0.88-0.52-3.23-2.16-4.16-2.16c-1.47,0-2.12,1.24-2.9,2.4
			c-1.09,1.62-3.13,4.92-3.06,6.99c0.06,1.97,0.92,1.5,2.8,1.44c1.42-0.05,3.8,0,5.2-0.18c4.94-0.64,19.24-1.28,24.02,0.46
			c1.53,0.56-0.65,1.04-2.06,1.57c-4.2,1.59-16.53,1.53-20.96,2.07c-3.13,0.38-7.37,1.97-10.48,0.95
			c-6.21-2.04-2.54-10.46-0.38-14.18c1.25-2.17,3.27-5.14,5.82-5.91c2.84-0.86,6.16,1.58,8.4,2.98c3.6,2.26,6.99,4.41,10.98,5.96
			c3.12,1.21,6.39,2.27,8.42,5.05C105.94,140.41,104.97,141.18,104.25,141.04"/>
	</g>
	<g>
		<defs>
			<path id="SVGID_00000173843087763483574260000015451357962843203994_" d="M92.4,145.12c-7.26,0.31-14.52,0.63-21.79,0.94
				c-0.41,0.02-0.87,0.05-1.12,0.25c-0.21,0.17-0.22,0.41-0.21,0.64c0.17,5.91,4.88,11.99,12.32,15.87
				c1.04,0.54,2.34,1.08,3.54,0.87c0.77-0.13,1.29-0.55,1.76-0.95c4.29-3.67,7.24-8.04,12.12-11.37c1.61-1.1,7.27-4.45,4.11-6.41
				C101.44,143.9,94.37,145.04,92.4,145.12"/>
		</defs>
		<clipPath id="SVGID_00000156559877142300503290000012188721922003841462_">
			<use xlink:href="#SVGID_00000173843087763483574260000015451357962843203994_"  style="overflow:visible;"/>
		</clipPath>
		<path style="clip-path:url(#SVGID_00000156559877142300503290000012188721922003841462_);fill:#FFD528;" d="M99.44,144.79
			l-0.04-0.43c-0.04-0.45,0.38-0.83,0.77-0.95c3.48-1.1,4.21,2.91,2.99,5.3c-1.28,2.5-3.53,4.72-5.33,6.89
			c-2.09,2.53-4.06,5.41-6.43,7.68c-3.68,3.51-9.05,2.53-13.15,0.27c-3.87-2.14-9.66-7.49-10.2-12.08c-0.2-1.66-0.64-6.74,0.96-5.86
			c2.86,1.58,6.15,8.77,8.47,11.03c1.42,1.38,2.98,2.56,4.84,3.28c2.81,1.08,4.67,0.81,6.79-1.29c2.65-2.63,4.96-5.65,7.48-8.4
			c1.13-1.23,3.85-3.3,3.16-5.05C99.67,145,99.46,145.05,99.44,144.79"/>
	</g>
	<g>
		<defs>
			<path id="SVGID_00000096768221766985872100000001520536851553538742_" d="M128.35,143.17c7.06-0.1,14.11-0.2,21.17-0.3
				c0.4,0,0.84-0.02,1.07-0.22c0.19-0.17,0.17-0.42,0.14-0.65c-0.8-6.08-5.52-13.03-13.19-17.25c-1.08-0.59-2.41-1.42-3.56-1.24
				c-0.73,0.12-2.33,1.56-2.75,1.96c-3.79,3.64-5.6,7.81-10.01,11.09c-1.45,1.08-6.62,4.35-3.33,6.47
				C119.66,144.16,126.44,143.2,128.35,143.17"/>
		</defs>
		<clipPath id="SVGID_00000004517824899024173990000017208590204886264459_">
			<use xlink:href="#SVGID_00000096768221766985872100000001520536851553538742_"  style="overflow:visible;"/>
		</clipPath>
		<path style="clip-path:url(#SVGID_00000004517824899024173990000017208590204886264459_);fill:#FFD528;" d="M134.46,123.25
			c5.05-0.95,9.94,4.29,12.52,8c1.92,2.76,6.84,10.76,2,12.91c-2.96,1.31-7.24,0.75-10.35,0.65c-4.38-0.14-8.49,0.58-12.8,1.23
			c-2.8,0.42-5.99,0.89-8.4-0.98c-1.96-1.52-2.68-3.82-1.24-5.91c0.77-1.13,2.59-1.22,3.26,0.09c2.18,4.24,9.65,1.92,13.41,1.61
			c2.36-0.2,4.56-0.06,6.92,0.09c1.1,0.07,5.78,0.32,6.69-0.48c1.95-1.72-3.15-8.27-4.48-9.71c-2.35-2.57-5.75-4.06-7.8-6.87
			C134.03,123.65,134.22,123.3,134.46,123.25"/>
	</g>
	<g>
		<defs>
			<path id="SVGID_00000080200628409412565940000006233749838279013005_" d="M123.67,151.84c5.53,3.23,11.06,6.47,16.59,9.7
				c0.32,0.18,0.67,0.38,1.1,0.37c0.35,0,0.65-0.15,0.92-0.29c6.97-3.7,10.9-9.64,10.29-15.52c-0.09-0.82-0.37-1.76-1.47-2.2
				c-0.7-0.28-1.58-0.28-2.39-0.25c-7.45,0.23-14.77,1.51-22.23,1.25c-2.45-0.09-10.49-0.71-10.61,1.98
				C115.79,148.33,122.17,150.97,123.67,151.84"/>
		</defs>
		<clipPath id="SVGID_00000163063665129013738510000013722314003324283559_">
			<use xlink:href="#SVGID_00000080200628409412565940000006233749838279013005_"  style="overflow:visible;"/>
		</clipPath>
		<path style="clip-path:url(#SVGID_00000163063665129013738510000013722314003324283559_);fill:#FFD528;" d="M148.16,143.24
			c1.98-0.01,3.86-1.24,5.54,0.41c1.6,1.58,0.86,4.57,0.45,6.47c-1.03,4.73-4.51,12.47-10.21,12.86c-3.21,0.22-6.46-1.32-9.29-2.62
			c-3.66-1.69-7.26-3.53-10.88-5.31c-2.69-1.32-6.03-2.54-7.33-5.48c-0.96-2.17-0.55-4.11,1.4-5.38c0.75-0.49,1.05,0.04,1.16,0.97
			c0.54,4.38,6.32,5.52,9.82,7.19c4.01,1.92,8.06,4.35,12.36,5.53c4.69,1.3,7.33-3.97,8.77-7.71c0.34-0.88,0.88-2.06,0.9-3.02
			c0.03-1.44,0.01-1.44-0.79-2.11c-0.75-0.62-3.17-0.57-3.9-1.44C145.84,143.24,147.68,143.24,148.16,143.24"/>
	</g>
	<g>
		<defs>
			<path id="SVGID_00000175313062734220231310000014870968467211816637_" d="M110.78,156.34c-0.75,4.83-1.5,9.67-2.25,14.5
				c-0.04,0.28-0.07,0.58,0.18,0.77c0.22,0.16,0.58,0.2,0.92,0.22c8.81,0.61,18.6-1.77,25.6-6.2c0.98-0.62,1.99-1.41,1.88-2.23
				c-0.07-0.52-0.6-0.92-1.12-1.28c-4.73-3.28-10.71-5.75-14.84-9.39c-1.36-1.19-5.38-5.34-8.83-3.5
				C110.47,150.23,110.98,155.03,110.78,156.34"/>
		</defs>
		<clipPath id="SVGID_00000119821869639580755840000008991823440122108822_">
			<use xlink:href="#SVGID_00000175313062734220231310000014870968467211816637_"  style="overflow:visible;"/>
		</clipPath>
		<path style="clip-path:url(#SVGID_00000119821869639580755840000008991823440122108822_);fill:#FFD528;" d="M115.03,150.13
			c-2.48-0.16-1.99,10.47-2.07,12c-0.07,1.34-0.41,3.1-0.27,4.43c-0.5,1.27-0.07,2.14,1.3,2.61c0.95-0.2,1.87-0.49,2.76-0.87
			c2.71-1.02,5.1-1.8,7.97-2.28c1.67-0.28,3.32-0.5,4.92-1.08c1.71-0.61,4.02-2.25,4.71-2.86l0.15-0.13
			c0.94-0.83,2.28-0.77,3.17,0.09l0.25,0.24c0.87,0.83,0.89,2.58-0.09,3.34c-2.16,1.68-4.43,3.06-7.04,3.94
			c-2.92,0.99-6.02,1.01-8.96,1.87c-3.59,1.04-10.04,4.84-13.26,0.79c-1.47-1.85-0.61-5.1-0.42-7.27c0.35-3.93,0.64-7.91,1.24-11.81
			c0.49-3.19,2.47-6.98,6.23-4.97C116.55,148.68,116.06,150.2,115.03,150.13"/>
	</g>
	<g>
		<defs>
			<path id="SVGID_00000077304771707439549600000012853249938101010841_" d="M131.07,121.9c-0.72-1.68-15.86-5.65-16.53-4.78
				c-0.66,0.87-3.43,20.03-2.88,20.93c0.86,1.39,1.7,3.23,5.24,0.65C120.43,136.12,131.88,123.78,131.07,121.9"/>
		</defs>
		<clipPath id="SVGID_00000090995259304236079480000014375443948011217035_">
			<use xlink:href="#SVGID_00000077304771707439549600000012853249938101010841_"  style="overflow:visible;"/>
		</clipPath>
		<path style="clip-path:url(#SVGID_00000090995259304236079480000014375443948011217035_);fill:#FFD528;" d="M125.75,118.71
			c-1.84,0.63-3.59,0.24-5.51,0.19c-1.22-0.03-3.76-0.32-4.59,0.92c-0.4,0.6,0.01,2.33,0,3.05c-0.05,2.43-0.77,4.65-1.06,7.07
			c-0.39,3.23-2.36,6.05,0.73,8.52c1.28,1.02,2.09,3.01,0.42,3.14c-2.94,0.22-5.09-2.25-5.45-5.04c-0.33-2.56,0.58-5.43,0.84-7.98
			c0.27-2.67,0.24-5.34,0.45-8c0.21-2.56,1.04-4.66,3.83-5.09c3.16-0.49,8.41,0.22,10.42,2.9L125.75,118.71"/>
	</g>
	<g>
		<defs>
			<path id="SVGID_00000047036057793629341290000002464461223293187204_" d="M106.13,171.63c1.22-0.4,4.31-21.53,3.3-22.06
				c-1.01-0.53-3.38-3.02-5.51-0.15c-2.13,2.87-5.37,4.31-8.67,7.53c-3.29,3.22-8.28,7.67-7.17,8.97
				C89.2,167.23,103.72,172.43,106.13,171.63"/>
		</defs>
		<clipPath id="SVGID_00000003816652938167660350000004300374919545040032_">
			<use xlink:href="#SVGID_00000047036057793629341290000002464461223293187204_"  style="overflow:visible;"/>
		</clipPath>
		<path style="clip-path:url(#SVGID_00000003816652938167660350000004300374919545040032_);fill:#FFD528;" d="M106.11,148.11
			c1.6-3.31,4.4,0.01,4.9,2.14c1.22,5.17,0.85,11.24-0.65,16.31c-1.08,3.67-3.25,6.32-7.36,5.88c-4.04-0.43-12.88-2.94-14.51-6.98
			c-0.33-0.8-0.1-1.95,0.94-2.12c2.46-0.41,3.99,0.72,6.22,1.71c1.75,0.78,7.57,3.87,9.47,2.27c1.87-1.57,3.91-18.53,1.42-18.41
			C106.1,148.93,105.95,148.43,106.11,148.11L106.11,148.11z"/>
	</g>
	<path class="st36" d="M132.88,158.17c-2.51,0-4.9-1.35-6.15-3.61c-0.22-0.39-0.38-0.8-0.52-1.23c2.68,1.57,5.37,3.14,8.05,4.71
		C133.8,158.12,133.34,158.17,132.88,158.17 M128.51,144.93c-0.68,0-1.36-0.01-2.04-0.03c-0.42-0.02-1-0.05-1.68-0.07
		c-0.17-0.46-0.37-0.91-0.59-1.36c1.75-0.11,3.37-0.29,4.15-0.3c4.43-0.06,8.86-0.13,13.29-0.19c0.05,0.37,0.1,0.74,0.13,1.11
		C137.35,144.47,132.95,144.93,128.51,144.93 M119.36,137.93c-0.27-0.2-0.55-0.4-0.83-0.6c3.09-2.79,8.11-8.17,10.78-11.84
		c0.37,0.26,0.74,0.52,1.1,0.79c-3.26,3.44-5.11,7.23-9.19,10.27C120.81,136.86,120.1,137.34,119.36,137.93"/>
	<path class="st37" d="M124.99,141.76c-0.67,0-1.33-0.04-1.94-0.15c-0.05-0.07-0.1-0.13-0.15-0.2c-1-1.32-2.2-2.49-3.54-3.49
		c0.73-0.58,1.45-1.07,1.86-1.37c4.08-3.04,5.93-6.83,9.19-10.27c1.48,1.1,2.9,2.33,4.19,3.65c-2.16,1.28-4.43,2.98-6,4.82
		c-0.13,0.15-0.03,0.37,0.14,0.37c0.03,0,0.07-0.01,0.11-0.03c2.19-1.12,4.37-2.95,6.12-4.77c2.94,3.11,5.22,6.75,6.25,10.68
		c-0.64-0.02-1.17-0.05-1.45-0.07c-1.52-0.1-2.97-0.19-4.44-0.19c-0.82,0-1.63,0.03-2.47,0.1
		C130.84,141.02,127.75,141.76,124.99,141.76 M133.44,133.92c-2.44,1.65-5.34,2.83-7.62,4.69c-0.16,0.13-0.02,0.37,0.15,0.37
		c0.01,0,0.03,0,0.04,0c2.89-0.67,5.43-2.97,7.47-4.99L133.44,133.92"/>
	<path class="st37" d="M137.36,156.52c-2.92-1.24-5.75-2.83-8.55-4.18c-0.9-0.43-1.94-0.82-3.01-1.24c-0.12-1.28-0.14-2.58-0.35-3.8
		c-0.15-0.86-0.37-1.68-0.66-2.47c0.68,0.03,1.26,0.06,1.68,0.07c0.68,0.02,1.36,0.03,2.04,0.03c4.44,0,8.84-0.46,13.25-0.84
		c0.17,2.06-0.02,4.17-0.65,6.31c-0.36-0.07-0.71-0.15-1.07-0.23c-1.6-0.37-3.2-0.85-4.84-0.99c-0.01,0-0.02,0-0.03,0
		c-0.31,0-0.44,0.47-0.16,0.62c1.64,0.88,3.66,1.45,5.71,1.76C140.01,153.39,138.89,155.24,137.36,156.52"/>
	<path class="st37" d="M118.53,137.33c-1.52-1.04-3.18-1.89-4.89-2.55c0.1-1.5,0.76-3.11,0.96-4.83c0.29-2.41,1.01-4.64,1.06-7.07
		c0.01-0.64-0.31-2.05-0.11-2.79c2.53,0.33,4.91,0.93,6.9,1.72c0.56,0.22,1.12,0.46,1.67,0.72c-0.59,0.8-1.4,1.44-2.02,2.22
		c-0.77,0.97-1.46,1.99-1.69,3.22c-0.06,0.3,0.21,0.65,0.5,0.65c0.11,0,0.21-0.05,0.3-0.16c0.86-1.04,1.46-2.26,2.21-3.38
		c0.51-0.76,0.95-1.49,1.14-2.34c1.61,0.77,3.21,1.7,4.75,2.76C126.65,129.16,121.63,134.54,118.53,137.33"/>
	<path class="st38" d="M124.19,143.47c-0.32-0.64-0.7-1.26-1.14-1.86c0.62,0.11,1.27,0.15,1.94,0.15c2.76,0,5.85-0.74,7.87-0.92
		c0.84-0.07,1.66-0.1,2.47-0.1c1.47,0,2.93,0.09,4.44,0.19c0.29,0.02,0.81,0.05,1.45,0.07c0.17,0.65,0.3,1.31,0.4,1.98
		c-4.43,0.06-8.86,0.13-13.29,0.19C127.56,143.18,125.94,143.36,124.19,143.47"/>
	<path class="st38" d="M134.26,158.03c-2.68-1.57-5.37-3.14-8.05-4.71c-0.22-0.72-0.34-1.47-0.41-2.23
		c1.07,0.42,2.11,0.82,3.01,1.24c2.8,1.34,5.63,2.93,8.55,4.18c-0.82,0.68-1.75,1.19-2.81,1.45
		C134.46,157.99,134.36,158.01,134.26,158.03"/>
	<path class="st36" d="M111.65,134.1c-0.2-0.06-0.4-0.12-0.6-0.17c-0.2-0.06-0.4-0.11-0.61-0.15c-0.04-0.68-0.09-1.28-0.09-1.7
		c0-0.09,0-0.17,0.01-0.24c0.31-4.01,0.62-8.03,0.92-12.04c0.85,0.01,1.7,0.04,2.54,0.11C113.09,123.56,112.07,129.96,111.65,134.1
		 M98.12,133.68c-0.86,0-1.71-0.05-2.56-0.15c-1.59-0.19-2.82-1.42-2.65-3C94.72,131.54,96.49,132.57,98.12,133.68"/>
	<path class="st37" d="M100.1,133.64c-2.13-1.73-4.57-3.45-6.69-4.77c2.13-5.37,7.52-7.99,13.44-8.79c0.18,1.21-0.05,2.79-0.02,3.87
		c0.08,2.5,0.18,5,0.33,7.5c0.04,0.63,0.11,1.28,0.17,1.93c-0.4-0.02-0.81-0.03-1.22-0.03c-1.31,0-2.62,0.09-3.93,0.17
		C101.49,133.56,100.8,133.6,100.1,133.64"/>
	<path class="st37" d="M111.82,134.15c-0.06-0.02-0.11-0.04-0.17-0.05c0.42-4.14,1.44-10.54,2.17-14.2c0.01,0,0.03,0,0.04,0
		C113.18,123.58,112.25,130,111.82,134.15"/>
	<path class="st38" d="M110.45,133.13c-0.7-0.16-1.4-0.27-2.11-0.34c-0.42-0.45-0.71-0.75-1.13-1.2c-0.18-2.77-0.29-5.53-0.38-8.3
		c-0.03-1.08,0.19-2.66,0.02-3.87c1.46-0.2,2.95-0.29,4.44-0.27c0,0,0,0,0,0c-0.31,4.01-0.62,8.03-0.92,12.04
		c-0.01,0.07-0.01,0.15-0.01,0.24C110.36,131.84,110.41,132.45,110.45,133.13 M97.79,132.94c0,0,0.37,0,0.32,0
		c-1.62-1.12-3.39-2.14-5.2-3.14c0.02-0.17,0.05-0.34,0.1-0.52c0.12-0.4,0.25-0.79,0.39-1.16c2.12,1.32,4.56,3.04,6.69,4.77
		c-0.62,0.03-1.24,0.05-1.86,0.05"/>
	<path class="st38" d="M113.64,134.78c-0.6-0.23-1.21-0.44-1.82-0.63c0.43-4.15,1.36-10.58,2.04-14.24
		c0.57,0.05,1.13,0.11,1.68,0.18c-0.2,0.74,0.12,2.15,0.11,2.79c-0.05,2.43-0.77,4.65-1.06,7.07
		C114.4,131.67,113.74,133.28,113.64,134.78"/>
	<path class="st39" d="M132.22,163.62c-2.77-1.03-5.42-2.91-7.4-4.99c-0.21-0.23-0.01-0.55,0.25-0.55c0.05,0,0.11,0.01,0.16,0.05
		c2.61,1.48,5.32,3.16,7.7,5.03C132.71,163.31,132.47,163.47,132.22,163.62"/>
	<path class="st40" d="M133.39,164c-0.02,0-0.03,0-0.05-0.01c-0.37-0.11-0.75-0.23-1.12-0.37c0.25-0.16,0.48-0.31,0.71-0.46
		c0.21,0.16,0.41,0.33,0.62,0.5C133.7,163.78,133.56,164,133.39,164"/>
	<path class="st41" d="M128.59,165.29c-0.71-0.57-1.37-1.21-2-1.87c-0.98-1.03-2.05-2.13-2.63-3.45c-0.09-0.19,0.06-0.45,0.26-0.45
		c0.05,0,0.1,0.02,0.16,0.06c1.16,0.85,2.04,2.04,2.97,3.12c0.67,0.78,1.34,1.55,1.95,2.38
		C129.06,165.16,128.83,165.23,128.59,165.29"/>
	<path class="st42" d="M129.87,166.18c-0.45-0.27-0.87-0.57-1.28-0.89c0.24-0.07,0.47-0.13,0.7-0.21c0.24,0.33,0.47,0.66,0.68,1.01
		L129.87,166.18"/>
	<path class="st43" d="M117.32,166.04c-0.14,0-0.26-0.08-0.29-0.26c-0.53-2.75-0.29-5.58-0.64-8.35l0.24-0.06
		c0.67,2.73,1.49,5.49,1.09,8.33C117.68,165.91,117.49,166.04,117.32,166.04"/>
	<path class="st27" d="M102.7,158.05c-0.9,2.55-1.83,5.46-3.82,7.4c-0.2,0.19-0.6-0.02-0.49-0.3c1.04-2.54,2.87-4.73,4.07-7.21
		L102.7,158.05L102.7,158.05z"/>
	<path class="st39" d="M95.96,162.81l-0.23-0.19c1.31-1.82,2.96-3.4,4.32-5.18l0.16,0.1C99.06,159.43,97.76,161.46,95.96,162.81"/>
	<path class="st41" d="M84.13,156.84c-0.22,0-0.35-0.28-0.18-0.47c1.84-2.16,4.55-3.71,6.84-5.35c0.04-0.03,0.08-0.04,0.11-0.04
		c0.18,0,0.33,0.27,0.16,0.41c-2.13,1.86-4.24,4.12-6.79,5.42C84.22,156.83,84.18,156.84,84.13,156.84"/>
	<path class="st39" d="M80.49,152.51c-0.26,0-0.35-0.41-0.11-0.52c2.31-0.98,4.86-1.66,7.26-2.41l0.07,0.17
		c-2.02,1.4-4.72,2.59-7.2,2.75C80.5,152.5,80.49,152.51,80.49,152.51"/>
	<path class="st27" d="M83.87,148.85c-1.34,0.35-2.65,0.72-4.03,0.93l-0.06-0.24c1.3-0.5,2.62-0.84,3.96-1.21
		C84.07,148.25,84.2,148.76,83.87,148.85L83.87,148.85z"/>
	<path class="st27" d="M88.3,135.75c-1.28-1.34-3.7-1.97-5.41-2.65c-1.42-0.57-2.89-1.1-4.22-1.87c-0.16-0.09-0.09-0.41,0.11-0.37
		c1.9,0.3,3.68,1.1,5.4,1.92c1.53,0.72,3.31,1.42,4.13,2.96L88.3,135.75L88.3,135.75z"/>
	<path class="st39" d="M85.24,136.88c-1.59-0.41-3.43-0.51-4.9-1.26c-0.23-0.12-0.07-0.41,0.13-0.43c0.13-0.01,0.26-0.02,0.4-0.02
		c1.55,0,3.14,0.79,4.51,1.41L85.24,136.88"/>
	<path class="st27" d="M103.48,131.45c-0.45-1.04-1.03-2.04-1.65-2.98c-0.62-0.93-1.4-1.82-1.82-2.87
		c-0.11-0.26,0.14-0.55,0.42-0.39c2.04,1.15,2.97,3.92,3.62,6.01C104.14,131.55,103.62,131.77,103.48,131.45L103.48,131.45z"/>
	<path class="st39" d="M124.56,122.73c-0.15-0.07-0.3-0.14-0.45-0.21c0.14-0.19,0.27-0.39,0.38-0.6l0.17,0.05
		C124.65,122.24,124.62,122.49,124.56,122.73"/>
	<path class="st44" d="M120.91,128.61c-0.29,0-0.56-0.35-0.5-0.65c0.23-1.23,0.92-2.25,1.69-3.22c0.62-0.78,1.43-1.42,2.02-2.22
		c0.15,0.07,0.3,0.14,0.45,0.21c-0.19,0.85-0.64,1.58-1.14,2.34c-0.75,1.12-1.35,2.34-2.21,3.38
		C121.12,128.56,121.01,128.61,120.91,128.61"/>
	<path class="st27" d="M135.6,129.67c-1.84,2.03-4.28,4.17-6.74,5.43c-0.23,0.12-0.4-0.16-0.25-0.34c1.77-2.08,4.44-3.97,6.84-5.3
		L135.6,129.67"/>
	<path class="st45" d="M125.98,138.98c-0.18,0-0.31-0.24-0.15-0.37c2.28-1.86,5.17-3.04,7.62-4.69l0.05,0.07
		c-2.04,2.02-4.58,4.32-7.47,4.99C126.01,138.98,125.99,138.98,125.98,138.98"/>
	<path class="st41" d="M144.24,151.82c-1.13,0-2.33-0.09-3.53-0.27c0.12-0.32,0.23-0.64,0.33-0.96c0.02-0.07,0.04-0.13,0.06-0.2
		c1.45,0.3,2.91,0.57,4.34,0.98c0.24,0.07,0.16,0.4-0.07,0.42C145,151.81,144.63,151.82,144.24,151.82"/>
	<path class="st45" d="M140.71,151.09c-2.04-0.31-4.07-0.88-5.71-1.76c-0.28-0.15-0.15-0.62,0.16-0.62c0.01,0,0.02,0,0.03,0
		c1.64,0.15,3.24,0.62,4.84,0.99c0.36,0.08,0.71,0.16,1.07,0.23c-0.02,0.06-0.04,0.13-0.06,0.2
		C140.95,150.45,140.84,150.77,140.71,151.09"/>
	<path class="st27" d="M144.4,154.61c-1.99-0.22-4.53-0.4-6.22-1.53c-0.2-0.13-0.12-0.49,0.14-0.47c0.98,0.09,1.94,0.48,2.89,0.75
		c1.08,0.31,2.16,0.57,3.26,0.78C144.73,154.2,144.66,154.63,144.4,154.61L144.4,154.61z"/>
</g>
</svg>
