<?xml version="1.0" encoding="utf-8"?>
<!-- Generator: Adobe Illustrator 27.5.0, SVG Export Plug-In . SVG Version: 6.00 Build 0)  -->
<svg version="1.1" id="Layer_1" xmlns="http://www.w3.org/2000/svg" xmlns:xlink="http://www.w3.org/1999/xlink" x="0px" y="0px"
	 viewBox="0 0 250 250" style="enable-background:new 0 0 250 250;" xml:space="preserve">
<style type="text/css">
	.st0{fill:#2C6633;}
	.st1{clip-path:url(#SVGID_00000103952916589388851420000009067160522156017308_);fill:#2E582A;}
	.st2{fill:#3A1611;}
	.st3{fill:#F68B27;}
	.st4{clip-path:url(#SVGID_00000139285829781719844160000002865628850215346340_);fill:#F57E20;}
	.st5{clip-path:url(#SVGID_00000139285829781719844160000002865628850215346340_);fill:#F37324;}
	.st6{clip-path:url(#SVGID_00000139285829781719844160000002865628850215346340_);fill:#F16A24;}
	.st7{clip-path:url(#SVGID_00000139285829781719844160000002865628850215346340_);fill:#F89A2E;}
	.st8{clip-path:url(#SVGID_00000139285829781719844160000002865628850215346340_);fill:#F7932B;}
	.st9{clip-path:url(#SVGID_00000139285829781719844160000002865628850215346340_);fill:#F68B28;}
	.st10{clip-path:url(#SVGID_00000139285829781719844160000002865628850215346340_);fill:#F68523;}
	.st11{clip-path:url(#SVGID_00000139285829781719844160000002865628850215346340_);fill:#F47523;}
	.st12{clip-path:url(#SVGID_00000139285829781719844160000002865628850215346340_);fill:#F36B24;}
	.st13{clip-path:url(#SVGID_00000139285829781719844160000002865628850215346340_);fill:#F26224;}
	.st14{clip-path:url(#SVGID_00000139285829781719844160000002865628850215346340_);fill:#F15A25;}
	.st15{clip-path:url(#SVGID_00000139285829781719844160000002865628850215346340_);fill:#F37024;}
	.st16{clip-path:url(#SVGID_00000139285829781719844160000002865628850215346340_);fill:#FAA43B;}
	.st17{fill:#F79129;}
	.st18{fill:#F68521;}
	.st19{fill:#F47B20;}
	.st20{fill:#F37224;}
	.st21{fill:#F99E2E;}
	.st22{fill:#F8972E;}
	.st23{fill:#F7902B;}
	.st24{fill:#F68B28;}
	.st25{fill:#FAA94B;}
	.st26{fill:#F9A147;}
	.st27{fill:#FBAB4C;}
	.st28{fill:#35773B;}
	.st29{fill:#347137;}
</style>
<g>
	<path class="st0" d="M134.3,80.39c-2,4.88-2.98,10.22-2.21,15.43c0.29,1.99,1.38,4.41,0.97,6.43c-0.51,2.53-2.23,4.36-1.85,7.15
		c0.5,3.67,5.92,6.31,8.75,2.84c1.34-1.63,2.69-3.26,4.04-4.88c3.23-2,6.79-3.69,9.8-5.58c5.2-3.26,10.13-7.57,12.41-13.15
		c1.9-4.63,1.63-9.42,0.84-14.24c-0.75-4.58-1.82-9.18-0.35-13.73c1.15-3.56-3.46-5.23-6.27-3.98
		C149.32,61.66,138.82,69.35,134.3,80.39"/>
	<g>
		<defs>
			<path id="SVGID_1_" d="M134.3,80.39c-2,4.88-2.98,10.22-2.21,15.43c0.29,1.99,1.38,4.41,0.97,6.43
				c-0.51,2.53-2.23,4.36-1.85,7.15c0.5,3.67,5.92,6.31,8.75,2.84c1.34-1.63,2.69-3.26,4.04-4.88c3.23-2,6.79-3.69,9.8-5.58
				c5.2-3.26,10.13-7.57,12.41-13.15c1.9-4.63,1.63-9.42,0.84-14.24c-0.75-4.58-1.82-9.18-0.35-13.73c1.15-3.56-3.46-5.23-6.27-3.98
				C149.32,61.66,138.82,69.35,134.3,80.39"/>
		</defs>
		<clipPath id="SVGID_00000031921419269085783200000011386262406965500552_">
			<use xlink:href="#SVGID_1_"  style="overflow:visible;"/>
		</clipPath>
		<path style="clip-path:url(#SVGID_00000031921419269085783200000011386262406965500552_);fill:#2E582A;" d="M133.45,100.94
			c0,0,0,0.24,0,0.19c0.76-1.12,1.54-2.25,2.33-3.4c0.43-0.63,0.87-1.26,1.3-1.89c-0.06,0.27-0.11,0.55-0.15,0.82
			c-0.06,0.44,0.42,0.78,0.86,0.78c0.14,0,0.28-0.03,0.39-0.11c2.12-1.38,3.1-3.25,4.52-5.27c2-2.86,4.04-5.7,6.06-8.55
			c3.65-5.14,6.88-10.25,9.34-15.98c0.12-0.27-0.15-0.48-0.42-0.48c-0.1,0-0.2,0.03-0.28,0.1c-0.48,0.44-0.95,0.88-1.41,1.33
			c0.84-1.2,1.68-2.41,2.51-3.62c1.76-2.57,3.78-5.64,6.15-8.29c1.41,0.48,2.51,1.52,2.52,3c0,0.34-0.06,0.7-0.18,1.08
			c-0.53,1.65-0.73,3.31-0.73,4.97c0,2.91,0.61,5.84,1.08,8.76c0.35,2.15,0.6,4.29,0.6,6.41c0,2.64-0.39,5.26-1.44,7.83
			c-1.07,2.61-2.72,4.94-4.7,7.02c-1.4-0.28-2.76-0.47-4.01-0.55c-0.45-0.03-0.88-0.04-1.3-0.04c-6.36,0-9.63,3.03-15.36,4.99
			c-2.52,0.87-5.09,1.21-7.69,1.21"/>
	</g>
	<path class="st2" d="M131.25,107.06c2.59-5.98,3.93-11.02,1.96-17.46c-1.47-4.8-5.54-11.73-11.69-11.75
		c-1.75,0-2.61,1.47-2.37,2.91c0.63,3.92,4.67,7.61,6.48,11.2c2.02,4.02,3.78,9.96,2.89,14.4
		C128.17,108.05,130.57,108.63,131.25,107.06L131.25,107.06z"/>
	<path class="st3" d="M95.81,98.24c-4.46,1.55-8.29,4.39-11.56,7.62c-10.79,10.67-15.8,25.97-14.21,40.56
		c1.59,14.6,9.51,28.35,21.02,38.35c4.09,3.56,8.67,6.7,13.82,8.74c7.76,3.08,16.38,3.53,24.8,3.94
		c11.81,0.57,24.21,1.04,34.85-3.76c10.35-4.67,17.75-13.95,21.52-24.08c3.78-10.13,6.73-23.79,5.96-34.49
		c-0.88-12.23-2.95-21.47-11.87-30.46c-4.94-4.97-15.38-9.1-22.64-9.55c-7.24-0.44-10.55,2.86-16.66,4.95
		c-7.1,2.43-14.53,0.73-22.06-0.98C111.12,97.35,103.38,95.61,95.81,98.24"/>
	<g>
		<defs>
			<path id="SVGID_00000000181150163552610170000012366653111097723037_" d="M95.81,98.24c-4.46,1.55-8.29,4.39-11.56,7.62
				c-10.79,10.67-15.8,25.97-14.21,40.56c1.59,14.6,9.51,28.35,21.02,38.35c4.09,3.56,8.67,6.7,13.82,8.74
				c7.76,3.08,16.38,3.53,24.8,3.94c11.81,0.57,24.21,1.04,34.85-3.76c10.35-4.67,17.75-13.95,21.52-24.08
				c3.78-10.13,6.73-23.79,5.96-34.49c-0.88-12.23-2.95-21.47-11.87-30.46c-4.94-4.97-15.38-9.1-22.64-9.55
				c-7.24-0.44-10.55,2.86-16.66,4.95c-7.1,2.43-14.53,0.73-22.06-0.98C111.12,97.35,103.38,95.61,95.81,98.24"/>
		</defs>
		<clipPath id="SVGID_00000031886883047604985440000017830029367455528336_">
			<use xlink:href="#SVGID_00000000181150163552610170000012366653111097723037_"  style="overflow:visible;"/>
		</clipPath>
		<path style="clip-path:url(#SVGID_00000031886883047604985440000017830029367455528336_);fill:#F57E20;" d="M158.46,165.27
			c-3.19-1.33-5.6-3.18-6.4-5.09c-0.8-1.88-3.14-2.98-5.34-2.98c-0.92,0-1.81,0.19-2.56,0.59c-7.93,4.25-18.9,6.9-29.61,6.9
			c-7.95,0-15.77-1.46-22.11-4.83c-1.6-3.17-2.92-6.43-3.95-9.64c-3.52-10.97-4.07-23.23,0.22-34.1c0.74-1.87,1.69-3.69,2.86-5.39
			c-1.24,5.46-0.63,11.32,2.36,16.76c1.84,3.36,4.19,6.2,6.9,8.56c0.06,0.86,0.15,1.72,0.29,2.58c-0.51,5.8,0.2,11.57,4.21,16.44
			c3.43,4.16,8.66,6.83,14.07,6.83c2.11,0,4.25-0.41,6.32-1.29c6.92-2.94,10.14-9.42,10.79-16.13c2.67-0.41,5.3-1.02,7.85-1.8
			c0.47-0.14,0.96-0.21,1.47-0.21c2.53,0,5.32,1.68,5.76,4.04c0.93,4.99,5.02,8.37,9.86,10.19
			C160.55,159.59,159.52,162.46,158.46,165.27"/>
		<path style="clip-path:url(#SVGID_00000031886883047604985440000017830029367455528336_);fill:#F37324;" d="M112.25,180.11
			c-1.27,0-2.53-0.03-3.78-0.09c-6.75-5.27-12.18-12.49-16.03-20.15c6.34,3.37,14.16,4.83,22.11,4.83c10.72,0,21.68-2.66,29.61-6.9
			c0.75-0.4,1.64-0.59,2.56-0.59c2.21,0,4.55,1.1,5.34,2.98c0.81,1.91,3.22,3.76,6.4,5.09c-0.55,1.46-1.1,2.9-1.64,4.33
			c-0.42,1.1-0.55,2.23-0.45,3.34c-0.13-0.17-0.25-0.33-0.35-0.5c-0.8-1.38-2.59-2.11-4.32-2.11c-1.04,0-2.07,0.27-2.85,0.81
			C141.19,176.47,126.2,180.11,112.25,180.11"/>
		<path style="clip-path:url(#SVGID_00000031886883047604985440000017830029367455528336_);fill:#F16A24;" d="M141.8,195.46
			c-0.48-0.63-1.07-1.16-1.77-1.6c-1.31-1.06-2.69-1.73-4.22-2.43c-3.46-1.58-7-2.87-10.66-3.96c-5.89-1.75-11.53-3.51-16.39-7.24
			c-0.1-0.07-0.19-0.15-0.29-0.22c1.25,0.06,2.51,0.09,3.78,0.09c13.95,0,28.94-3.64,36.6-8.98c0.78-0.54,1.8-0.81,2.85-0.81
			c1.73,0,3.52,0.73,4.32,2.11c0.1,0.17,0.22,0.34,0.35,0.5c0.36,4.02,3.77,7.82,7.88,8.88c0.5,0.13,1,0.22,1.49,0.28
			c-3.32,4.32-7.12,8.34-12.4,10.61C149.58,194.31,145.7,194.91,141.8,195.46"/>
		<path style="clip-path:url(#SVGID_00000031886883047604985440000017830029367455528336_);fill:#F89A2E;" d="M183.39,155.49
			c0.81-3.74,1.36-7.51,1.55-11.3c6.13-8.59-1.39-22.4-7.89-28.88c-0.74-0.73-1.54-1.46-2.39-2.16c-1.02-1.08-2.1-2.11-3.25-3.07
			c-2.53-2.11-8.28-5.99-13.07-6.68c-2.12-0.85-4.31-1.53-6.5-2.05c-2.4-0.58-4.8-0.83-7.25-0.83c-0.53,0-1.07,0.01-1.6,0.04
			c-1.19,0.05-2.3,0.17-3.35,0.17c-0.34,0-0.68-0.01-1.01-0.04c0.74-0.17,1.47-0.37,2.21-0.63c5.73-1.96,9-4.99,15.36-4.99
			c0.42,0,0.85,0.01,1.3,0.04c7.26,0.45,17.7,4.58,22.64,9.55c8.92,8.99,10.99,18.24,11.87,30.46c0.08,1.15,0.12,2.33,0.12,3.54
			c0,3.73-0.37,7.7-1.01,11.68c-0.3,0.2-0.6,0.43-0.88,0.68C188.19,152.84,185.88,154.33,183.39,155.49"/>
		<path style="clip-path:url(#SVGID_00000031886883047604985440000017830029367455528336_);fill:#F7932B;" d="M181.85,161.59
			c0.58-2.02,1.1-4.05,1.54-6.09c2.49-1.16,4.8-2.66,6.85-4.46c0.29-0.25,0.58-0.48,0.88-0.68c-0.27,1.66-0.58,3.33-0.93,4.98
			c-0.43-0.07-0.86-0.11-1.28-0.11c-2.11,0-4.08,0.96-5.12,3.23C183.24,159.62,182.59,160.67,181.85,161.59"/>
		<path style="clip-path:url(#SVGID_00000031886883047604985440000017830029367455528336_);fill:#F68B28;" d="M177.21,175.22
			c0.05-0.11,0.09-0.23,0.14-0.34c1.66-4.38,3.22-8.81,4.5-13.29c0.74-0.92,1.39-1.96,1.94-3.14c1.05-2.27,3.01-3.23,5.12-3.23
			c0.42,0,0.85,0.04,1.28,0.11c-0.67,3.12-1.48,6.19-2.37,9.09c-1.93,0.16-3.63,1.19-4.31,3.35
			C182.38,171.36,180.06,173.75,177.21,175.22"/>
		<path style="clip-path:url(#SVGID_00000031886883047604985440000017830029367455528336_);fill:#F68523;" d="M143.32,197.77
			c-0.24-0.45-0.54-0.87-0.9-1.25c-0.07-0.15-0.15-0.32-0.23-0.5c-0.12-0.2-0.25-0.39-0.39-0.57c3.9-0.55,7.78-1.15,11.54-2.76
			c5.28-2.27,9.08-6.28,12.4-10.61c0.45,0.05,0.89,0.08,1.33,0.08c4.57,0,8.45-2.89,10.14-6.95c2.85-1.46,5.17-3.86,6.3-7.46
			c0.68-2.16,2.38-3.19,4.31-3.35c-0.56,1.81-1.15,3.55-1.77,5.2c-3.78,10.13-11.17,19.41-21.52,24.08
			C157.95,196.66,150.69,197.61,143.32,197.77"/>
		<path style="clip-path:url(#SVGID_00000031886883047604985440000017830029367455528336_);fill:#F47523;" d="M91.56,110.72
			c1.14-5.01,3.84-9.68,7.7-13.39c1.66-0.31,3.32-0.44,4.99-0.44c2.7,0,5.41,0.34,8.11,0.83c-0.01,0.01-0.01,0.02-0.02,0.03
			c-0.52,0.47-1.09,0.9-1.69,1.29c-1.27,0.73-2.92,1.09-4.32,1.52c-2.84,0.87-5.21,1.96-7.74,3.46
			C95.75,105.71,93.39,108.06,91.56,110.72"/>
		<path style="clip-path:url(#SVGID_00000031886883047604985440000017830029367455528336_);fill:#F36B24;" d="M92.43,159.86
			c-3.1-1.64-5.84-3.74-8.08-6.35c-5.28-6.14-10.5-15.6-13.07-24.75c2.15-8.53,6.53-16.55,12.97-22.92
			c3.27-3.23,7.1-6.07,11.56-7.62c1.15-0.4,2.3-0.7,3.46-0.91c-3.86,3.71-6.57,8.39-7.7,13.39c-1.17,1.7-2.12,3.53-2.86,5.39
			c-4.29,10.87-3.74,23.13-0.22,34.1C89.52,153.44,90.84,156.69,92.43,159.86"/>
		<path style="clip-path:url(#SVGID_00000031886883047604985440000017830029367455528336_);fill:#F26224;" d="M108.47,180.02
			c-9.27-0.46-17.71-2.67-22.72-7.23c-3.94-3.59-8.76-8.74-12.91-14.29c-1.39-3.92-2.34-7.96-2.79-12.08
			c-0.19-1.77-0.29-3.55-0.29-5.32c0-4.14,0.51-8.29,1.53-12.33c2.57,9.15,7.79,18.6,13.07,24.75c2.24,2.6,4.98,4.7,8.08,6.35
			C96.28,167.52,101.72,174.75,108.47,180.02"/>
		<path style="clip-path:url(#SVGID_00000031886883047604985440000017830029367455528336_);fill:#F15A25;" d="M131.76,197.55
			c-0.7-0.03-1.39-0.06-2.08-0.1c-8.42-0.41-17.04-0.86-24.8-3.94c-5.15-2.04-9.73-5.18-13.82-8.74
			c-8.26-7.18-14.67-16.3-18.22-26.27c4.15,5.55,8.97,10.7,12.91,14.29c5.01,4.56,13.45,6.77,22.72,7.23
			c0.1,0.07,0.19,0.15,0.29,0.22c4.86,3.73,10.5,5.49,16.39,7.24c3.67,1.09,7.2,2.38,10.66,3.96c1.53,0.7,2.91,1.36,4.22,2.43
			c0.7,0.43,1.29,0.97,1.77,1.6c-2.78,0.39-5.57,0.75-8.34,1.42C132.83,197.04,132.26,197.26,131.76,197.55"/>
		<path style="clip-path:url(#SVGID_00000031886883047604985440000017830029367455528336_);fill:#F37024;" d="M140.88,197.8
			c-3.04,0-6.1-0.11-9.12-0.25c0.5-0.29,1.07-0.51,1.71-0.67c2.76-0.68,5.56-1.04,8.34-1.42c0.14,0.18,0.27,0.37,0.39,0.57
			c0.08,0.18,0.16,0.35,0.23,0.5c0.37,0.38,0.67,0.8,0.9,1.25C142.51,197.79,141.7,197.8,140.88,197.8"/>
		<path style="clip-path:url(#SVGID_00000031886883047604985440000017830029367455528336_);fill:#FAA43B;" d="M148.67,170.29
			c6.11-8.45,6.28-19.6,5.26-29.44c-1.11-10.72-4.64-20.98-10.23-30.39c-5.09-8.58-12.18-16.25-20.34-22.42
			c-8.21-6.21-18.78-12.25-29.42-13.65c-1.87-0.25-3.94,0.23-5.15,1.69c-3.55,4.3,0.79,7.47,4.89,9.12
			c4.86,1.94,9.67,3.76,14.25,6.27c8.8,4.83,16.64,11.24,22.71,18.9c6.49,8.21,10.87,17.72,13.04,27.72
			c2.26,10.41,0.33,20.68,1.39,31.1C145.22,170.69,147.62,171.75,148.67,170.29L148.67,170.29z"/>
	</g>
	<path class="st17" d="M127.99,145.13c-10.05,0-19.93-2.82-27.17-9.09c-0.02-0.36-0.04-0.73-0.05-1.09
		c-0.16-7.47,2.72-15.65,10.08-19.51c2.67-1.41,5.13-2.02,7.38-2.02c12.21,0,18.23,18.23,18.38,28.05c0.02,1-0.02,2.01-0.12,3.01
		C133.69,144.91,130.83,145.13,127.99,145.13"/>
	<path class="st18" d="M119.39,161.89c-5.41,0-10.65-2.67-14.07-6.83c-4.01-4.86-4.72-10.63-4.21-16.44
		c-0.13-0.86-0.23-1.72-0.29-2.58c7.24,6.27,17.12,9.09,27.17,9.09c2.84,0,5.7-0.23,8.51-0.66c-0.64,6.71-3.87,13.18-10.79,16.13
		C123.64,161.48,121.5,161.89,119.39,161.89"/>
	<path class="st17" d="M170.72,158.29c-1.04,0-2.07-0.05-3.11-0.16c-2.07-0.22-4.19-0.7-6.17-1.44c1.97-6.5,3.18-13.18,2.15-19.82
		c-0.81-5.25-3.16-9.55-6.27-13.91c-3.05-4.26-7.76-10.23-5.91-15.64c1-2.94,3.07-4.02,5.53-4.02c0.46,0,0.93,0.04,1.41,0.11
		c3.04,1.22,5.92,2.77,8.42,4.72c0.5,0.39,0.98,0.79,1.45,1.21c-1.02-0.38-2.07-0.67-3.13-0.82c-0.3-0.04-0.6-0.06-0.91-0.06
		c-2.74,0-5.49,1.77-4.61,4.67c0.12,0.41,0.37,0.8,0.7,1.12c0.84,1.46,1.67,3.9,2.38,5.43c1.15,2.48,2.03,4.95,2.78,7.57
		c1.58,5.51,0.78,12.6,4.05,17.43c1.83,2.69,4.53,3.93,7.26,3.93c1.25,0,2.52-0.26,3.71-0.76c-0.15,3.11-0.51,6.19-1.19,9.23
		C176.51,157.87,173.63,158.29,170.72,158.29"/>
	<path class="st18" d="M168.46,167.26c-3.55,0-7.09-0.78-9.99-1.99c1.06-2.81,2.09-5.67,2.97-8.58c1.99,0.74,4.1,1.22,6.17,1.44
		c1.04,0.11,2.08,0.16,3.11,0.16c2.91,0,5.79-0.43,8.54-1.24c-0.39,1.75-0.88,3.49-1.49,5.21c-0.42,1.18-0.9,2.34-1.43,3.47
		C173.89,166.8,171.17,167.26,168.46,167.26"/>
	<path class="st19" d="M168.6,177.12c-5.3,0-10.35-1.8-12.24-4.19c-0.1-1.11,0.03-2.24,0.45-3.34c0.54-1.42,1.1-2.87,1.64-4.33
		c2.9,1.21,6.44,1.99,9.99,1.99c2.71,0,5.43-0.45,7.88-1.52c-1.86,3.98-4.36,7.74-6.94,11.37
		C169.13,177.11,168.87,177.12,168.6,177.12"/>
	<path class="st20" d="M165.75,182.09c-0.49-0.06-0.99-0.15-1.49-0.28c-4.12-1.06-7.53-4.85-7.88-8.88
		c1.89,2.39,6.94,4.19,12.24,4.19c0.26,0,0.53,0,0.79-0.01c-0.69,0.97-1.39,1.93-2.08,2.89C166.8,180.69,166.28,181.4,165.75,182.09
		"/>
	<path class="st21" d="M179.26,157.06c0.67-3.04,1.04-6.13,1.19-9.23c1.57-0.66,3.01-1.73,4.15-3.17c0.12-0.15,0.23-0.3,0.34-0.46
		c-0.18,3.79-0.74,7.56-1.55,11.3C182.06,156.11,180.68,156.64,179.26,157.06"/>
	<path class="st22" d="M176.34,165.74c0.53-1.14,1.02-2.3,1.43-3.47c0.61-1.72,1.1-3.46,1.49-5.21c1.42-0.42,2.8-0.94,4.13-1.56
		c-0.44,2.04-0.96,4.07-1.54,6.09C180.32,163.48,178.43,164.83,176.34,165.74"/>
	<path class="st23" d="M169.39,177.1c2.58-3.62,5.08-7.38,6.94-11.37c2.09-0.91,3.99-2.26,5.51-4.15c-1.28,4.48-2.85,8.91-4.5,13.29
		c-0.04,0.11-0.09,0.23-0.14,0.34C174.84,176.44,172.1,177.01,169.39,177.1"/>
	<path class="st24" d="M167.07,182.17c-0.44,0-0.88-0.03-1.33-0.08c0.53-0.69,1.05-1.4,1.56-2.1c0.69-0.95,1.39-1.91,2.08-2.89
		c2.71-0.09,5.44-0.67,7.81-1.89C175.52,179.28,171.64,182.17,167.07,182.17"/>
	<path class="st21" d="M174.65,113.16c-1.92-1.56-4.1-2.95-6.44-3.83c-0.47-0.42-0.95-0.82-1.45-1.21c-2.5-1.94-5.38-3.5-8.42-4.72
		c4.79,0.69,10.53,4.57,13.07,6.68C172.55,111.05,173.64,112.07,174.65,113.16"/>
	<path class="st25" d="M184.94,144.19c0.23-4.83-0.13-9.69-1.34-14.59c-1.48-6.02-4.58-11.78-8.95-16.45
		c0.85,0.7,1.66,1.43,2.39,2.16C183.55,121.79,191.07,135.61,184.94,144.19"/>
	<path class="st26" d="M176.74,148.59c-2.74,0-5.43-1.24-7.26-3.93c-3.27-4.82-2.47-11.92-4.05-17.43
		c-0.75-2.62-1.63-5.09-2.78-7.57c-0.71-1.52-1.54-3.97-2.38-5.43c-0.33-0.32-0.57-0.71-0.7-1.12c-0.88-2.9,1.87-4.67,4.61-4.67
		c0.3,0,0.61,0.02,0.91,0.06c1.07,0.16,2.11,0.44,3.13,0.82c8.88,7.9,11.84,20.55,12.25,31.55c0.09,2.32,0.09,4.64-0.02,6.94
		C179.25,148.32,177.99,148.59,176.74,148.59"/>
	<path class="st27" d="M180.45,147.82c0.11-2.31,0.1-4.62,0.02-6.94c-0.41-11-3.37-23.65-12.25-31.55c2.34,0.88,4.53,2.27,6.44,3.83
		c4.37,4.67,7.47,10.42,8.95,16.45c1.2,4.89,1.57,9.76,1.34,14.59c-0.11,0.15-0.23,0.31-0.34,0.46
		C183.45,146.09,182.01,147.17,180.45,147.82"/>
	<path class="st28" d="M136.78,95.85c1.1-4.89,5.65-9.98,8.37-14.14c3.14-4.8,6.44-9.2,10.56-13.22c-3.05,4.37-6.15,8.71-9.14,13.12
		C143.33,86.37,140.04,91.1,136.78,95.85"/>
	<path class="st29" d="M137.49,97.45c-0.45,0-0.93-0.34-0.86-0.78c0.04-0.27,0.09-0.54,0.15-0.82c3.26-4.74,6.55-9.47,9.78-14.24
		c3-4.41,6.09-8.75,9.14-13.12c0.46-0.45,0.93-0.89,1.41-1.33c0.08-0.07,0.18-0.1,0.28-0.1c0.26,0,0.53,0.21,0.42,0.48
		c-2.46,5.72-5.7,10.84-9.34,15.98c-2.02,2.85-4.06,5.68-6.06,8.55c-1.42,2.02-2.4,3.89-4.52,5.27
		C137.77,97.41,137.63,97.45,137.49,97.45"/>
</g>
</svg>
