<?xml version="1.0" encoding="utf-8"?>
<!-- Generator: Adobe Illustrator 27.5.0, SVG Export Plug-In . SVG Version: 6.00 Build 0)  -->
<svg version="1.1" id="Layer_1" xmlns="http://www.w3.org/2000/svg" xmlns:xlink="http://www.w3.org/1999/xlink" x="0px" y="0px"
	 viewBox="0 0 250 250" style="enable-background:new 0 0 250 250;" xml:space="preserve">
<style type="text/css">
	.st0{fill:#992241;}
	.st1{fill:#A61F46;}
	.st2{fill:#AC2546;}
	.st3{fill:#AF1F28;}
	.st4{fill:#A01C36;}
	.st5{fill:#A41D38;}
	.st6{fill:#92192F;}
	.st7{fill:#971A32;}
	.st8{fill:#BC274E;}
	.st9{fill:#C22C50;}
	.st10{fill:#C72B52;}
	.st11{fill:#A51D38;}
	.st12{fill:#D03C4F;}
	.st13{fill:#D53E51;}
	.st14{fill:#DD3E53;}
	.st15{fill:#AC394F;}
	.st16{fill:#B33A52;}
	.st17{fill:#AF4155;}
	.st18{fill:#B54057;}
	.st19{fill:#B81F40;}
	.st20{fill:#BF2242;}
	.st21{fill:#B42749;}
	.st22{fill:#B62B4D;}
	.st23{fill:#BD2B50;}
	.st24{fill:#C33E51;}
	.st25{fill:#C73F51;}
	.st26{fill:#B93553;}
	.st27{fill:#C23457;}
	.st28{fill:#BF4D65;}
	.st29{fill:#C6506A;}
	.st30{fill:#B61F3E;}
	.st31{fill:#B82D4B;}
	.st32{fill:#BB3555;}
	.st33{fill:#C52E4B;}
	.st34{fill:#CC2D4C;}
	.st35{fill:#BD2235;}
	.st36{fill:#C52038;}
	.st37{fill:#CF405C;}
	.st38{fill:#D53F5C;}
	.st39{fill:#BE2C51;}
	.st40{fill:#C32F52;}
	.st41{fill:#CA3253;}
	.st42{fill:#C73752;}
	.st43{fill:#C93854;}
	.st44{fill:#D03D58;}
	.st45{fill:#CA3B5A;}
	.st46{fill:#CF3D5B;}
	.st47{fill:#D33F5C;}
	.st48{fill:#C33D51;}
	.st49{fill:#C73E52;}
	.st50{fill:#CE3D53;}
	.st51{fill:#C6455E;}
	.st52{fill:#CC475F;}
	.st53{fill:#D44864;}
	.st54{fill:#CF2E58;}
	.st55{fill:#D5335B;}
	.st56{fill:#DC345D;}
	.st57{fill:#C22351;}
	.st58{fill:#CA2353;}
	.st59{fill:#D0536C;}
	.st60{fill:#D5546F;}
	.st61{fill:#E05774;}
	.st62{fill:#D7476B;}
	.st63{fill:#DF486E;}
	.st64{fill:#E54870;}
	.st65{fill:#D12E57;}
	.st66{fill:#C74E6F;}
	.st67{fill:#CE5274;}
	.st68{fill:#D55779;}
	.st69{fill:#DC335A;}
	.st70{fill:#C83452;}
	.st71{fill:#CF3855;}
	.st72{fill:#DA385A;}
	.st73{fill:#E3335F;}
	.st74{fill:#C34764;}
	.st75{fill:#C84966;}
	.st76{fill:#CF506C;}
	.st77{fill:#D63B5F;}
	.st78{fill:#DF3D63;}
	.st79{fill:#E6466A;}
	.st80{fill:#E3415F;}
	.st81{fill:#E64460;}
	.st82{fill:#E6516C;}
	.st83{fill:#891C3A;}
	.st84{fill:#971A3F;}
	.st85{fill:#A02241;}
	.st86{fill:#A51E28;}
	.st87{fill:#901930;}
	.st88{clip-path:url(#SVGID_00000090282576513929301790000016162346582292968333_);fill:#951A31;}
	.st89{fill:#82152C;}
	.st90{fill:#87162E;}
	.st91{fill:#B9264D;}
	.st92{fill:#C62B52;}
	.st93{fill:#CD2A54;}
	.st94{fill:#951A32;}
	.st95{fill:#D93D52;}
	.st96{fill:#E44156;}
	.st97{fill:#EF435A;}
	.st98{fill:#A03549;}
	.st99{fill:#AA384E;}
	.st100{fill:#A63B50;}
	.st101{fill:#AD3F54;}
	.st102{fill:#B31F3F;}
	.st103{fill:#AF2A4A;}
	.st104{fill:#BA2C4F;}
	.st105{fill:#CD3E52;}
	.st106{fill:#B53352;}
	.st107{fill:#C43558;}
	.st108{fill:#BE4D65;}
	.st109{fill:#C9526B;}
	.st110{fill:#B01E3C;}
	.st111{fill:#B32D49;}
	.st112{fill:#BA3554;}
	.st113{fill:#CA2D4B;}
	.st114{fill:#D4304F;}
	.st115{fill:#BC2035;}
	.st116{fill:#C92039;}
	.st117{fill:#D94461;}
	.st118{fill:#E44361;}
	.st119{fill:#BE2C50;}
	.st120{fill:#C43052;}
	.st121{fill:#D23357;}
	.st122{fill:#C83754;}
	.st123{fill:#CF3D58;}
	.st124{fill:#DD3C5D;}
	.st125{fill:#D13F5C;}
	.st126{fill:#DB3E60;}
	.st127{fill:#E13F62;}
	.st128{fill:#D34056;}
	.st129{fill:#CA475F;}
	.st130{fill:#D74864;}
	.st131{fill:#E04F6A;}
	.st132{fill:#D9365E;}
	.st133{fill:#E43562;}
	.st134{fill:#EE3866;}
	.st135{fill:#C42252;}
	.st136{fill:#D12655;}
	.st137{fill:#DB5671;}
	.st138{fill:#E35977;}
	.st139{fill:#F1607E;}
	.st140{fill:#E74972;}
	.st141{fill:#EF4E77;}
	.st142{fill:#F0517A;}
	.st143{fill:#CA5071;}
	.st144{fill:#E35A80;}
	.st145{fill:#EB3763;}
	.st146{fill:#CD3754;}
	.st147{fill:#DB3859;}
	.st148{fill:#E93C5F;}
	.st149{fill:#EF3F69;}
	.st150{fill:#C54764;}
	.st151{fill:#CC4E69;}
	.st152{fill:#DA5171;}
	.st153{fill:#E33F64;}
	.st154{fill:#EF446B;}
	.st155{fill:#EF4D76;}
	.st156{fill:#EF4969;}
	.st157{fill:#F04D6D;}
	.st158{fill:#F05879;}
	.st159{fill:#C6365D;}
	.st160{fill:#D62C61;}
	.st161{fill:#DB395F;}
	.st162{fill:#DE2E3E;}
	.st163{fill:#D0294C;}
	.st164{clip-path:url(#SVGID_00000141423829428139003770000004860673390187856774_);fill:#D22C4D;}
	.st165{fill:#C22A48;}
	.st166{fill:#C72949;}
	.st167{fill:#D42E4F;}
	.st168{fill:#F05266;}
	.st169{fill:#F05469;}
	.st170{fill:#DA556D;}
	.st171{fill:#DF5470;}
	.st172{fill:#DC5C73;}
	.st173{fill:#DF5E75;}
	.st174{fill:#E02F56;}
	.st175{fill:#E63259;}
	.st176{fill:#E03D61;}
	.st177{fill:#E14066;}
	.st178{fill:#E44469;}
	.st179{fill:#E8566A;}
	.st180{fill:#E95669;}
	.st181{fill:#E4496E;}
	.st182{fill:#E94B70;}
	.st183{fill:#E56984;}
	.st184{fill:#E96B87;}
	.st185{fill:#DE1B52;}
	.st186{fill:#E41954;}
	.st187{fill:#E34263;}
	.st188{fill:#E64A70;}
	.st189{fill:#EA4060;}
	.st190{fill:#EF4363;}
	.st191{fill:#E5344B;}
	.st192{fill:#E8354D;}
	.st193{fill:#F05875;}
	.st194{fill:#F05774;}
	.st195{fill:#E54669;}
	.st196{fill:#E74769;}
	.st197{fill:#EF486B;}
	.st198{fill:#EA4E6D;}
	.st199{fill:#EC4F6D;}
	.st200{fill:#F05370;}
	.st201{fill:#ED5272;}
	.st202{fill:#F05474;}
	.st203{fill:#F05475;}
	.st204{fill:#E8556A;}
	.st205{fill:#EB5669;}
	.st206{fill:#EE576A;}
	.st207{fill:#EB5E7A;}
	.st208{fill:#EE607B;}
	.st209{fill:#F1617C;}
	.st210{fill:#EF4771;}
	.st211{fill:#EF4873;}
	.st212{fill:#EF4776;}
	.st213{fill:#E7396A;}
	.st214{fill:#EE386C;}
	.st215{fill:#F16C86;}
	.st216{fill:#F06C88;}
	.st217{fill:#F06F8C;}
	.st218{fill:#F05C81;}
	.st219{fill:#F05D84;}
	.st220{fill:#F05F86;}
	.st221{fill:#EF466E;}
	.st222{fill:#EF4871;}
	.st223{fill:#EF4A74;}
	.st224{fill:#E86381;}
	.st225{fill:#F05377;}
	.st226{fill:#F05379;}
	.st227{fill:#F0587E;}
	.st228{fill:#F05777;}
	.st229{fill:#F05878;}
	.st230{fill:#F16583;}
	.st231{fill:#5E9B42;}
	.st232{clip-path:url(#SVGID_00000137120419841193012680000016877114859706349221_);fill:#6CB244;}
	.st233{clip-path:url(#SVGID_00000137120419841193012680000016877114859706349221_);fill:#50853D;}
	.st234{fill:#50853D;}
	.st235{clip-path:url(#SVGID_00000119839026163198766680000017879737397981027466_);fill:#5E9A42;}
	.st236{clip-path:url(#SVGID_00000119839026163198766680000017879737397981027466_);fill:#467E3B;}
	.st237{fill:#FFFFFF;}
</style>
<g>
	<path class="st0" d="M133.12,102.3c-1.38,1.59-3.58,2.9-5.67,2.29c-5.44-1.59-4.16-12.29,0.73-14.03c2.68-0.96,5.49,0.86,6.64,3.09
		C136.3,96.52,135.17,99.94,133.12,102.3L133.12,102.3z"/>
	<path class="st1" d="M127.76,94.22c-1.38,1.59-3.58,2.9-5.67,2.29c-5.44-1.59-4.16-12.29,0.73-14.03c2.68-0.96,5.49,0.86,6.64,3.09
		C130.94,88.43,129.8,91.86,127.76,94.22"/>
	<path class="st2" d="M116.81,100.28c-2.17,0.3-4.75-0.1-5.85-1.87c-2.87-4.59,5.84-11.68,10.72-9.9c2.67,0.98,3.43,4.08,2.66,6.45
		C123.36,98.01,120.03,99.83,116.81,100.28"/>
	<path class="st3" d="M116.15,89.57c1.19,1.44,1.97,3.49,0.97,5.05c-2.61,4.06-12.32,0.82-12.93-3.49
		c-0.34-2.36,1.94-4.26,4.25-4.73C111.42,85.81,114.38,87.43,116.15,89.57"/>
	<path class="st4" d="M120.42,84.7c0.35,1.79,0.03,3.94-1.63,4.9c-4.32,2.5-11.35-4.53-9.77-8.62c0.86-2.24,3.82-2.95,6.11-2.38
		C118.07,79.33,119.9,82.04,120.42,84.7"/>
	<path class="st5" d="M114.96,88.55c-1.99,0-4.23-1.83-5.17-3.78c2.28-0.02,4.3-0.74,5.38-2.43c0.2-0.31,0.34-0.63,0.44-0.96
		c0.28,0.24,0.54,0.5,0.76,0.79c0.18,0.32,0.38,0.63,0.59,0.93c0.27,0.52,0.46,1.08,0.56,1.63c0.25,1.26,0.02,2.77-1.15,3.45
		C115.94,88.44,115.46,88.55,114.96,88.55"/>
	<path class="st6" d="M126.89,81.58c-0.23,2.03-1.31,4.25-3.42,4.8c-5.5,1.42-10.67-8.21-7.59-12.15c1.69-2.16,5.11-2.06,7.38-0.77
		C126.18,75.11,127.23,78.57,126.89,81.58"/>
	<path class="st7" d="M120.86,83.95c-3.74,0-6.93-6.39-4.8-9.11c0.69-0.88,1.76-1.25,2.87-1.25c0.91,0,1.84,0.25,2.6,0.68
		c2.16,1.23,2.94,3.79,2.69,6.02c-0.17,1.5-0.97,3.15-2.54,3.55C121.4,83.91,121.13,83.95,120.86,83.95"/>
	<path class="st8" d="M113.91,75.75c1.56,1.88,2.57,4.55,1.26,6.59c-3.4,5.3-16.06,1.07-16.87-4.55c-0.44-3.08,2.52-5.55,5.54-6.16
		C107.74,70.85,111.6,72.96,113.91,75.75"/>
	<path class="st9" d="M106.58,80.46c-2.82,0-6.3-1.84-6.62-4.05c-0.26-1.79,1.46-3.22,3.22-3.58c0.32-0.07,0.65-0.1,0.97-0.1
		c1.91,0,3.72,1.1,4.87,2.49c0.9,1.09,1.49,2.64,0.73,3.83C109.12,80.04,107.93,80.46,106.58,80.46"/>
	<path class="st10" d="M108.05,75.5c0.43,0.52,0.7,1.25,0.35,1.81c-0.93,1.46-4.41,0.29-4.63-1.25c-0.12-0.85,0.69-1.52,1.52-1.69
		C106.35,74.15,107.41,74.73,108.05,75.5L108.05,75.5z"/>
	<path class="st4" d="M134.09,84.26c-1.1,1.77-3.05,3.39-5.22,3.1c-5.64-0.78-6.18-11.53-1.65-13.96c2.49-1.34,5.57,0.05,7.08,2.08
		C136.25,78.09,135.71,81.64,134.09,84.26L134.09,84.26z"/>
	<path class="st11" d="M134.65,81.92c-0.96,1.55-2.67,2.98-4.57,2.71c-4.95-0.68-5.42-10.11-1.45-12.25
		c2.18-1.17,4.88,0.04,6.21,1.82C136.55,76.5,136.07,79.62,134.65,81.92L134.65,81.92z"/>
	<path class="st2" d="M133.89,95.19c-2.17,0.3-4.75-0.1-5.85-1.87c-2.87-4.59,5.84-11.68,10.71-9.9c2.67,0.98,3.43,4.08,2.67,6.45
		C140.43,92.91,137.11,94.73,133.89,95.19L133.89,95.19z"/>
	<path class="st12" d="M93.86,94.4c-1.49-1.63-1.77-3.97-1.33-6.07c0.85-4.06,4.48-7.61,8.88-8.18c4.4-0.57,9.15,2.24,10.04,6.29
		c0.27,1.24,0.2,2.57-0.37,3.71c-0.4,0.8-1.02,1.48-1.7,2.08C106.4,94.85,97.1,97.94,93.86,94.4L93.86,94.4z"/>
	<path class="st13" d="M95.68,92.21c-1.1-1.2-1.3-2.93-0.98-4.47c0.63-2.99,3.3-5.6,6.54-6.02c3.24-0.42,6.74,1.65,7.4,4.63
		c0.2,0.91,0.15,1.89-0.27,2.74c-0.29,0.59-0.75,1.09-1.26,1.54C104.91,92.54,98.07,94.82,95.68,92.21L95.68,92.21z"/>
	<path class="st14" d="M97.17,88.39c-0.5-0.54-0.59-1.32-0.44-2.02c0.28-1.35,1.49-2.53,2.96-2.72c1.47-0.19,3.05,0.74,3.35,2.1
		c0.09,0.41,0.07,0.85-0.12,1.24c-0.13,0.27-0.34,0.49-0.57,0.69C101.35,88.54,98.26,89.57,97.17,88.39L97.17,88.39z"/>
	<path class="st15" d="M116.27,125.11c0.24,1.47,1.14,2.79,2.27,3.85c1.97,1.84,4.69,2.97,7.48,3.1c1.05,0.05,2.26-0.11,2.86-0.92
		c0.6-0.82,0.32-1.93-0.1-2.84c-1.49-3.18-4.38-5.2-7.55-6.8C118.34,120.04,115.7,121.65,116.27,125.11L116.27,125.11z"/>
	<path class="st16" d="M117.76,125.93c0.18,1.06,0.82,2.01,1.64,2.77c1.42,1.32,3.37,2.13,5.38,2.23c0.76,0.03,1.62-0.08,2.05-0.66
		c0.44-0.59,0.23-1.39-0.07-2.04c-1.07-2.29-3.15-3.74-5.44-4.89C119.25,122.28,117.35,123.44,117.76,125.93L117.76,125.93z"/>
	<path class="st17" d="M127.24,128.44c0.31,0.76,0.83,1.43,1.39,2.04c1.01,1.11,2.25,2.13,3.77,2.46c0.99,0.21,2.02,0.12,3.02-0.06
		c0.77-0.14,1.53-0.35,2.18-0.75c4.74-2.92-0.31-8.54-3.91-9.79C129.92,121.04,125.76,124.79,127.24,128.44L127.24,128.44z"/>
	<path class="st18" d="M127.86,127.97c0.23,0.57,0.62,1.08,1.05,1.54c0.76,0.84,1.69,1.6,2.84,1.85c0.74,0.16,1.52,0.09,2.27-0.05
		c0.58-0.11,1.15-0.26,1.64-0.56c3.57-2.19-0.23-6.42-2.94-7.36C129.87,122.4,126.74,125.22,127.86,127.97L127.86,127.97z"/>
	<path class="st19" d="M136.73,127.34c0.81,1.47,1.85,3.02,3.54,3.54c1.61,0.49,3.37-0.09,4.8-0.94c4.97-2.96,0.94-8.02-3.23-9.6
		C136.54,118.33,134.64,123.56,136.73,127.34L136.73,127.34z"/>
	<path class="st20" d="M137.21,125.98c0.73,1.31,1.65,2.69,3.16,3.15c1.43,0.44,3.01-0.08,4.28-0.84c4.44-2.64,0.84-7.15-2.88-8.56
		C137.03,117.95,135.34,122.62,137.21,125.98L137.21,125.98z"/>
	<path class="st2" d="M144.64,116.56c-1.3,1.08-1.83,2.89-1.49,4.65c0.35,1.76,1.52,3.43,3.08,4.59c0.53,0.39,1.12,0.74,1.76,0.86
		c0.43,0.08,0.87,0.06,1.29,0.03c1.81-0.11,3.78-0.29,4.87-1.55c0.87-1,0.96-2.52,0.54-3.9c-0.43-1.38-1.31-2.64-2.28-3.81
		C150.81,115.47,146.32,115.17,144.64,116.56L144.64,116.56z"/>
	<path class="st21" d="M143.88,116.63c-1.03,0.84-1.44,2.27-1.17,3.66c0.27,1.38,1.2,2.7,2.42,3.61c0.42,0.31,0.89,0.58,1.38,0.68
		c0.34,0.07,0.68,0.05,1.02,0.03c1.42-0.08,2.98-0.23,3.84-1.22c0.68-0.79,0.76-1.99,0.42-3.07c-0.34-1.08-1.03-2.08-1.79-3
		C148.74,115.77,145.2,115.54,143.88,116.63L143.88,116.63z"/>
	<path class="st22" d="M151.72,117.79c1.54,1.13,3.87,1.19,5.48,0.16c0.97-0.63,1.65-1.58,2.19-2.56c1.52-2.79-1.93-5.94-5.05-5.53
		C150.35,110.37,148.42,115.36,151.72,117.79L151.72,117.79z"/>
	<path class="st23" d="M152.32,115.93c1,0.74,2.53,0.78,3.57,0.11c0.64-0.41,1.08-1.03,1.43-1.68c1-1.82-1.26-3.87-3.29-3.61
		C151.42,111.09,150.16,114.34,152.32,115.93L152.32,115.93z"/>
	<path class="st24" d="M113.7,124.96c1.12,0.64,2.51,0.96,3.77,0.6c2.18-0.63,3.22-3.17,2.65-5.23c-0.92-3.36-5.7-7.02-9.39-4.68
		C106.68,118.22,110.76,123.28,113.7,124.96L113.7,124.96z"/>
	<path class="st25" d="M113.84,122.64c0.9,0.51,2.01,0.77,3.02,0.48c1.75-0.5,2.58-2.54,2.12-4.19c-0.74-2.69-4.57-5.62-7.53-3.75
		C108.22,117.23,111.49,121.29,113.84,122.64L113.84,122.64z"/>
	<path class="st26" d="M117.37,119.83c-0.39,1.61,0.15,3.35,1.23,4.66c1.08,1.31,2.67,2.21,4.36,2.72c1.25,0.37,2.6,0.54,3.86,0.22
		c1.26-0.32,2.41-1.2,2.74-2.37c0.36-1.25-0.22-2.57-1-3.65c-1.42-1.97-2.6-5.08-5.43-5.4
		C120.58,115.72,117.92,117.52,117.37,119.83L117.37,119.83z"/>
	<path class="st27" d="M118.42,118.97c-0.25,1.04,0.1,2.16,0.79,3.01c0.7,0.84,1.72,1.43,2.81,1.76c0.8,0.24,1.68,0.35,2.49,0.14
		c0.81-0.21,1.55-0.77,1.77-1.53c0.23-0.81-0.14-1.66-0.64-2.35c-0.91-1.27-1.68-3.28-3.5-3.48
		C120.49,116.32,118.77,117.48,118.42,118.97L118.42,118.97z"/>
	<path class="st28" d="M128.24,116.23c-1.12,0.36-2.31,0.76-3.02,1.64c-0.67,0.84-0.78,2-0.48,3.01c0.29,1.01,0.94,1.91,1.66,2.72
		c1.21,1.37,2.78,2.62,4.67,2.81c1.54,0.15,3.05-0.42,4.4-1.13c1.1-0.57,2.24-1.39,2.37-2.56c0.09-0.86-0.4-1.67-0.9-2.39
		c-0.93-1.34-2.44-4.05-4.02-4.79C131.39,114.81,129.8,115.73,128.24,116.23L128.24,116.23z"/>
	<path class="st29" d="M127.81,115.66c-0.88,0.28-1.83,0.6-2.39,1.3c-0.53,0.66-0.61,1.58-0.38,2.38c0.23,0.8,0.74,1.51,1.31,2.15
		c0.95,1.08,2.2,2.07,3.69,2.22c1.22,0.12,2.41-0.34,3.48-0.89c0.87-0.45,1.77-1.1,1.87-2.02c0.07-0.68-0.32-1.32-0.72-1.89
		c-0.74-1.06-1.93-3.2-3.17-3.79C130.3,114.54,129.04,115.27,127.81,115.66L127.81,115.66z"/>
	<path class="st30" d="M136.11,115.24c-1.26,1.08-2.04,2.76-1.59,4.29c0.24,0.8,0.78,1.5,1.34,2.15c0.57,0.65,1.18,1.29,1.94,1.74
		c2.46,1.47,5.79,0.68,8.23-0.8c0.31-0.19,0.62-0.39,0.83-0.68c0.26-0.37,0.32-0.83,0.33-1.28
		C147.28,114.67,141.29,110.8,136.11,115.24L136.11,115.24z"/>
	<path class="st20" d="M135.79,114.86c-0.96,0.82-1.55,2.1-1.21,3.26c0.18,0.61,0.59,1.14,1.02,1.63c0.43,0.5,0.9,0.98,1.47,1.32
		c1.87,1.11,4.4,0.52,6.26-0.61c0.24-0.14,0.47-0.3,0.63-0.52c0.2-0.28,0.24-0.63,0.25-0.97
		C144.29,114.43,139.73,111.48,135.79,114.86L135.79,114.86z"/>
	<path class="st31" d="M142.3,111.35c-0.26,0.99,0.35,1.98,0.99,2.81c0.97,1.26,2.07,2.49,3.52,3.26c1.45,0.77,3.3,1.03,4.79,0.33
		c3.6-1.7,4.04-7.52,0.86-9.76C149.49,105.9,143.21,107.95,142.3,111.35L142.3,111.35z"/>
	<path class="st32" d="M142.52,111.2c-0.22,0.81,0.29,1.62,0.81,2.3c0.8,1.04,1.7,2.04,2.89,2.68c1.19,0.63,2.71,0.85,3.93,0.27
		c2.95-1.39,3.32-6.17,0.71-8.01C148.42,106.73,143.27,108.41,142.52,111.2L142.52,111.2z"/>
	<path class="st33" d="M148.58,105.95c0.75,2.36,3.49,3.59,5.96,4.46c1.15,0.41,2.44,0.8,3.59,0.4c0.97-0.34,1.64-1.17,2.09-2.04
		c0.8-1.55,1.04-3.5,0.01-4.92c-0.7-0.97-1.86-1.56-3.03-1.97C153.78,100.66,146.79,100.33,148.58,105.95L148.58,105.95z"/>
	<path class="st34" d="M149.17,104.94c0.51,1.61,2.38,2.44,4.06,3.04c0.79,0.28,1.66,0.55,2.45,0.27c0.66-0.23,1.12-0.8,1.43-1.39
		c0.55-1.05,0.71-2.38,0.01-3.35c-0.48-0.66-1.27-1.06-2.07-1.35C152.71,101.34,147.95,101.11,149.17,104.94L149.17,104.94z"/>
	<path class="st35" d="M157.79,92.33c-1.57-0.46-3.51,0.16-4.19,1.55c-0.42,0.87-0.31,1.87-0.18,2.82c0.18,1.26,0.39,2.53,0.94,3.69
		c0.56,1.16,1.5,2.21,2.78,2.66c1.71,0.61,3.72,0.01,5.07-1.14c0.31-0.26,0.59-0.55,0.75-0.91c0.21-0.46,0.2-0.97,0.18-1.47
		c-0.04-1.07-0.07-2.16-0.46-3.17C162.29,95.35,157.79,92.33,157.79,92.33L157.79,92.33z"/>
	<path class="st36" d="M157.51,93.6c-1.16-0.34-2.6,0.12-3.1,1.15c-0.31,0.64-0.23,1.39-0.13,2.08c0.13,0.93,0.29,1.87,0.7,2.73
		c0.41,0.86,1.11,1.63,2.05,1.97c1.26,0.45,2.75,0.01,3.75-0.84c0.23-0.19,0.44-0.41,0.56-0.67c0.16-0.34,0.15-0.72,0.13-1.09
		c-0.02-0.79-0.05-1.6-0.34-2.35C160.83,95.84,157.51,93.6,157.51,93.6L157.51,93.6z"/>
	<path class="st37" d="M99.7,111.63c-0.84-0.87-1.18-2.04-1.5-3.17c-0.5-1.78-2.08-4.82,0.53-5.81c1.56-0.59,3.03,0.52,3.97,1.58
		c1.25,1.42,1.96,3.46,1.75,5.29C104.17,111.87,101.87,113.9,99.7,111.63L99.7,111.63z"/>
	<path class="st38" d="M100.18,110.02c-0.69-0.72-0.97-1.69-1.24-2.62c-0.41-1.47-1.71-3.98,0.44-4.8c1.29-0.49,2.5,0.43,3.28,1.31
		c1.03,1.17,1.62,2.86,1.44,4.37C103.88,110.22,101.98,111.89,100.18,110.02L100.18,110.02z"/>
	<path class="st39" d="M109.26,119.09c-1.39,0.21-2.48-0.61-3.4-1.38c-2.2-1.85-5.08-4.53-3.48-7.96c1.05-2.24,3.21-3.12,5.49-2.72
		C112.29,107.81,116.13,118.04,109.26,119.09L109.26,119.09z"/>
	<path class="st40" d="M108.32,116.78c-0.97,0.15-1.72-0.42-2.36-0.96c-1.53-1.28-3.52-3.15-2.41-5.52
		c0.73-1.55,2.22-2.17,3.81-1.89C110.42,108.96,113.08,116.06,108.32,116.78L108.32,116.78z"/>
	<path class="st41" d="M107.11,113.52c-0.52,0.08-0.93-0.23-1.28-0.52c-0.83-0.7-1.91-1.7-1.3-2.99c0.39-0.84,1.2-1.17,2.06-1.02
		C108.25,109.29,109.69,113.13,107.11,113.52L107.11,113.52z"/>
	<path class="st42" d="M111.53,111.71c-0.04,1.94,0.51,3.87,1.75,5.32c1.24,1.45,3.22,2.4,5.33,2.34c0.59-0.02,1.19-0.11,1.72-0.39
		c3.22-1.71,2.17-9.82,0.29-11.81C117.21,103.54,111.63,107.54,111.53,111.71L111.53,111.71z"/>
	<path class="st43" d="M112.53,112.03c-0.03,1.24,0.32,2.46,1.11,3.39c0.79,0.93,2.05,1.53,3.4,1.49c0.37-0.01,0.76-0.07,1.1-0.25
		c2.05-1.09,1.38-6.25,0.18-7.52C116.15,106.82,112.59,109.38,112.53,112.03L112.53,112.03z"/>
	<path class="st44" d="M113.99,112.12c-0.01,0.7,0.18,1.4,0.64,1.93c0.45,0.53,1.16,0.87,1.93,0.85c0.21-0.01,0.43-0.04,0.63-0.14
		c1.17-0.62,0.79-3.55,0.11-4.28C116.05,109.15,114.03,110.61,113.99,112.12L113.99,112.12z"/>
	<path class="st45" d="M121.18,110.86c-0.72,2.18,0.12,4.55,1.32,6.54c0.7,1.17,1.56,2.3,2.76,3.03c1.54,0.93,3.45,1.1,5.28,1.25
		c0.88,0.07,1.78,0.14,2.64-0.07c1.8-0.43,3.07-2.02,3.52-3.71c0.9-3.42-0.02-10.15-3.8-11.97
		C128.94,104.02,122.42,107.08,121.18,110.86L121.18,110.86z"/>
	<path class="st46" d="M122.66,111.23c-0.53,1.62,0.09,3.39,0.98,4.87c0.52,0.87,1.16,1.72,2.06,2.26c1.15,0.69,2.57,0.82,3.94,0.93
		c0.66,0.05,1.33,0.1,1.97-0.05c1.34-0.32,2.29-1.51,2.62-2.76c0.67-2.55-0.02-7.57-2.83-8.92
		C128.44,106.13,123.58,108.41,122.66,111.23L122.66,111.23z"/>
	<path class="st47" d="M124.39,111.53c-0.25,0.77,0.04,1.6,0.46,2.3c0.25,0.41,0.55,0.81,0.97,1.07c0.54,0.33,1.21,0.39,1.86,0.44
		c0.31,0.02,0.63,0.05,0.93-0.02c0.64-0.15,1.08-0.71,1.24-1.3c0.32-1.2-0.01-3.57-1.33-4.21
		C127.12,109.12,124.83,110.2,124.39,111.53L124.39,111.53z"/>
	<path class="st48" d="M132.66,110.78c2.07,3.04,5.77,5.22,9.64,5.1c10.28-0.3,10.08-12.71,2.35-16.51
		C137.36,95.79,128,103.94,132.66,110.78L132.66,110.78z"/>
	<path class="st49" d="M134.42,109.58c1.44,2.11,4.01,3.63,6.7,3.55c7.15-0.21,7.01-8.84,1.64-11.48
		C137.69,99.15,131.18,104.82,134.42,109.58L134.42,109.58z"/>
	<path class="st50" d="M133.9,106.81c0.93,1.37,2.59,2.34,4.33,2.29c4.61-0.14,4.53-5.71,1.06-7.41
		C136.01,100.08,131.81,103.74,133.9,106.81L133.9,106.81z"/>
	<path class="st51" d="M148.72,91.54c2.59-0.43,5.41,0.75,6.77,2.85c0.38,0.58,0.65,1.22,0.85,1.87c0.25,0.84,0.39,1.72,0.5,2.59
		c0.11,0.87,0.19,1.78-0.09,2.62c-0.27,0.81-0.86,1.5-1.54,2.06C146.48,110.81,138.43,93.26,148.72,91.54L148.72,91.54z"/>
	<path class="st52" d="M148.39,94.42c1.56-0.26,3.25,0.45,4.07,1.71c0.23,0.35,0.39,0.73,0.51,1.13c0.15,0.51,0.24,1.04,0.3,1.56
		c0.07,0.53,0.11,1.07-0.05,1.57c-0.16,0.49-0.52,0.9-0.92,1.24C147.04,106,142.19,95.45,148.39,94.42L148.39,94.42z"/>
	<path class="st53" d="M147.45,95.61c0.9-0.15,1.87,0.26,2.34,0.98c0.13,0.2,0.22,0.42,0.29,0.65c0.09,0.29,0.13,0.59,0.17,0.89
		c0.04,0.3,0.07,0.61-0.03,0.9c-0.09,0.28-0.3,0.52-0.53,0.71C146.68,102.26,143.9,96.2,147.45,95.61L147.45,95.61z"/>
	<path class="st54" d="M147.29,89.74c0.46,3.67,3.36,7.04,7.46,7.07c7.26,0.07,6.69-10.21,3.72-13.4
		C153.74,78.32,146.56,83.87,147.29,89.74L147.29,89.74z"/>
	<path class="st55" d="M147.97,89.37c0.3,2.38,2.17,4.55,4.83,4.58c4.7,0.04,4.33-6.61,2.41-8.67
		C152.15,81.98,147.5,85.57,147.97,89.37L147.97,89.37z"/>
	<path class="st56" d="M147.27,88.38c0.19,1.55,1.42,2.97,3.15,2.99c3.07,0.03,2.83-4.31,1.57-5.66
		C149.99,83.56,146.96,85.91,147.27,88.38L147.27,88.38z"/>
	<path class="st57" d="M154.33,75.6c1.35,1.19,2.28,2.91,2.03,4.62c-0.05,0.33-0.15,0.64-0.29,0.95c-0.61,1.29-2.02,2.27-3.52,2.12
		C146.55,82.68,149.32,71.18,154.33,75.6L154.33,75.6z"/>
	<path class="st58" d="M152.56,76.16c1.35,1.19,2.28,2.91,2.03,4.63c-0.05,0.32-0.15,0.64-0.29,0.94c-0.61,1.29-2.02,2.27-3.52,2.12
		C144.77,83.24,147.54,71.74,152.56,76.16L152.56,76.16z"/>
	<path class="st59" d="M101.99,90.07c3.21-1.11,6.87,0.64,9.03,3.13c0.6,0.69,1.12,1.45,1.43,2.29c0.08,0.23,0.15,0.46,0.2,0.69
		c0.44,2.07-0.41,4.28-1.62,6.11c-1.2,1.83-2.93,3.53-5.18,3.98C96.47,108.14,93.69,92.95,101.99,90.07L101.99,90.07z"/>
	<path class="st60" d="M101.57,92.21c1.87-0.65,3.99,0.37,5.24,1.82c0.35,0.4,0.66,0.84,0.83,1.33l0.11,0.4
		c0.25,1.2-0.24,2.49-0.94,3.55c-0.7,1.06-1.7,2.05-3.01,2.31C98.36,102.71,96.75,93.88,101.57,92.21L101.57,92.21z"/>
	<path class="st61" d="M101.06,93.59c0.64-0.22,1.37,0.13,1.8,0.62c0.12,0.14,0.22,0.29,0.28,0.46l0.04,0.14
		c0.09,0.41-0.08,0.85-0.32,1.22c-0.24,0.37-0.58,0.7-1.03,0.79C99.96,97.19,99.41,94.16,101.06,93.59L101.06,93.59z"/>
	<path class="st62" d="M107.21,97.03c0.74-0.72,1.59-1.37,2.58-1.73c1.71-0.63,3.68-0.35,5.33,0.4c1.65,0.75,3.02,1.92,4.3,3.14
		c0.47,0.45,0.94,0.91,1.23,1.47c0.36,0.7,0.42,1.5,0.42,2.28c0,1.05-0.11,2.12-0.45,3.13c-1.58,4.71-9.32,7.49-14.06,5.15
		C101.07,108.17,103.92,100.24,107.21,97.03L107.21,97.03z"/>
	<path class="st63" d="M107.59,98.08c0.52-0.51,1.12-0.97,1.83-1.22c1.2-0.44,2.6-0.25,3.76,0.28c1.17,0.53,2.14,1.36,3.04,2.22
		c0.33,0.32,0.66,0.64,0.87,1.04c0.26,0.5,0.3,1.06,0.3,1.61c0,0.75-0.08,1.5-0.32,2.21c-1.12,3.33-6.59,5.3-9.94,3.64
		C103.25,105.95,105.26,100.34,107.59,98.08L107.59,98.08z"/>
	<path class="st64" d="M109.48,98.29c0.25-0.24,0.53-0.45,0.86-0.57c0.56-0.21,1.22-0.12,1.76,0.13c0.55,0.25,1,0.64,1.42,1.04
		c0.16,0.15,0.31,0.3,0.41,0.49c0.12,0.23,0.14,0.5,0.14,0.75c0,0.35-0.04,0.7-0.15,1.04c-0.52,1.56-3.08,2.48-4.65,1.7
		C107.45,101.97,108.39,99.35,109.48,98.29L109.48,98.29z"/>
	<path class="st65" d="M114.73,102.82c-0.26,1.97,1.11,3.77,2.4,5.35c0.7,0.85,1.43,1.73,2.43,2.26c0.9,0.47,1.96,0.62,2.99,0.66
		c3.96,0.12,8.31-1.59,10.69-4.62c2.7-3.44,0.08-7.23-2.95-9.66C125.1,92.67,115.55,96.53,114.73,102.82L114.73,102.82z"/>
	<path class="st66" d="M118.58,63.47c0.89,0.39,1.64,1.02,2.29,1.71c1.54,1.62,2.64,3.63,2.92,5.78c0.38,2.88-1.24,8.03-5.26,7.57
		c-2.25-0.26-6.63-2.86-8.34-4.34C104.7,69.43,112.16,60.66,118.58,63.47L118.58,63.47z"/>
	<path class="st67" d="M116,66.01c0.55,0.24,1.01,0.63,1.41,1.05c0.95,1,1.63,2.24,1.8,3.56c0.23,1.78-0.77,4.95-3.24,4.66
		c-1.39-0.16-4.09-1.76-5.14-2.67C107.45,69.68,112.04,64.28,116,66.01L116,66.01z"/>
	<path class="st68" d="M113.18,68.93c0.24,0.1,0.44,0.27,0.62,0.46c0.41,0.44,0.71,0.98,0.78,1.55c0.1,0.77-0.33,2.16-1.42,2.03
		c-0.61-0.07-1.78-0.77-2.24-1.17C109.45,70.53,111.45,68.18,113.18,68.93L113.18,68.93z"/>
	<path class="st69" d="M116.65,101.63c-0.18,1.35,0.76,2.58,1.64,3.66c0.48,0.58,0.98,1.19,1.66,1.55c0.62,0.32,1.34,0.43,2.04,0.45
		c2.71,0.08,5.69-1.09,7.32-3.16c1.85-2.35,0.06-4.95-2.02-6.62C123.75,94.69,117.21,97.33,116.65,101.63L116.65,101.63z"/>
	<path class="st70" d="M124.7,62.74c1.25-0.87,2.83-1.51,4.35-1.19c1.19,0.25,2.15,1.05,2.99,1.86c1.03,0.99,1.99,2.08,2.53,3.36
		c2.04,4.81-5.25,10.09-10.13,8.99C117.7,74.25,120.81,65.45,124.7,62.74L124.7,62.74z"/>
	<path class="st71" d="M124.6,64.2c0.9-0.63,2.04-1.09,3.14-0.86c0.86,0.18,1.55,0.76,2.16,1.34c0.74,0.71,1.44,1.5,1.83,2.42
		c1.47,3.47-3.79,7.28-7.32,6.49C119.55,72.51,121.8,66.16,124.6,64.2L124.6,64.2z"/>
	<path class="st72" d="M123.59,67.23c0.41-0.29,0.93-0.5,1.43-0.39c0.39,0.08,0.71,0.34,0.99,0.61c0.34,0.33,0.66,0.68,0.83,1.1
		c0.67,1.58-1.73,3.32-3.34,2.96C121.29,71.02,122.31,68.12,123.59,67.23L123.59,67.23z"/>
	<path class="st73" d="M119,100.37c-0.1,0.76,0.43,1.45,0.92,2.06c0.27,0.33,0.55,0.67,0.93,0.87c0.35,0.18,0.75,0.24,1.15,0.25
		c1.52,0.05,3.19-0.61,4.11-1.77c1.04-1.32,0.03-2.78-1.14-3.71C122.99,96.48,119.31,97.96,119,100.37L119,100.37z"/>
	<path class="st74" d="M128.14,76.48c-0.15-1.47-0.31-2.97,0.08-4.4c0.47-1.79,1.73-3.3,3.13-4.61c1.74-1.63,3.95-3.1,6.42-2.99
		c1.68,0.08,3.22,0.89,4.5,1.91c2.34,1.85,4.04,4.71,3.43,7.51c-0.7,3.19-4.1,5.24-7.43,6.26
		C134.21,81.39,128.64,81.29,128.14,76.48L128.14,76.48z"/>
	<path class="st75" d="M129.23,75.37c-0.1-0.92-0.19-1.86,0.05-2.76c0.3-1.12,1.09-2.07,1.96-2.89c1.09-1.02,2.48-1.95,4.03-1.87
		c1.05,0.05,2.02,0.56,2.82,1.19c1.47,1.16,2.54,2.96,2.15,4.71c-0.44,2.01-2.57,3.29-4.66,3.93
		C133.04,78.45,129.55,78.38,129.23,75.37L129.23,75.37z"/>
	<path class="st76" d="M130.23,75.01c-0.05-0.44-0.09-0.89,0.02-1.31c0.14-0.53,0.52-0.98,0.93-1.37c0.52-0.49,1.18-0.92,1.91-0.89
		c0.5,0.02,0.96,0.26,1.34,0.57c0.7,0.55,1.21,1.4,1.02,2.24c-0.21,0.95-1.22,1.56-2.22,1.87
		C132.04,76.48,130.38,76.45,130.23,75.01L130.23,75.01z"/>
	<path class="st77" d="M145.68,72.59c1.97,0.02,4.04,0.51,5.4,1.83c1.42,1.37,1.83,3.38,1.98,5.28c0.1,1.23,0.11,2.51-0.34,3.67
		c-0.89,2.3-3.38,3.71-5.83,4.59c-5.04,1.79-14.65,1.11-14.34-5.81C132.8,76.58,140.35,72.53,145.68,72.59L145.68,72.59z"/>
	<path class="st78" d="M143.4,75.95c1.33,0.02,2.73,0.35,3.66,1.24c0.96,0.93,1.24,2.29,1.34,3.58c0.07,0.83,0.07,1.69-0.23,2.48
		c-0.6,1.56-2.29,2.51-3.95,3.1c-3.41,1.21-9.91,0.75-9.7-3.93C134.69,78.65,139.8,75.91,143.4,75.95L143.4,75.95z"/>
	<path class="st79" d="M140.32,78.63c0.7,0.01,1.44,0.18,1.93,0.66c0.51,0.49,0.65,1.21,0.71,1.89c0.04,0.44,0.04,0.89-0.12,1.31
		c-0.32,0.82-1.2,1.32-2.08,1.63c-1.8,0.64-5.23,0.4-5.12-2.07C135.72,80.06,138.42,78.61,140.32,78.63L140.32,78.63z"/>
	<path class="st80" d="M130.53,96.75c0.23,1.49,1.07,2.79,2.02,3.95c0.81,1,1.74,1.95,2.98,2.47c2.29,0.95,5.23,0.24,7.58-1.07
		c2.39-1.33,4.43-3.26,5.78-5.49c2.76-4.53-0.51-11.52-6.43-11.11C136.9,85.9,129.68,91.38,130.53,96.75L130.53,96.75z"/>
	<path class="st81" d="M131.81,95.67c0.13,0.84,0.6,1.58,1.14,2.24c0.46,0.56,0.98,1.1,1.69,1.39c1.3,0.54,2.96,0.14,4.29-0.6
		c1.36-0.75,2.51-1.84,3.28-3.11c1.56-2.57-0.29-6.52-3.64-6.29C135.42,89.52,131.33,92.62,131.81,95.67L131.81,95.67z"/>
	<path class="st82" d="M132.72,95.33c0.07,0.44,0.31,0.82,0.6,1.17c0.24,0.29,0.51,0.58,0.88,0.73c0.68,0.28,1.55,0.07,2.24-0.32
		c0.71-0.39,1.31-0.96,1.71-1.62c0.82-1.34-0.15-3.4-1.9-3.28C134.6,92.12,132.47,93.74,132.72,95.33L132.72,95.33z"/>
	<path class="st83" d="M152.67,138.11c-0.27-2.27,0.21-4.97,2.08-6.07c4.87-2.88,12.11,6.39,10.14,11.45
		c-1.08,2.77-4.35,3.49-6.81,2.63C154.91,145.01,153.08,141.49,152.67,138.11L152.67,138.11z"/>
	<path class="st84" d="M162.4,140.33c-0.27-2.27,0.21-4.97,2.08-6.07c4.87-2.88,12.11,6.39,10.14,11.45
		c-1.08,2.77-4.35,3.49-6.81,2.63C164.64,147.23,162.81,143.71,162.4,140.33"/>
	<path class="st85" d="M165.17,127.35c1.23-1.88,3.27-3.52,5.35-2.98c5.41,1.4,4.92,13.49,0.29,15.79c-2.54,1.26-5.4-0.57-6.68-2.99
		C162.49,134.06,163.35,130.13,165.17,127.35"/>
	<path class="st86" d="M173.73,135.16c-1.9-0.21-3.97-1.22-4.48-3.19c-1.33-5.13,7.67-9.96,11.34-7.08
		c2.02,1.58,1.92,4.77,0.72,6.88C179.77,134.5,176.55,135.48,173.73,135.16"/>
	<path class="st87" d="M174.55,142.17c-1.59-1.13-3.01-3.04-2.62-5.04c1.01-5.21,11.07-5.07,13.11-0.7c1.12,2.4-0.33,5.18-2.3,6.47
		C180.2,144.56,176.92,143.84,174.55,142.17"/>
	<g>
		<defs>
			<path id="SVGID_1_" d="M179.93,141.13c-0.25,0-0.5-0.02-0.75-0.06c-0.36-0.11-0.73-0.2-1.1-0.28c-0.57-0.2-1.12-0.49-1.61-0.84
				c-1.12-0.79-2.11-2.14-1.84-3.55c0.37-1.89,2.42-2.78,4.52-2.78c0.86,0,1.73,0.15,2.5,0.44c-1.52,1.74-2.33,3.83-1.78,5.96
				c0.1,0.39,0.25,0.75,0.43,1.08C180.18,141.12,180.06,141.13,179.93,141.13"/>
		</defs>
		<clipPath id="SVGID_00000087414867885430168830000013796982011631405468_">
			<use xlink:href="#SVGID_1_"  style="overflow:visible;"/>
		</clipPath>
		
			<rect x="174.82" y="133.43" style="clip-path:url(#SVGID_00000087414867885430168830000013796982011631405468_);fill:#951A31;" width="7.3" height="7.84"/>
	</g>
	<path class="st89" d="M172.56,149.49c-1.38-1.75-2.34-4.29-1.33-6.31c2.62-5.26,13.4-1.7,14.31,3.69c0.5,2.96-1.88,5.46-4.38,6.18
		C177.94,153.97,174.62,152.09,172.56,149.49"/>
	<path class="st90" d="M180.45,151.28c-1.96,0-3.85-1.23-5.11-2.81c-1.02-1.3-1.73-3.18-0.99-4.68c0.67-1.35,2.07-1.92,3.63-1.92
		c2.96,0,6.53,2.03,6.97,4.65c0.37,2.19-1.39,4.05-3.25,4.58C181.29,151.22,180.87,151.28,180.45,151.28"/>
	<path class="st91" d="M185.71,144.19c-2.47-0.28-5.18-1.59-5.84-4.16c-1.73-6.69,10-12.98,14.79-9.23
		c2.63,2.06,2.51,6.21,0.94,8.97C193.58,143.33,189.38,144.61,185.71,144.19"/>
	<path class="st92" d="M190.18,140.95c-0.26,0-0.52-0.01-0.78-0.04c-1.43-0.16-3.01-0.92-3.39-2.42c-0.8-3.08,3.32-6.01,6.44-6.01
		c0.82,0,1.57,0.2,2.15,0.65c1.53,1.19,1.45,3.61,0.55,5.21C194.11,140.15,192.1,140.95,190.18,140.95"/>
	<path class="st93" d="M189.85,139.95c-0.68-0.08-1.42-0.44-1.6-1.14c-0.47-1.84,2.74-3.56,4.06-2.53c0.72,0.56,0.69,1.71,0.26,2.46
		C192.01,139.71,190.86,140.06,189.85,139.95L189.85,139.95z"/>
	<path class="st87" d="M165.69,152.85c-0.6-2.2-0.52-4.94,1.17-6.35c4.39-3.67,12.89,4.27,11.69,9.59
		c-0.66,2.92-3.78,4.18-6.34,3.75C168.91,159.28,166.58,156.12,165.69,152.85L165.69,152.85z"/>
	<path class="st94" d="M167.08,155.09c-0.53-1.93-0.46-4.33,1.02-5.57c3.85-3.22,11.31,3.74,10.25,8.41
		c-0.58,2.56-3.32,3.66-5.56,3.29C169.91,160.74,167.87,157.96,167.08,155.09L167.08,155.09z"/>
	<path class="st85" d="M157.54,144.22c1.23-1.88,3.27-3.51,5.35-2.97c5.41,1.39,4.92,13.48,0.29,15.79
		c-2.54,1.26-5.4-0.57-6.68-2.99C154.86,150.93,155.72,147.01,157.54,144.22L157.54,144.22z"/>
	<path class="st95" d="M185.08,114.55c2.23,0.13,4.2,1.74,5.49,3.71c2.5,3.8,2.75,9.29,0.22,13.07c-2.53,3.77-7.85,5.18-11.53,2.72
		c-1.12-0.75-2.08-1.84-2.56-3.16c-0.34-0.92-0.44-1.92-0.43-2.91C176.3,123.68,180.21,114.25,185.08,114.55L185.08,114.55z"/>
	<path class="st96" d="M185.51,117.62c1.65,0.1,3.09,1.29,4.05,2.73c1.84,2.8,2.03,6.85,0.16,9.62c-1.87,2.78-5.78,3.82-8.49,2
		c-0.83-0.56-1.53-1.36-1.89-2.33c-0.25-0.68-0.32-1.41-0.32-2.14C179.04,124.35,181.92,117.4,185.51,117.62L185.51,117.62z"/>
	<path class="st97" d="M187.4,121.72c0.74,0.04,1.4,0.58,1.83,1.23c0.83,1.26,0.92,3.1,0.07,4.35c-0.84,1.26-2.62,1.73-3.84,0.9
		c-0.37-0.25-0.69-0.61-0.85-1.05c-0.11-0.31-0.15-0.64-0.14-0.97C184.47,124.76,185.77,121.62,187.4,121.72L187.4,121.72z"/>
	<path class="st98" d="M146.72,107.66c-1.28-0.96-2.89-1.31-4.45-1.27c-2.72,0.06-5.4,1.24-7.38,3.25c-0.75,0.76-1.44,1.8-1.22,2.88
		c0.21,1.09,1.25,1.74,2.22,2.13c3.41,1.34,6.89,0.72,10.24-0.43C149.17,113.17,149.73,109.92,146.72,107.66L146.72,107.66z"/>
	<path class="st99" d="M145.1,108.16c-0.92-0.69-2.08-0.94-3.2-0.91c-1.96,0.04-3.89,0.89-5.31,2.34c-0.54,0.54-1.03,1.29-0.88,2.07
		c0.15,0.78,0.9,1.25,1.6,1.53c2.45,0.97,4.96,0.52,7.37-0.31C146.86,112.12,147.26,109.78,145.1,108.16L145.1,108.16z"/>
	<path class="st100" d="M136.82,113.37c-0.78-0.36-1.64-0.48-2.49-0.53c-1.52-0.1-3.13,0.05-4.4,0.94
		c-0.83,0.58-1.45,1.44-1.98,2.33c-0.41,0.69-0.77,1.43-0.9,2.23c-0.98,5.86,6.68,6.4,10.05,4.64
		C140.62,121.15,140.58,115.09,136.82,113.37L136.82,113.37z"/>
	<path class="st101" d="M136.76,114.21c-0.59-0.27-1.23-0.36-1.87-0.4c-1.14-0.07-2.35,0.04-3.31,0.71
		c-0.62,0.44-1.09,1.08-1.49,1.75c-0.31,0.52-0.58,1.07-0.68,1.68c-0.74,4.4,5.02,4.81,7.56,3.49
		C139.62,120.06,139.6,115.5,136.76,114.21L136.76,114.21z"/>
	<path class="st102" d="M131.27,121.42c-1.66-0.53-3.53-0.94-5.06-0.07c-1.45,0.83-2.2,2.62-2.52,4.36c-1.1,6.06,5.44,6.94,9.45,5
		C138.23,128.26,135.53,122.77,131.27,121.42L131.27,121.42z"/>
	<path class="st20" d="M131.97,122.83c-1.48-0.47-3.15-0.84-4.51-0.06c-1.3,0.74-1.96,2.34-2.24,3.88c-0.99,5.4,4.85,6.18,8.43,4.46
		C138.18,128.93,135.78,124.03,131.97,122.83L131.97,122.83z"/>
	<path class="st85" d="M134.12,135.76c0.06-1.82-0.96-3.63-2.52-4.73c-1.57-1.1-3.63-1.51-5.55-1.23c-0.66,0.1-1.32,0.28-1.83,0.66
		c-0.36,0.26-0.63,0.61-0.9,0.95c-1.13,1.45-2.33,3.09-2.11,4.89c0.18,1.44,1.26,2.69,2.6,3.44c1.33,0.75,2.89,1.06,4.42,1.24
		C130.79,141.28,134.04,138.11,134.12,135.76L134.12,135.76z"/>
	<path class="st2" d="M134.57,135.13c0.05-1.43-0.75-2.86-1.98-3.72c-1.23-0.87-2.86-1.19-4.37-0.97c-0.52,0.08-1.04,0.22-1.45,0.52
		c-0.28,0.21-0.49,0.48-0.7,0.75c-0.89,1.14-1.83,2.43-1.66,3.85c0.14,1.13,1,2.11,2.05,2.7c1.05,0.59,2.27,0.83,3.48,0.97
		C131.95,139.47,134.5,136.98,134.57,135.13L134.57,135.13z"/>
	<path class="st103" d="M128.42,140.17c-1.89,0.29-3.51,2-3.8,4.02c-0.18,1.22,0.09,2.47,0.47,3.64c1.09,3.32,5.8,3.15,7.59,0.47
		C134.96,144.89,132.48,139.56,128.42,140.17L128.42,140.17z"/>
	<path class="st104" d="M129.43,142.06c-1.23,0.19-2.29,1.31-2.48,2.63c-0.12,0.8,0.06,1.61,0.31,2.38
		c0.71,2.17,3.78,2.06,4.95,0.31C133.7,145.14,132.08,141.66,129.43,142.06L129.43,142.06z"/>
	<path class="st25" d="M148.57,105.83c-1.24,0.35-2.42,1.16-2.99,2.39c-0.99,2.14,0.23,4.89,2.18,6.06c3.16,1.9,9.16,1.13,9.87-3.47
		C158.4,105.76,151.82,104.92,148.57,105.83L148.57,105.83z"/>
	<path class="st105" d="M150.23,107.74c-0.99,0.28-1.94,0.93-2.4,1.91c-0.8,1.71,0.19,3.92,1.74,4.86c2.53,1.53,7.34,0.91,7.91-2.78
		C158.11,107.68,152.83,107.01,150.23,107.74L150.23,107.74z"/>
	<path class="st106" d="M149.99,112.59c-0.96-1.55-2.64-2.49-4.36-2.69c-1.72-0.2-3.47,0.29-4.99,1.18
		c-1.12,0.65-2.16,1.55-2.76,2.75c-0.6,1.2-0.71,2.75-0.05,3.92c0.71,1.24,2.1,1.83,3.43,2.08c2.45,0.46,5.6,1.98,7.75,0.08
		C150.94,118.21,151.36,114.8,149.99,112.59L149.99,112.59z"/>
	<path class="st107" d="M149.93,114.05c-0.62-1-1.7-1.6-2.81-1.73c-1.11-0.13-2.24,0.19-3.22,0.76c-0.72,0.42-1.39,1-1.78,1.78
		c-0.39,0.78-0.46,1.78-0.03,2.53c0.45,0.8,1.35,1.18,2.22,1.34c1.58,0.29,3.61,1.28,5,0.05
		C150.54,117.68,150.82,115.48,149.93,114.05L149.93,114.05z"/>
	<path class="st108" d="M145.4,123.62c0.48-1.12,0.98-2.34,0.79-3.56c-0.18-1.16-0.99-2.14-1.96-2.7c-0.97-0.56-2.08-0.77-3.18-0.86
		c-1.85-0.15-3.86,0.07-5.27,1.35c-1.15,1.05-1.73,2.64-2.1,4.21c-0.3,1.28-0.45,2.78,0.35,3.78c0.59,0.74,1.53,1,2.42,1.18
		c1.64,0.34,4.71,1.29,6.33,0.68C144.35,127.09,144.73,125.17,145.4,123.62L145.4,123.62z"/>
	<path class="st109" d="M146.11,123.73c0.38-0.89,0.77-1.85,0.62-2.81c-0.14-0.92-0.78-1.69-1.55-2.14
		c-0.77-0.45-1.64-0.61-2.51-0.68c-1.46-0.12-3.05,0.05-4.17,1.07c-0.91,0.83-1.37,2.09-1.66,3.33c-0.24,1.01-0.36,2.19,0.27,2.99
		c0.47,0.58,1.21,0.79,1.92,0.93c1.3,0.27,3.72,1.02,5,0.54C145.29,126.48,145.59,124.96,146.11,123.73L146.11,123.73z"/>
	<path class="st110" d="M140.85,130.34c0.03-1.79-0.72-3.68-2.18-4.53c-0.77-0.45-1.66-0.58-2.53-0.65
		c-0.87-0.08-1.77-0.1-2.62,0.12c-2.76,0.72-4.41,3.85-4.93,6.85c-0.07,0.38-0.12,0.78-0.04,1.16c0.1,0.49,0.42,0.89,0.75,1.24
		C133.76,139.23,140.73,137.7,140.85,130.34L140.85,130.34z"/>
	<path class="st20" d="M141.36,130.39c0.02-1.36-0.55-2.8-1.66-3.45c-0.58-0.34-1.26-0.44-1.92-0.5c-0.67-0.06-1.34-0.08-1.99,0.09
		c-2.1,0.55-3.35,2.93-3.75,5.21c-0.05,0.29-0.09,0.59-0.03,0.88c0.08,0.37,0.32,0.68,0.57,0.94
		C135.97,137.15,141.26,135.99,141.36,130.39L141.36,130.39z"/>
	<path class="st111" d="M139.64,138.03c-0.57-0.97-1.74-1.27-2.79-1.43c-1.61-0.25-3.28-0.36-4.84,0.13c-1.56,0.49-3,1.69-3.47,3.37
		c-1.13,4.04,2.98,8.9,6.82,8.23C138.93,147.71,141.6,141.37,139.64,138.03L139.64,138.03z"/>
	<path class="st112" d="M139.6,138.32c-0.47-0.79-1.43-1.04-2.29-1.17c-1.32-0.2-2.69-0.3-3.97,0.11c-1.28,0.4-2.46,1.39-2.85,2.76
		c-0.93,3.31,2.45,7.3,5.59,6.75C139.02,146.25,141.21,141.05,139.6,138.32L139.6,138.32z"/>
	<path class="st113" d="M139.49,146.98c-2.29-1.26-5.06-0.15-7.39,1.05c-1.09,0.55-2.25,1.22-2.72,2.41c-0.4,1-0.22,2.15,0.14,3.17
		c0.63,1.81,1.95,3.5,3.72,3.83c1.2,0.23,2.43-0.2,3.54-0.76C140.01,155.01,144.96,149.99,139.49,146.98L139.49,146.98z"/>
	<path class="st114" d="M139.87,148.21c-1.56-0.86-3.45-0.1-5.04,0.71c-0.74,0.38-1.53,0.83-1.86,1.64
		c-0.27,0.68-0.15,1.47,0.09,2.16c0.43,1.23,1.33,2.38,2.54,2.61c0.82,0.16,1.66-0.14,2.41-0.52
		C140.22,153.68,143.59,150.26,139.87,148.21L139.87,148.21z"/>
	<path class="st115" d="M143.62,164.52c1.4-0.83,2.25-2.78,1.64-4.37c-0.38-0.99-1.21-1.69-2.01-2.32
		c-1.07-0.84-2.18-1.68-3.43-2.15c-1.25-0.48-2.68-0.57-3.88,0.04c-1.61,0.82-2.51,2.8-2.55,4.72c-0.01,0.43,0.02,0.87,0.18,1.27
		c0.2,0.51,0.6,0.9,0.99,1.28c0.84,0.81,1.69,1.63,2.72,2.11C138.3,165.57,143.62,164.52,143.62,164.52L143.62,164.52z"/>
	<path class="st116" d="M142.85,163.32c1.04-0.61,1.66-2.06,1.21-3.23c-0.28-0.74-0.89-1.25-1.49-1.72
		c-0.79-0.63-1.61-1.24-2.54-1.59c-0.93-0.35-1.98-0.43-2.87,0.03c-1.19,0.61-1.86,2.07-1.89,3.49c-0.01,0.32,0.02,0.65,0.13,0.94
		c0.15,0.38,0.45,0.67,0.73,0.95c0.62,0.6,1.25,1.2,2.01,1.56C138.92,164.1,142.85,163.32,142.85,163.32L142.85,163.32z"/>
	<path class="st117" d="M168.09,105.58c1.22,0.04,2.34,0.69,3.41,1.33c1.68,1,5.05,2.17,4.04,4.91c-0.6,1.65-2.43,1.89-3.87,1.77
		c-1.91-0.15-3.94-1.2-5.18-2.78C164.9,108.79,164.9,105.47,168.09,105.58L168.09,105.58z"/>
	<path class="st118" d="M168.98,107.2c1.01,0.03,1.93,0.57,2.82,1.1c1.39,0.82,4.17,1.79,3.34,4.06c-0.5,1.36-2.01,1.56-3.19,1.46
		c-1.58-0.13-3.26-0.99-4.28-2.3C166.35,109.85,166.35,107.11,168.98,107.2L168.98,107.2z"/>
	<path class="st119" d="M156,107.03c0.77-1.22,2.13-1.41,3.34-1.51c2.89-0.23,6.85-0.32,8.37,3.55c0.99,2.53,0.21,4.85-1.64,6.27
		C162.51,118.08,152.17,113.04,156,107.03L156,107.03z"/>
	<path class="st120" d="M158.39,108.11c0.54-0.84,1.48-0.98,2.31-1.04c2-0.16,4.75-0.22,5.81,2.46c0.69,1.76,0.15,3.36-1.13,4.35
		C162.9,115.77,155.73,112.28,158.39,108.11L158.39,108.11z"/>
	<path class="st121" d="M161.67,109.72c0.29-0.46,0.8-0.53,1.25-0.56c1.08-0.09,2.57-0.12,3.14,1.33c0.37,0.95,0.08,1.82-0.61,2.35
		C164.11,113.87,160.23,111.98,161.67,109.72L161.67,109.72z"/>
	<path class="st122" d="M160.07,114.48c-1.44-1.54-3.27-2.62-5.21-2.81c-1.94-0.19-3.98,0.57-5.36,2.22
		c-0.38,0.46-0.72,0.99-0.86,1.61c-0.87,3.76,5.97,9.26,8.75,9.39C162.44,125.12,163.16,117.78,160.07,114.48L160.07,114.48z"/>
	<path class="st123" d="M159.15,114.99c-0.92-0.98-2.08-1.67-3.32-1.79c-1.24-0.12-2.54,0.37-3.41,1.42
		c-0.24,0.29-0.46,0.63-0.55,1.03c-0.56,2.39,3.8,5.9,5.57,5.98C160.66,121.76,161.12,117.1,159.15,114.99L159.15,114.99z"/>
	<path class="st124" d="M158.1,116.03c-0.52-0.56-1.18-0.95-1.89-1.02c-0.7-0.07-1.44,0.21-1.94,0.81
		c-0.14,0.17-0.26,0.36-0.31,0.58c-0.32,1.36,2.16,3.36,3.17,3.4C158.96,119.88,159.22,117.22,158.1,116.03L158.1,116.03z"/>
	<path class="st125" d="M154.22,122.43c-1.17-2.23-3.53-3.44-5.84-4.08c-1.36-0.38-2.79-0.61-4.16-0.26
		c-1.74,0.44-3.16,1.75-4.5,3.02c-0.65,0.61-1.3,1.24-1.73,2.05c-0.89,1.7-0.53,3.9,0.44,5.54c1.99,3.34,7.71,7.86,11.63,6.42
		C154.18,133.61,156.25,126.31,154.22,122.43L154.22,122.43z"/>
	<path class="st126" d="M152.94,123.27c-0.87-1.67-2.63-2.56-4.35-3.04c-1.01-0.28-2.08-0.46-3.1-0.2c-1.3,0.33-2.36,1.31-3.35,2.25
		c-0.48,0.46-0.97,0.93-1.29,1.53c-0.66,1.26-0.4,2.9,0.33,4.13c1.48,2.49,5.75,5.86,8.67,4.79
		C152.91,131.6,154.46,126.16,152.94,123.27L152.94,123.27z"/>
	<path class="st127" d="M151.55,124.35c-0.41-0.78-1.24-1.21-2.05-1.43c-0.48-0.13-0.98-0.21-1.46-0.09
		c-0.61,0.16-1.11,0.62-1.58,1.07c-0.23,0.21-0.46,0.44-0.61,0.72c-0.31,0.6-0.19,1.37,0.16,1.95c0.7,1.17,2.71,2.76,4.09,2.26
		C151.54,128.28,152.27,125.71,151.55,124.35L151.55,124.35z"/>
	<path class="st49" d="M146.55,131.18c-3.7-0.79-7.84,0.32-10.35,3.33c-6.69,8.01,2.84,17.5,10.93,14.59
		C154.75,146.37,154.88,132.97,146.55,131.18L146.55,131.18z"/>
	<path class="st50" d="M146.28,133.45c-2.57-0.55-5.45,0.22-7.2,2.32c-4.65,5.57,1.98,12.17,7.6,10.15
		C151.98,144.02,152.07,134.69,146.28,133.45L146.28,133.45z"/>
	<path class="st128" d="M148.73,135.21c-1.66-0.36-3.52,0.14-4.65,1.5c-3,3.59,1.28,7.85,4.9,6.55
		C152.4,142.03,152.46,136.01,148.73,135.21L148.73,135.21z"/>
	<path class="st129" d="M150.32,158.27c-1.42,2.3-4.21,3.51-6.72,2.91c-0.7-0.16-1.36-0.45-1.99-0.81c-0.81-0.46-1.57-1.04-2.3-1.63
		c-0.73-0.6-1.47-1.24-1.92-2.1c-0.43-0.83-0.56-1.81-0.53-2.76C137.23,141.62,155.95,149.15,150.32,158.27L150.32,158.27z"/>
	<path class="st130" d="M148.37,155.79c-0.85,1.38-2.53,2.11-4.04,1.75c-0.42-0.1-0.82-0.27-1.19-0.49
		c-0.49-0.28-0.94-0.63-1.38-0.98c-0.44-0.36-0.88-0.74-1.16-1.26c-0.26-0.5-0.33-1.09-0.32-1.66
		C140.5,145.77,151.75,150.3,148.37,155.79L148.37,155.79z"/>
	<path class="st131" d="M148.09,154.15c-0.49,0.79-1.45,1.21-2.32,1.01c-0.24-0.06-0.47-0.16-0.69-0.28
		c-0.28-0.16-0.54-0.36-0.79-0.56c-0.25-0.21-0.51-0.43-0.66-0.72c-0.15-0.29-0.19-0.63-0.18-0.95
		C143.58,148.41,150.03,151,148.09,154.15L148.09,154.15z"/>
	<path class="st132" d="M152.65,158.59c-3.09-2.5-7.59-2.92-10.38,0.15c-4.94,5.44,3.23,12.99,7.65,13.22
		C156.96,172.33,157.59,162.59,152.65,158.59L152.65,158.59z"/>
	<path class="st133" d="M152.47,159.39c-2-1.62-4.91-1.89-6.72,0.1c-3.2,3.52,2.09,8.41,4.95,8.56
		C155.26,168.28,155.67,161.98,152.47,159.39L152.47,159.39z"/>
	<path class="st134" d="M153.7,159.62c-1.31-1.05-3.21-1.23-4.39,0.07c-2.09,2.3,1.36,5.49,3.23,5.58
		C155.52,165.42,155.78,161.31,153.7,159.62L153.7,159.62z"/>
	<path class="st135" d="M158.63,174.89c-1.81,0.1-3.74-0.53-4.87-2.05c-0.21-0.29-0.39-0.61-0.52-0.96
		c-0.56-1.47-0.37-3.29,0.76-4.31C158.5,163.51,165.35,174.53,158.63,174.89L158.63,174.89z"/>
	<path class="st136" d="M159.4,173.11c-1.81,0.1-3.74-0.53-4.87-2.06c-0.21-0.29-0.39-0.61-0.52-0.95
		c-0.56-1.47-0.36-3.29,0.76-4.31C159.27,161.73,166.12,172.75,159.4,173.11L159.4,173.11z"/>
	<path class="st137" d="M182.88,124.05c-1.32,3.3-5.11,4.71-8.44,4.4c-0.93-0.08-1.85-0.27-2.7-0.7c-0.23-0.11-0.45-0.24-0.66-0.39
		c-1.86-1.28-2.96-3.63-3.54-5.97c-0.57-2.33-0.71-4.96,0.47-7.01C172.91,105.85,186.28,115.54,182.88,124.05L182.88,124.05z"/>
	<path class="st138" d="M181.55,122.07c-0.77,1.92-2.97,2.73-4.91,2.56c-0.54-0.05-1.08-0.16-1.57-0.4
		c-0.13-0.07-0.26-0.14-0.38-0.22c-1.08-0.74-1.72-2.11-2.06-3.47c-0.33-1.35-0.41-2.88,0.27-4.07
		C175.75,111.5,183.52,117.13,181.55,122.07L181.55,122.07z"/>
	<path class="st139" d="M180.84,120.62c-0.26,0.66-1.02,0.94-1.68,0.88c-0.19-0.02-0.37-0.05-0.54-0.14l-0.13-0.08
		c-0.37-0.25-0.59-0.73-0.7-1.19c-0.11-0.46-0.14-0.99,0.09-1.4C178.85,117,181.52,118.93,180.84,120.62L180.84,120.62z"/>
	<path class="st140" d="M174.1,122.6c0.05,1.12-0.04,2.26-0.43,3.3c-0.67,1.78-2.21,3.05-3.89,3.72c-1.67,0.67-3.49,0.79-5.28,0.82
		c-0.65,0.01-1.32,0-1.94-0.21c-0.77-0.27-1.42-0.84-2.01-1.45c-0.8-0.82-1.53-1.73-2.07-2.77c-2.5-4.85,0.59-12.87,5.56-14.64
		C169.79,109.31,173.88,117.62,174.1,122.6L174.1,122.6z"/>
	<path class="st141" d="M173.05,122.08c0.03,0.79-0.02,1.6-0.3,2.33c-0.48,1.25-1.56,2.16-2.75,2.63c-1.18,0.47-2.47,0.56-3.73,0.58
		c-0.46,0.01-0.94,0-1.37-0.15c-0.55-0.19-1.01-0.6-1.42-1.02c-0.57-0.58-1.08-1.22-1.46-1.96c-1.77-3.43,0.42-9.09,3.93-10.35
		C170.01,112.68,172.9,118.56,173.05,122.08L173.05,122.08z"/>
	<path class="st142" d="M171.61,123.34c0.02,0.37-0.01,0.75-0.14,1.09c-0.22,0.59-0.73,1.01-1.29,1.23
		c-0.55,0.22-1.15,0.26-1.75,0.27c-0.22,0-0.44,0-0.64-0.07c-0.26-0.09-0.47-0.28-0.66-0.48c-0.26-0.27-0.51-0.57-0.68-0.92
		c-0.83-1.6,0.2-4.26,1.84-4.84C170.19,118.95,171.54,121.7,171.61,123.34L171.61,123.34z"/>
	<path class="st69" d="M164.65,123.8c-1.32-1.72-3.6-2.09-5.67-2.34c-1.12-0.13-2.27-0.27-3.35,0.08c-0.96,0.32-1.79,0.99-2.51,1.75
		c-2.75,2.9-4.39,7.52-3.69,11.67c0.79,4.71,5.43,5.68,9.31,5.26C165.36,139.52,168.87,129.3,164.65,123.8L164.65,123.8z"/>
	<path class="st143" d="M191.88,157.26c-0.89,0.37-1.87,0.45-2.83,0.41c-2.26-0.09-4.53-0.82-6.35-2.28
		c-2.44-1.95-5.25-7.17-2.19-9.86c1.71-1.5,6.63-2.8,8.9-2.94C196.7,142.13,198.32,154.58,191.88,157.26L191.88,157.26z"/>
	<path class="st68" d="M191.69,153.34c-0.55,0.23-1.16,0.27-1.75,0.25c-1.39-0.06-2.79-0.51-3.91-1.41c-1.5-1.2-3.23-4.42-1.35-6.07
		c1.05-0.93,4.08-1.73,5.48-1.81C194.66,144.01,195.66,151.68,191.69,153.34L191.69,153.34z"/>
	<path class="st144" d="M191.37,148.93c-0.24,0.1-0.51,0.12-0.76,0.11c-0.61-0.02-1.22-0.22-1.71-0.61
		c-0.65-0.53-1.41-1.93-0.59-2.65c0.46-0.41,1.78-0.75,2.39-0.79C192.67,144.86,193.11,148.21,191.37,148.93L191.37,148.93z"/>
	<path class="st145" d="M164.26,126.18c-0.9-1.18-2.47-1.43-3.88-1.6c-0.77-0.09-1.56-0.18-2.29,0.06c-0.66,0.21-1.23,0.68-1.72,1.2
		c-1.89,1.99-3.01,5.15-2.53,7.99c0.54,3.22,3.71,3.89,6.37,3.6C164.74,136.94,167.14,129.94,164.26,126.18L164.26,126.18z"/>
	<path class="st146" d="M188.31,162.45c-0.18,1.62-0.76,3.31-2.03,4.22c-0.99,0.7-2.24,0.81-3.42,0.82
		c-1.44,0.01-2.91-0.1-4.25-0.69c-5.02-2.18-4.11-11.8,0-14.64C184.3,148.22,188.87,157.41,188.31,162.45L188.31,162.45z"/>
	<path class="st147" d="M187.27,161.24c-0.13,1.17-0.55,2.39-1.46,3.04c-0.71,0.51-1.62,0.59-2.47,0.59
		c-1.04,0.01-2.1-0.08-3.07-0.5c-3.62-1.58-2.96-8.52,0-10.57C184.37,150.98,187.67,157.61,187.27,161.24L187.27,161.24z"/>
	<path class="st148" d="M185.66,158.13c-0.06,0.53-0.25,1.09-0.67,1.39c-0.33,0.23-0.74,0.27-1.13,0.27c-0.47,0-0.96-0.04-1.4-0.23
		c-1.65-0.72-1.35-3.89,0-4.82C184.34,153.45,185.84,156.47,185.66,158.13L185.66,158.13z"/>
	<path class="st149" d="M163.63,128.93c-0.51-0.66-1.39-0.8-2.18-0.9c-0.43-0.05-0.87-0.1-1.29,0.03c-0.37,0.12-0.69,0.38-0.97,0.67
		c-1.06,1.12-1.69,2.89-1.42,4.48c0.3,1.81,2.08,2.18,3.58,2.02C163.9,134.97,165.25,131.04,163.63,128.93L163.63,128.93z"/>
	<path class="st150" d="M175.59,154.39c1.22,1.02,2.46,2.07,3.28,3.47c1.03,1.75,1.33,3.88,1.39,5.94c0.07,2.58-0.31,5.4-2.05,7.17
		c-1.19,1.21-2.85,1.75-4.47,1.93c-2.98,0.33-6.29-0.6-8-3.24c-1.95-3.01-1.22-7.17,0.26-10.48
		C167.78,155.17,171.6,151.03,175.59,154.39L175.59,154.39z"/>
	<path class="st151" d="M175.7,156.08c0.76,0.64,1.54,1.3,2.06,2.18c0.65,1.09,0.84,2.43,0.87,3.73c0.04,1.62-0.2,3.39-1.29,4.5
		c-0.74,0.76-1.78,1.1-2.81,1.21c-1.87,0.21-3.95-0.38-5.02-2.03c-1.22-1.89-0.76-4.5,0.16-6.58
		C170.8,156.57,173.2,153.98,175.7,156.08L175.7,156.08z"/>
	<path class="st152" d="M175.29,157.11c0.36,0.3,0.73,0.62,0.98,1.03c0.31,0.52,0.4,1.16,0.41,1.77c0.02,0.77-0.09,1.61-0.61,2.14
		c-0.35,0.36-0.85,0.52-1.33,0.57c-0.89,0.1-1.87-0.18-2.38-0.96c-0.58-0.9-0.36-2.14,0.08-3.12
		C172.97,157.34,174.11,156.11,175.29,157.11L175.29,157.11z"/>
	<path class="st153" d="M166.73,170.68c-1.34,1.47-3.11,2.66-5.03,2.67c-1.99,0.01-3.8-1.24-5.34-2.6c-1-0.88-1.97-1.86-2.55-3.1
		c-1.15-2.46-0.54-5.44,0.45-7.97c2.04-5.21,9.02-11.94,14.05-6.34C172.37,157.84,170.37,166.7,166.73,170.68L166.73,170.68z"/>
	<path class="st154" d="M165.71,166.35c-0.91,1-2.1,1.8-3.4,1.81c-1.35,0-2.57-0.84-3.61-1.76c-0.68-0.6-1.33-1.26-1.73-2.1
		c-0.77-1.66-0.37-3.68,0.3-5.39c1.38-3.52,6.1-8.08,9.51-4.29C169.53,157.66,168.17,163.65,165.71,166.35L165.71,166.35z"/>
	<path class="st155" d="M165.76,161.93c-0.48,0.53-1.11,0.95-1.79,0.95c-0.71,0-1.36-0.44-1.9-0.93c-0.36-0.32-0.7-0.66-0.91-1.11
		c-0.41-0.88-0.19-1.94,0.16-2.84c0.73-1.86,3.22-4.26,5.01-2.26C167.77,157.35,167.05,160.51,165.76,161.93L165.76,161.93z"/>
	<path class="st156" d="M158.62,140.46c-1.29-0.98-2.83-1.35-4.35-1.55c-1.3-0.16-2.64-0.2-3.87,0.34c-2.27,0.99-3.7,3.76-4.29,6.56
		c-0.6,2.84-0.51,5.88,0.27,8.64c1.57,5.61,9.07,8.56,12.74,3.76C162.55,153.71,163.25,143.99,158.62,140.46L158.62,140.46z"/>
	<path class="st157" d="M158.58,142.27c-0.73-0.55-1.6-0.77-2.47-0.87c-0.73-0.09-1.5-0.11-2.19,0.19
		c-1.28,0.56-2.09,2.13-2.43,3.72c-0.34,1.61-0.29,3.33,0.15,4.89c0.89,3.17,5.14,4.84,7.22,2.13
		C160.81,149.78,161.2,144.27,158.58,142.27L158.58,142.27z"/>
	<path class="st158" d="M158.22,143.22c-0.38-0.29-0.84-0.4-1.29-0.46c-0.38-0.05-0.78-0.06-1.15,0.1
		c-0.67,0.29-1.09,1.11-1.27,1.94c-0.18,0.84-0.15,1.74,0.08,2.55c0.46,1.66,2.68,2.53,3.77,1.11
		C159.39,147.14,159.6,144.26,158.22,143.22L158.22,143.22z"/>
	<path class="st159" d="M98.29,140.14c1.02,1.94,1.57,4.6,0.44,6.45c-2.93,4.81-12.05-0.33-12.22-5.8c-0.1-3,2.3-5.13,4.59-5.46
		C94.06,134.9,96.78,137.26,98.29,140.14L98.29,140.14z"/>
	<path class="st160" d="M89.64,142.52c1.02,1.94,1.57,4.6,0.44,6.45c-2.93,4.82-12.05-0.33-12.22-5.8c-0.09-3,2.3-5.13,4.59-5.46
		C85.41,137.28,88.12,139.64,89.64,142.52"/>
	<path class="st161" d="M91.94,155.56c-0.34,2.26-1.42,4.67-3.29,5.12c-4.87,1.18-8.71-10.01-5.77-14.19
		c1.62-2.29,4.57-1.92,6.46-0.31C91.76,148.25,92.44,152.2,91.94,155.56L91.94,155.56z"/>
	<path class="st162" d="M82.27,152.33c1.61-0.66,3.64-0.69,4.75,0.87c2.87,4.05-2.72,12.49-6.71,11.55c-2.19-0.52-3.23-3.45-3-5.92
		C77.62,155.67,79.88,153.32,82.27,152.33"/>
	<path class="st163" d="M79.15,146.35c1.68,0.3,3.5,1.4,3.88,3.39c1,5.18-7.19,9.6-10.37,6.56c-1.74-1.67-1.55-4.85-0.4-6.91
		C73.74,146.74,76.65,145.9,79.15,146.35"/>
	<g>
		<defs>
			<path id="SVGID_00000116237184497366255930000016870771219182235534_" d="M76.24,156.89c0.62-2.26,0.55-4.52-0.65-6.21
				c-0.22-0.31-0.46-0.57-0.73-0.78c0.29-0.19,0.6-0.35,0.92-0.47c0.33-0.06,0.66-0.15,0.98-0.24c0.23-0.03,0.47-0.05,0.7-0.05
				c0.31,0,0.61,0.03,0.91,0.08c1.18,0.21,2.46,0.98,2.73,2.39C81.62,154.25,78.72,156.62,76.24,156.89"/>
		</defs>
		<clipPath id="SVGID_00000125604327322258245210000008667522370047092661_">
			<use xlink:href="#SVGID_00000116237184497366255930000016870771219182235534_"  style="overflow:visible;"/>
		</clipPath>
		
			<rect x="74.05" y="149.1" style="clip-path:url(#SVGID_00000125604327322258245210000008667522370047092661_);fill:#D22C4D;" width="7.3" height="7.84"/>
	</g>
	<path class="st165" d="M78.2,138.81c1.73,0.96,3.4,2.83,3.29,5.12c-0.28,5.96-10.26,7.6-12.88,3.12c-1.44-2.46-0.39-5.8,1.38-7.59
		C72.28,137.18,75.63,137.38,78.2,138.81"/>
	<path class="st166" d="M73.19,149c-1.66,0-3.23-0.6-3.99-1.89c-1.07-1.82-0.29-4.3,1.03-5.62c0.9-0.9,2.02-1.28,3.16-1.28
		c1.01,0,2.03,0.3,2.92,0.79c1.28,0.71,2.52,2.1,2.44,3.8C78.62,147.49,75.8,149,73.19,149"/>
	<path class="st163" d="M82.59,132.66c1.26,1.72,2.15,4.24,1.28,6.28c-2.27,5.31-11.94,1.95-12.83-3.42
		c-0.49-2.95,1.6-5.5,3.82-6.26C77.73,128.28,80.72,130.1,82.59,132.66L82.59,132.66z"/>
	<path class="st167" d="M80.67,131.25c1.1,1.51,1.89,3.72,1.12,5.51c-1.99,4.66-10.47,1.71-11.25-3c-0.43-2.58,1.4-4.82,3.35-5.49
		C76.41,127.41,79.03,129.01,80.67,131.25L80.67,131.25z"/>
	<path class="st161" d="M92.21,136.8c-0.34,2.26-1.42,4.67-3.29,5.12c-4.87,1.18-8.71-10.01-5.77-14.19
		c1.61-2.29,4.57-1.92,6.46-0.31C92.03,129.5,92.71,133.45,92.21,136.8L92.21,136.8z"/>
	<path class="st168" d="M80.3,176.16c-1.86,0.89-4.01,0.32-5.75-0.88c-3.35-2.31-5.48-7.19-4.75-11.75
		c0.73-4.57,4.54-8.25,8.38-7.68c1.17,0.18,2.33,0.73,3.19,1.71c0.6,0.68,1.03,1.54,1.37,2.44
		C84.22,163.91,84.35,174.23,80.3,176.16L80.3,176.16z"/>
	<path class="st169" d="M78.88,173.57c-1.37,0.65-2.96,0.23-4.23-0.65c-2.47-1.71-4.04-5.29-3.5-8.66c0.54-3.36,3.35-6.08,6.17-5.65
		c0.86,0.13,1.71,0.54,2.35,1.26c0.44,0.5,0.76,1.13,1.01,1.8C81.76,164.54,81.86,172.14,78.88,173.57L78.88,173.57z"/>
	<path class="st170" d="M113.78,165.07c1.37,0.29,2.8-0.12,4.05-0.86c2.18-1.28,3.94-3.57,4.84-6.28c0.34-1.03,0.53-2.28-0.02-3.16
		c-0.55-0.89-1.62-1.02-2.55-0.92c-3.23,0.32-5.83,2.46-8.14,5.02C109.87,161.19,110.56,164.39,113.78,165.07L113.78,165.07z"/>
	<path class="st171" d="M114.92,163.89c0.99,0.21,2.01-0.09,2.91-0.62c1.57-0.92,2.84-2.57,3.48-4.52c0.24-0.74,0.38-1.64-0.01-2.28
		c-0.4-0.64-1.17-0.73-1.83-0.66c-2.32,0.23-4.19,1.77-5.86,3.61C112.11,161.09,112.6,163.4,114.92,163.89L114.92,163.89z"/>
	<path class="st172" d="M119.8,155.42c0.76-0.03,1.5-0.31,2.2-0.64c1.26-0.6,2.52-1.46,3.24-2.85c0.46-0.9,0.67-1.96,0.79-3.01
		c0.09-0.81,0.12-1.64-0.05-2.43c-1.25-5.75-7.65-2.79-9.76,0.33C114,150.09,116.15,155.56,119.8,155.42L119.8,155.42z"/>
	<path class="st173" d="M119.55,154.63c0.57-0.02,1.13-0.23,1.66-0.48c0.95-0.45,1.89-1.1,2.43-2.14c0.35-0.68,0.51-1.47,0.59-2.26
		c0.07-0.61,0.09-1.24-0.04-1.83c-0.94-4.33-5.75-2.1-7.34,0.25C115.19,150.62,116.81,154.74,119.55,154.63L119.55,154.63z"/>
	<path class="st174" d="M121.48,145.61c1.53-0.27,3.19-0.74,4.12-2.23c0.89-1.41,0.86-3.37,0.51-5.09c-1.23-6-6.83-3.83-9.41-0.27
		C113.45,142.55,117.55,146.32,121.48,145.61L121.48,145.61z"/>
	<path class="st175" d="M120.41,144.65c1.36-0.24,2.84-0.66,3.68-1.98c0.79-1.26,0.77-3.01,0.46-4.54c-1.1-5.35-6.1-3.42-8.39-0.24
		C113.25,141.92,116.91,145.28,120.41,144.65L120.41,144.65z"/>
	<path class="st161" d="M114.15,133.89c0.59,1.68,2.04,2.86,3.7,3.15c1.65,0.29,3.47-0.27,4.92-1.39c0.5-0.38,0.97-0.85,1.25-1.43
		c0.2-0.4,0.3-0.84,0.39-1.27c0.41-1.83,0.8-3.85-0.01-5.39c-0.64-1.22-1.97-1.86-3.31-1.94c-1.34-0.08-2.71,0.35-4.01,0.87
		C114.91,127.38,113.39,131.72,114.15,133.89L114.15,133.89z"/>
	<path class="st176" d="M114,134.66c0.46,1.32,1.61,2.25,2.91,2.48c1.3,0.23,2.73-0.21,3.88-1.1c0.39-0.3,0.76-0.67,0.99-1.12
		c0.15-0.32,0.23-0.66,0.31-1c0.32-1.44,0.63-3.03-0.01-4.24c-0.51-0.97-1.55-1.47-2.6-1.53c-1.06-0.06-2.13,0.27-3.16,0.69
		C114.6,129.54,113.4,132.96,114,134.66L114,134.66z"/>
	<path class="st177" d="M117.22,127.31c1.43-1.11,2.14-3.4,1.67-5.37c-0.28-1.19-0.94-2.21-1.66-3.09c-2.05-2.52-5.8-0.24-6.31,3
		C110.27,125.99,114.14,129.71,117.22,127.31L117.22,127.31z"/>
	<path class="st178" d="M115.74,126.06c0.93-0.73,1.4-2.22,1.09-3.5c-0.19-0.78-0.61-1.44-1.08-2.02c-1.34-1.65-3.79-0.16-4.12,1.96
		C111.2,125.2,113.73,127.62,115.74,126.06L115.74,126.06z"/>
	<path class="st179" d="M112.93,167.57c0.88-0.88,1.55-2.14,1.59-3.52c0.06-2.39-1.9-4.34-3.89-4.52c-3.23-0.3-7.81,3.11-6.78,7.61
		C104.99,172.08,110.62,169.86,112.93,167.57L112.93,167.57z"/>
	<path class="st180" d="M110.91,166.59c0.71-0.7,1.24-1.72,1.27-2.82c0.05-1.92-1.52-3.47-3.11-3.62c-2.59-0.24-6.26,2.49-5.43,6.1
		C104.55,170.2,109.06,168.43,110.91,166.59L110.91,166.59z"/>
	<path class="st181" d="M109.41,162.08c1.32,0.96,3.01,1.06,4.47,0.47c1.46-0.6,2.71-1.84,3.63-3.33c0.68-1.1,1.21-2.38,1.27-3.74
		c0.07-1.37-0.39-2.82-1.34-3.58c-1.01-0.81-2.34-0.71-3.51-0.33c-2.14,0.69-5.23,0.73-6.3,3.43
		C106.67,157.41,107.52,160.7,109.41,162.08L109.41,162.08z"/>
	<path class="st182" d="M108.94,160.72c0.85,0.62,1.94,0.69,2.88,0.3c0.94-0.38,1.75-1.18,2.34-2.15c0.44-0.71,0.78-1.54,0.82-2.42
		c0.05-0.88-0.25-1.82-0.86-2.31c-0.65-0.52-1.51-0.46-2.26-0.21c-1.38,0.45-3.37,0.47-4.07,2.21
		C107.18,157.71,107.72,159.83,108.94,160.72L108.94,160.72z"/>
	<path class="st183" d="M109.27,150c0,1.24,0.03,2.56,0.61,3.58c0.56,0.97,1.55,1.49,2.53,1.57c0.98,0.08,1.96-0.24,2.88-0.66
		c1.55-0.7,3.1-1.8,3.79-3.61c0.57-1.47,0.48-3.18,0.23-4.77c-0.2-1.29-0.61-2.72-1.6-3.27c-0.74-0.4-1.59-0.21-2.38,0.03
		c-1.45,0.44-4.27,0.95-5.37,2.24C108.89,146.38,109.26,148.29,109.27,150L109.27,150z"/>
	<path class="st184" d="M108.64,150.22c0,0.98,0.02,2.02,0.48,2.83c0.44,0.77,1.23,1.18,2,1.24c0.78,0.06,1.55-0.19,2.27-0.52
		c1.22-0.55,2.45-1.43,3-2.85c0.45-1.16,0.38-2.51,0.18-3.77c-0.16-1.02-0.48-2.15-1.27-2.58c-0.58-0.32-1.26-0.17-1.88,0.02
		c-1.14,0.35-3.37,0.76-4.24,1.78C108.35,147.36,108.64,148.87,108.64,150.22L108.64,150.22z"/>
	<path class="st185" d="M110.59,141.85c0.6,1.64,1.87,3.02,3.36,3.13c0.78,0.06,1.54-0.23,2.28-0.55c0.74-0.32,1.47-0.7,2.08-1.29
		c1.99-1.9,2.22-5.48,1.6-8.44c-0.08-0.37-0.17-0.76-0.37-1.07c-0.25-0.39-0.65-0.62-1.04-0.79
		C113.22,130.59,108.11,135.12,110.59,141.85L110.59,141.85z"/>
	<path class="st186" d="M110.16,142.03c0.46,1.25,1.42,2.29,2.55,2.38c0.59,0.04,1.17-0.17,1.73-0.42c0.56-0.25,1.12-0.53,1.58-0.98
		c1.51-1.45,1.69-4.17,1.21-6.42c-0.06-0.29-0.13-0.58-0.28-0.81c-0.19-0.3-0.49-0.47-0.79-0.6
		C112.16,133.46,108.28,136.91,110.16,142.03L110.16,142.03z"/>
	<path class="st187" d="M108.88,134.32c0.8,0.62,1.85,0.36,2.76,0.03c1.39-0.5,2.78-1.15,3.87-2.3c1.09-1.15,1.84-2.9,1.63-4.62
		c-0.5-4.18-5.53-6.72-8.4-4.39C106.06,125.23,106.13,132.19,108.88,134.32L108.88,134.32z"/>
	<path class="st188" d="M108.81,134.05c0.66,0.51,1.52,0.3,2.27,0.03c1.14-0.41,2.28-0.95,3.18-1.89c0.89-0.94,1.51-2.37,1.34-3.79
		c-0.41-3.42-4.54-5.51-6.89-3.59C106.5,126.59,106.55,132.3,108.81,134.05L108.81,134.05z"/>
	<path class="st189" d="M105.86,126.14c2.3,0.11,4.15-2.16,5.62-4.29c0.68-1,1.39-2.12,1.36-3.41c-0.02-1.08-0.58-2.05-1.22-2.81
		c-1.14-1.36-2.8-2.29-4.35-1.79c-1.05,0.34-1.9,1.28-2.6,2.29C102.63,119.09,100.38,125.88,105.86,126.14L105.86,126.14z"/>
	<path class="st190" d="M105.13,125.2c1.57,0.08,2.83-1.47,3.83-2.92c0.46-0.68,0.95-1.45,0.93-2.33c-0.02-0.74-0.39-1.4-0.83-1.92
		c-0.78-0.92-1.91-1.56-2.97-1.22c-0.72,0.23-1.3,0.87-1.77,1.56C102.92,120.39,101.39,125.02,105.13,125.2L105.13,125.2z"/>
	<path class="st191" d="M96.38,112.1c-0.85,1.39-0.85,3.54,0.2,4.71c0.65,0.73,1.57,0.99,2.44,1.2c1.16,0.28,2.35,0.53,3.53,0.4
		c1.18-0.13,2.37-0.69,3.13-1.79c1.02-1.47,1.05-3.68,0.41-5.43c-0.14-0.39-0.33-0.78-0.59-1.07c-0.35-0.37-0.81-0.55-1.25-0.71
		c-0.96-0.35-1.94-0.71-2.94-0.69C100.31,108.74,96.38,112.1,96.38,112.1L96.38,112.1z"/>
	<path class="st192" d="M97.42,112.84c-0.63,1.03-0.63,2.62,0.15,3.48c0.48,0.54,1.16,0.73,1.81,0.89c0.86,0.21,1.74,0.39,2.61,0.3
		c0.87-0.1,1.76-0.51,2.32-1.32c0.75-1.09,0.78-2.72,0.31-4.02c-0.11-0.29-0.24-0.58-0.44-0.79c-0.26-0.28-0.6-0.41-0.93-0.53
		c-0.71-0.26-1.43-0.53-2.17-0.51C100.33,110.36,97.42,112.84,97.42,112.84L97.42,112.84z"/>
	<path class="st193" d="M97.21,176.61c-1,0.51-2.14,0.43-3.23,0.34c-1.71-0.15-4.85,0.31-5-2.63c-0.09-1.76,1.31-2.81,2.51-3.36
		c1.6-0.73,3.61-0.69,5.17,0.18C98.67,172.27,99.82,175.28,97.21,176.61L97.21,176.61z"/>
	<path class="st194" d="M95.91,175.55c-0.83,0.42-1.77,0.36-2.66,0.28c-1.42-0.12-4,0.26-4.12-2.17c-0.07-1.46,1.08-2.32,2.07-2.77
		c1.32-0.6,2.98-0.57,4.27,0.15C97.12,171.96,98.07,174.44,95.91,175.55L95.91,175.55z"/>
	<path class="st195" d="M106.48,169.84c-0.2,1.45-1.23,2.24-2.17,2.87c-2.26,1.51-5.44,3.39-8.02,0.56
		c-1.69-1.85-1.87-4.3-0.87-6.42C97.34,162.76,107.48,162.66,106.48,169.84L106.48,169.84z"/>
	<path class="st196" d="M104.18,169.94c-0.14,1.01-0.85,1.55-1.51,1.99c-1.56,1.05-3.77,2.35-5.57,0.39
		c-1.17-1.28-1.29-2.98-0.6-4.45C97.84,165.03,104.87,164.96,104.18,169.94L104.18,169.94z"/>
	<path class="st197" d="M100.95,169.95c-0.08,0.55-0.46,0.84-0.82,1.08c-0.85,0.57-2.04,1.27-3.01,0.21
		c-0.64-0.69-0.7-1.61-0.33-2.41C97.52,167.3,101.33,167.26,100.95,169.95L100.95,169.95z"/>
	<path class="st198" d="M100.58,164.92c1.71,0.75,3.56,0.9,5.2,0.19c1.64-0.71,3.02-2.31,3.56-4.44c0.15-0.59,0.23-1.22,0.13-1.85
		c-0.61-3.81-8.08-5.7-10.38-4.56C94.94,156.34,96.92,163.32,100.58,164.92L100.58,164.92z"/>
	<path class="st199" d="M101.15,164.04c1.09,0.47,2.27,0.57,3.31,0.12c1.04-0.45,1.92-1.48,2.27-2.83c0.09-0.37,0.15-0.78,0.09-1.18
		c-0.39-2.42-5.15-3.63-6.61-2.9C97.55,158.58,98.81,163.02,101.15,164.04L101.15,164.04z"/>
	<path class="st200" d="M101.63,162.63c0.62,0.27,1.29,0.33,1.88,0.07c0.59-0.26,1.1-0.84,1.29-1.61c0.05-0.21,0.08-0.44,0.05-0.67
		c-0.22-1.38-2.93-2.07-3.76-1.65C99.59,159.52,100.31,162.05,101.63,162.63L101.63,162.63z"/>
	<path class="st201" d="M102.53,155.06c1.73,1.5,4.06,1.52,6.16,1.06c1.23-0.27,2.48-0.71,3.46-1.64c1.25-1.19,1.94-3.02,2.58-4.78
		c0.31-0.85,0.62-1.72,0.68-2.64c0.12-1.94-0.93-3.78-2.3-4.82c-2.78-2.13-9-3.65-11.67-0.57
		C98.65,144.91,99.53,152.46,102.53,155.06L102.53,155.06z"/>
	<path class="st202" d="M103.27,153.73c1.29,1.12,3.03,1.13,4.59,0.79c0.92-0.2,1.85-0.53,2.58-1.22c0.94-0.88,1.45-2.25,1.93-3.56
		c0.23-0.63,0.46-1.28,0.51-1.97c0.09-1.45-0.7-2.81-1.71-3.59c-2.07-1.59-6.71-2.72-8.7-0.43
		C100.38,146.16,101.04,151.79,103.27,153.73L103.27,153.73z"/>
	<path class="st203" d="M104.02,152.12c0.61,0.53,1.43,0.54,2.17,0.37c0.43-0.1,0.87-0.25,1.22-0.58c0.44-0.42,0.68-1.06,0.91-1.68
		c0.11-0.3,0.22-0.6,0.24-0.93c0.04-0.68-0.33-1.33-0.81-1.7c-0.98-0.75-3.16-1.28-4.1-0.2
		C102.66,148.55,102.97,151.2,104.02,152.12L104.02,152.12z"/>
	<path class="st204" d="M105.68,143.66c3.27-0.95,6.24-3.83,7.22-7.7c2.61-10.29-8.43-14.59-13.96-8.3
		C93.72,133.58,98.31,145.8,105.68,143.66L105.68,143.66z"/>
	<path class="st205" d="M105.1,141.48c2.28-0.66,4.34-2.66,5.02-5.36c1.82-7.15-5.86-10.14-9.71-5.77
		C96.79,134.47,99.98,142.97,105.1,141.48L105.1,141.48z"/>
	<path class="st206" d="M102.51,140.99c1.47-0.43,2.8-1.72,3.24-3.46c1.17-4.62-3.78-6.55-6.27-3.73
		C97.14,136.47,99.2,141.95,102.51,140.99L102.51,140.99z"/>
	<path class="st207" d="M93.13,120.79c0.34-2.72,2.18-5.09,4.42-5.68c0.62-0.16,1.26-0.2,1.9-0.16c0.82,0.05,1.63,0.24,2.43,0.45
		c0.8,0.21,1.63,0.46,2.29,1.04c0.64,0.56,1.09,1.39,1.4,2.27C109.57,129.99,91.78,131.61,93.13,120.79L93.13,120.79z"/>
	<path class="st208" d="M95.59,122.17c0.21-1.64,1.31-3.06,2.66-3.41c0.38-0.1,0.76-0.12,1.14-0.1c0.49,0.03,0.98,0.14,1.46,0.27
		c0.48,0.13,0.98,0.27,1.38,0.62c0.39,0.34,0.65,0.84,0.84,1.36C105.47,127.69,94.77,128.67,95.59,122.17L95.59,122.17z"/>
	<path class="st209" d="M96.38,123.52c0.12-0.94,0.75-1.76,1.52-1.96c0.21-0.06,0.43-0.07,0.65-0.05c0.28,0.02,0.57,0.08,0.84,0.15
		c0.28,0.07,0.56,0.16,0.79,0.36c0.22,0.19,0.38,0.48,0.48,0.78C102.05,126.69,95.91,127.26,96.38,123.52L96.38,123.52z"/>
	<path class="st210" d="M91.14,121.56c3.38,0.87,7.17-0.78,8.35-4.83c2.09-7.17-7.16-10.32-10.83-8.53
		C82.83,111.04,85.74,120.16,91.14,121.56L91.14,121.56z"/>
	<path class="st211" d="M91.01,120.75c2.19,0.56,4.64-0.51,5.41-3.13c1.36-4.64-4.64-6.68-7.01-5.52
		C85.63,113.95,87.51,119.85,91.01,120.75L91.01,120.75z"/>
	<path class="st212" d="M89.93,121.1c1.43,0.37,3.03-0.33,3.53-2.04c0.88-3.03-3.03-4.36-4.57-3.6
		C86.42,116.65,87.65,120.51,89.93,121.1L89.93,121.1z"/>
	<path class="st213" d="M80.59,109.48c1.43-0.9,3.22-1.21,4.66-0.34c0.27,0.17,0.53,0.38,0.76,0.63c0.97,1.08,1.45,2.82,0.9,4.25
		C84.67,119.74,75.27,112.84,80.59,109.48L80.59,109.48z"/>
	<path class="st214" d="M80.59,111.44c1.43-0.9,3.22-1.21,4.66-0.34c0.27,0.17,0.53,0.38,0.76,0.63c0.97,1.08,1.45,2.82,0.9,4.25
		C84.68,121.7,75.27,114.8,80.59,111.44L80.59,111.44z"/>
	<path class="st215" d="M78.75,166.55c-0.09-3.59,2.49-6.57,5.29-7.81c0.78-0.34,1.6-0.59,2.43-0.59c0.23,0,0.45,0.02,0.67,0.05
		c1.96,0.32,3.67,1.96,4.96,3.81c1.28,1.85,2.31,4.18,2.08,6.57C93.21,178.54,78.98,175.8,78.75,166.55L78.75,166.55z"/>
	<path class="st216" d="M80.53,167.74c-0.05-2.09,1.45-3.82,3.08-4.54c0.45-0.2,0.93-0.34,1.41-0.34l0.39,0.03
		c1.14,0.18,2.14,1.14,2.88,2.22c0.74,1.08,1.34,2.43,1.21,3.82C88.93,174.71,80.66,173.11,80.53,167.74L80.53,167.74z"/>
	<path class="st217" d="M81.61,168.73c-0.02-0.71,0.5-1.31,1.05-1.56c0.16-0.07,0.32-0.12,0.48-0.12l0.13,0.01
		c0.39,0.06,0.73,0.39,0.99,0.76c0.25,0.37,0.46,0.83,0.41,1.31C84.49,171.12,81.65,170.58,81.61,168.73L81.61,168.73z"/>
	<path class="st218" d="M86.38,163.9c-0.43-0.99-0.77-2.07-0.81-3.19c-0.07-1.92,0.72-3.77,1.84-5.13c1.12-1.36,2.55-2.3,3.99-3.13
		c0.53-0.3,1.07-0.6,1.65-0.68c0.72-0.11,1.45,0.12,2.13,0.4c0.93,0.39,1.85,0.88,2.64,1.58c3.72,3.26,4.02,11.94,0.63,15.79
		C94.52,174,88.3,168.31,86.38,163.9L86.38,163.9z"/>
	<path class="st219" d="M87.41,163.9c-0.31-0.7-0.54-1.46-0.57-2.25c-0.05-1.35,0.51-2.66,1.3-3.63c0.79-0.96,1.8-1.62,2.82-2.21
		c0.37-0.21,0.76-0.42,1.17-0.48c0.51-0.08,1.02,0.09,1.51,0.29c0.66,0.27,1.31,0.62,1.87,1.12c2.63,2.31,2.85,8.44,0.45,11.16
		C93.16,171.04,88.76,167.02,87.41,163.9L87.41,163.9z"/>
	<path class="st220" d="M88.13,162.1c-0.14-0.33-0.25-0.68-0.27-1.05c-0.02-0.63,0.24-1.25,0.61-1.7c0.37-0.45,0.84-0.76,1.32-1.03
		c0.17-0.1,0.35-0.2,0.54-0.23c0.24-0.04,0.48,0.04,0.71,0.13c0.31,0.13,0.61,0.29,0.87,0.52c1.23,1.08,1.33,3.95,0.21,5.22
		C90.82,165.44,88.76,163.56,88.13,162.1L88.13,162.1z"/>
	<path class="st221" d="M93.6,158.53c1.67,0.96,3.65,0.27,5.41-0.44c0.95-0.38,1.94-0.79,2.68-1.59c0.67-0.72,1.1-1.71,1.42-2.72
		c1.21-3.88,0.92-8.81-1.09-12.25c-2.29-3.91-6.38-2.7-9.38-0.57C87.52,144.59,88.26,155.45,93.6,158.53L93.6,158.53z"/>
	<path class="st222" d="M93.09,156.2c1.15,0.66,2.5,0.18,3.7-0.3c0.65-0.26,1.32-0.54,1.84-1.09c0.46-0.49,0.75-1.17,0.97-1.86
		c0.83-2.65,0.63-6.03-0.75-8.39c-1.57-2.68-4.37-1.85-6.42-0.39C88.93,146.66,89.44,154.09,93.09,156.2L93.09,156.2z"/>
	<path class="st223" d="M92.64,153.42c0.64,0.37,1.4,0.1,2.08-0.17c0.37-0.15,0.74-0.3,1.03-0.61c0.26-0.28,0.42-0.66,0.54-1.05
		c0.47-1.49,0.35-3.38-0.42-4.71c-0.88-1.5-2.45-1.04-3.61-0.22C90.3,148.07,90.59,152.24,92.64,153.42L92.64,153.42z"/>
	<path class="st224" d="M74.04,135.74c-1.34-0.38-2.71-0.77-3.88-1.66c-1.45-1.12-2.44-2.92-3.21-4.76
		c-0.96-2.31-1.64-5.04-0.85-7.44c0.54-1.63,1.69-2.87,2.95-3.77c2.29-1.65,5.31-2.3,7.61-0.68c2.63,1.85,3.5,5.96,3.46,9.62
		C80.08,131.5,78.44,136.98,74.04,135.74L74.04,135.74z"/>
	<path class="st225" d="M75.5,116.95c0.57-1.94,1.58-3.82,3.14-4.69c1.61-0.91,3.51-0.59,5.24-0.05c1.12,0.35,2.25,0.8,3.15,1.66
		c1.79,1.71,2.34,4.68,2.43,7.43c0.18,5.64-3.12,14.9-9.16,12.1C75.43,131.15,73.95,122.21,75.5,116.95L75.5,116.95z"/>
	<path class="st226" d="M77.84,120.43c0.39-1.31,1.07-2.58,2.12-3.17c1.09-0.61,2.37-0.4,3.54-0.03c0.76,0.24,1.52,0.54,2.13,1.12
		c1.21,1.16,1.58,3.17,1.64,5.03c0.12,3.82-2.11,10.08-6.2,8.19C77.79,130.03,76.79,123.98,77.84,120.43L77.84,120.43z"/>
	<path class="st227" d="M79.35,124.45c0.2-0.69,0.57-1.36,1.12-1.67c0.58-0.32,1.25-0.21,1.87-0.02c0.4,0.12,0.8,0.28,1.13,0.59
		c0.64,0.61,0.84,1.67,0.87,2.65c0.06,2.01-1.11,5.32-3.27,4.32C79.33,129.51,78.8,126.32,79.35,124.45L79.35,124.45z"/>
	<path class="st228" d="M92.66,140.7c1.38,0.31,2.77-0.05,4.07-0.57c1.11-0.44,2.21-1.02,3.02-2.06c1.49-1.92,1.68-5.09,1.18-7.89
		c-0.51-2.85-1.65-5.56-3.24-7.71c-3.24-4.37-10.35-3.66-11.64,2.35C84.83,130.46,87.67,139.59,92.66,140.7L92.66,140.7z"/>
	<path class="st229" d="M92.05,139.04c0.78,0.17,1.57-0.03,2.3-0.32c0.63-0.25,1.25-0.58,1.71-1.17c0.84-1.09,0.95-2.88,0.67-4.47
		c-0.29-1.61-0.93-3.15-1.84-4.37c-1.83-2.48-5.86-2.08-6.59,1.33C87.62,133.24,89.23,138.41,92.05,139.04L92.05,139.04z"/>
	<path class="st230" d="M92.01,138.02c0.41,0.09,0.82-0.02,1.2-0.17c0.33-0.13,0.65-0.3,0.89-0.61c0.44-0.57,0.5-1.5,0.35-2.33
		c-0.15-0.84-0.49-1.64-0.96-2.28c-0.96-1.29-3.06-1.08-3.44,0.69C89.69,134.99,90.53,137.69,92.01,138.02L92.01,138.02z"/>
	<path class="st231" d="M146.26,84.6c-3.42-0.08-6.94,1.67-10.38,1.21c-1.35-0.18-2.56-0.69-3.85-1.03
		c0.12-0.16,0.24-0.31,0.35-0.47c2.2-3.17,1.71-6.37,2.05-9.81c0.24-2.41,1.09-5.36,3.3-7.11c2.2-1.74,5.7-3.65,9.72-3.6
		c1.54,0.02-2.13-1.57-3.45-1.86c-1.9-0.42-5.02,0.31-6.76,0.9c-3.62,1.23-6.98,3.55-9.33,6.03c-2.64,2.79-3.62,5.81-4.47,9.17
		c-0.33,1.3-1.06,2.29-2.03,3.15c-0.64-1.39-1.38-2.76-2.14-3.97c-1.58-2.52-4.15-4.26-7.19-5.64c-2.53-1.14-5.28-1.94-7.89-2.94
		c-2.73-1.04-7.66-2.43-8.94-4.71c-0.83-1.48-1.95-0.24-1.5,1.23c0.73,2.37,1.95,4.5,4.03,6.33c2.01,1.76,4.47,3.1,6.74,4.64
		c1.97,1.35,3.71,2.85,4.78,4.75c0.57,1,0.97,2.01,1.37,3.01c-2.75,1.12-5.48,2.45-8.45,2.67c-2.01,0.15-4.05-0.14-6.07,0.01
		c-1.88,0.14-3.73,0.44-5.61,0.6c-3.33,0.28-7.09,0.43-9.17,2.68c-3.69,3.99-0.42,5.82-0.22,5.55c0.76-1.04,1.17-2.05,2.54-2.73
		c1.16-0.59,2.54-0.79,3.89-0.78c3.51,0.01,5.67,1.89,8.86,2.7c3.63,0.92,7.64,0.84,11.24-0.13c2.61-0.7,5.52-1.58,8.14-2.63
		c-1.32,2.6-1.77,5.56-1.67,8.35c0.1,2.63,0.79,5.44-0.55,7.96c-1.27,2.38-9.04,7.06-8.65,7.31c0,0,7.05,0.29,9.72-0.75
		c3.59-1.4,7.62-4.65,8.82-7.6c1.21-3,1.24-6.15,1.77-9.24c0.12-0.7,0.48-2.01,0.8-2.63c0.34-0.66,0.88-1.21,1.43-1.77
		c0.56,0.04,1.15,0.02,1.75-0.08l0.09-0.02c0.58,0.14,1.13,0.36,1.7,0.53c1.54,0.46,3.19,0.68,4.84,0.77
		c3.05,0.15,6.19-0.42,9.12-1.04c2.85-0.6,5.35-1.97,8.17-2.55c1.68-0.34,4.6-0.24,5.89,0.69c0.56,0.4,1.44,0.12,1.47-0.48
		C160.54,91.29,158.74,84.89,146.26,84.6L146.26,84.6z"/>
	<g>
		<defs>
			<path id="SVGID_00000000917252483083109820000012929434386957680779_" d="M146.26,84.6c-1.55-0.03-3.12,0.3-4.69,0.64
				c-1.9,0.41-3.81,0.82-5.69,0.57c-1.35-0.18-2.56-0.69-3.85-1.03c0.12-0.16,0.24-0.31,0.35-0.47c2.2-3.17,1.71-6.37,2.05-9.81
				c0.24-2.41,1.09-5.36,3.3-7.11c2.2-1.74,5.7-3.65,9.72-3.6c1.54,0.02-2.13-1.57-3.45-1.86c-1.9-0.42-5.02,0.31-6.76,0.9
				c-3.62,1.23-6.98,3.55-9.33,6.03c-2.64,2.79-3.62,5.81-4.47,9.17c-0.33,1.3-1.06,2.29-2.03,3.15c-0.64-1.39-1.38-2.76-2.14-3.97
				c-1.58-2.52-4.15-4.26-7.19-5.64c-2.53-1.14-5.28-1.94-7.89-2.94c-2.73-1.04-7.66-2.43-8.94-4.71c-0.83-1.48-1.95-0.24-1.5,1.23
				c0.73,2.37,1.95,4.5,4.03,6.33c2.01,1.76,4.47,3.1,6.74,4.64c1.97,1.35,3.71,2.85,4.78,4.75c0.57,1,0.97,2.01,1.37,3.01
				c-2.75,1.12-5.48,2.45-8.45,2.67c-1,0.08-2.02,0.04-3.03,0.01c-1.01-0.03-2.03-0.07-3.04,0.01c-1.88,0.14-3.73,0.44-5.61,0.6
				c-3.33,0.28-7.09,0.43-9.17,2.68c-3.69,3.99-0.42,5.82-0.22,5.55c0.76-1.04,1.17-2.05,2.54-2.73c1.16-0.59,2.54-0.79,3.89-0.78
				c3.51,0.01,5.67,1.89,8.86,2.7c3.63,0.92,7.64,0.84,11.24-0.13c2.61-0.7,5.52-1.58,8.14-2.63c-1.32,2.6-1.77,5.56-1.67,8.35
				c0.1,2.63,0.79,5.44-0.55,7.96c-1.27,2.38-9.04,7.06-8.65,7.31c0,0,7.05,0.29,9.72-0.75c3.59-1.4,7.62-4.65,8.82-7.6
				c1.21-3,1.24-6.15,1.77-9.24c0.12-0.7,0.48-2.01,0.8-2.63c0.34-0.66,0.88-1.21,1.43-1.77c0.56,0.04,1.15,0.02,1.75-0.08
				l0.09-0.02c0.58,0.14,1.13,0.36,1.7,0.53c1.54,0.46,3.19,0.68,4.84,0.77c3.05,0.15,6.19-0.42,9.12-1.04
				c2.85-0.6,5.35-1.97,8.17-2.55c1.68-0.34,4.6-0.24,5.89,0.69c0.56,0.4,1.44,0.12,1.47-0.48
				C160.54,91.29,158.74,84.89,146.26,84.6"/>
		</defs>
		<clipPath id="SVGID_00000061433461811903011950000003322696146832119983_">
			<use xlink:href="#SVGID_00000000917252483083109820000012929434386957680779_"  style="overflow:visible;"/>
		</clipPath>
		<path style="clip-path:url(#SVGID_00000061433461811903011950000003322696146832119983_);fill:#6CB244;" d="M124.39,86.62
			c2.48,0.32,5.53,0.12,7.52-1.71c2.17-2,2.58-5.12,2.88-7.98c0.41-3.78,1.13-7.6,4.56-9.53c1.49-0.84,3.2-1.21,4.87-1.29
			c1.61-0.07,2.96,0.5,4.52,0.74c0.6,0.09,1.37-0.41,1.1-1.18c-1.05-2.99-4.83-2.74-7.28-2.38c-3.07,0.45-6.01,1.82-7.87,4.57
			c-1.95,2.89-2.2,6.4-2.49,9.83c-0.19,2.3-0.45,5.05-2.36,6.52c-1.4,1.08-3.81,1.8-5.5,2.06C124.14,86.31,124.22,86.6,124.39,86.62
			L124.39,86.62z"/>
		<path style="clip-path:url(#SVGID_00000061433461811903011950000003322696146832119983_);fill:#50853D;" d="M123.65,83.55
			c0.7-1.26,0.65-2.76,0.96-4.17c0.38-1.68,1.16-3.05,2.03-4.48c1.83-3.02,3.91-5.95,6.63-8.11c2.43-1.93,5.27-3.22,8.32-3.34
			c1.49-0.06,2.96,0.16,4.39,0.59c1.24,0.38,2.38,1.06,3.66,0.64c0.29-0.1,0.49-0.43,0.4-0.76c-0.83-3.02-5.69-3.38-8.11-3.35
			c-3.62,0.04-7.1,1.45-10,3.75c-2.97,2.35-5.35,5.49-7.26,8.86c-1.61,2.84-3.44,7.18-1.52,10.36
			C123.26,83.75,123.53,83.76,123.65,83.55L123.65,83.55z"/>
		<path style="clip-path:url(#SVGID_00000061433461811903011950000003322696146832119983_);fill:#50853D;" d="M93.01,62.47
			c0.54,2.48,2.43,4.16,4.44,5.36c2.67,1.6,5.69,2.89,8.61,3.81c3.02,0.95,5.92,1.53,8.39,3.78c1.1,1.01,2.03,2.19,2.8,3.51
			c0.65,1.11,1.33,2.85,2.4,3.55c0.4,0.26,2.15,2.19,2.29,1.76c0.83-2.53-2.81-8.12-4.33-9.84c-1.74-1.98-3.94-3.49-6.33-4.38
			c-3.02-1.13-6.15-1.7-9.15-2.98c-3.05-1.3-5.74-2.75-8.15-5.17C93.55,61.44,92.88,61.86,93.01,62.47L93.01,62.47z"/>
		<path style="clip-path:url(#SVGID_00000061433461811903011950000003322696146832119983_);fill:#6CB244;" d="M93.16,62.41
			c-1.15,1.47,0.09,3.38,0.81,4.73c1.37,2.59,2.51,4.95,4.69,6.92c2.02,1.83,4.68,2.74,6.82,4.45c1.18,0.95,2.29,2.04,3.08,3.38
			c0.64,1.08,0.91,2.1,1.91,2.84c0.35,0.26,0.99,0.1,1.17-0.33c1.84-4.27-4.94-8.95-7.74-10.6c-2.7-1.59-5.07-3.06-6.78-5.95
			c-0.72-1.21-1.49-2.25-2.28-3.4c-0.51-0.75-0.67-1.61-1.45-2.07L93.16,62.41L93.16,62.41z"/>
		<path style="clip-path:url(#SVGID_00000061433461811903011950000003322696146832119983_);fill:#6CB244;" d="M104.02,116.31
			c3.33,1.47,7.81,0.75,11.14-0.47c2.93-1.08,5.66-2.91,7.57-5.56c2.17-3.02,2.51-6.61,3.15-10.24c0.38-2.14,1.18-3.91,1.93-5.9
			c0.6-1.59,0.8-3.14-0.1-4.63c-0.28-0.46-1.03-0.44-1.16,0.16c-0.63,3.12-2.32,5.77-2.96,8.89c-0.65,3.18-0.67,6.59-2.37,9.41
			c-3.59,5.96-11.16,6.72-17.12,7.57C103.71,115.61,103.63,116.14,104.02,116.31L104.02,116.31z"/>
		<path style="clip-path:url(#SVGID_00000061433461811903011950000003322696146832119983_);fill:#50853D;" d="M81.9,97.31
			c-0.07-1.91-1.15-3.85-0.18-5.7c0.83-1.57,2.63-2.19,4.19-2.45c3.55-0.59,7.23-0.01,10.79,0.12c3.25,0.12,6.49-0.09,9.57-1.29
			c1.6-0.62,3.15-1.39,4.77-1.97c1.54-0.55,3.07-0.68,4.64-1.06c0.52-0.13,0.54-0.9,0.14-1.13c-2.61-1.51-7.04,0.6-10.26,1.71
			c-4.54,1.56-10.11,0.74-14.78,0.62c-3.41-0.09-7.63-0.07-10.21,2.74c-2.16,2.36-2.31,7.1,0.66,8.81
			C81.52,97.88,81.92,97.68,81.9,97.31L81.9,97.31z"/>
		<path style="clip-path:url(#SVGID_00000061433461811903011950000003322696146832119983_);fill:#50853D;" d="M117.91,87.39
			c-4.35,2.17-5.3,10-4.96,14.46c0.12,1.62,0.58,3.42,0.2,5.03c-0.4,1.72-1.89,3.13-3.22,4.07c-2.2,1.56-4.83,2.19-7.05,3.67
			c-0.55,0.36-0.53,1.17,0,1.54c2.08,1.46,5.41-0.71,7.31-1.81c2.33-1.35,4.78-3.47,5.59-6.28c0.92-3.21-0.33-6.66-0.06-9.95
			c0.15-1.85,0.59-3.7,1.17-5.44c0.53-1.58,1.39-3.11,1.62-4.77C118.57,87.49,118.26,87.22,117.91,87.39L117.91,87.39z"/>
		<path style="clip-path:url(#SVGID_00000061433461811903011950000003322696146832119983_);fill:#6CB244;" d="M81.85,99.25
			c0.39-1.6,0.73-3.51,1.93-4.66c1.63-1.56,4.26-1.1,6.21-0.69c3.73,0.8,7.2,2.32,11.03,2.63c6.29,0.51,13.88-2.16,17-8.61
			c0.37-0.75-0.49-0.81-1.07-0.31c-3.06,2.63-6.44,4.81-10.35,5.6c-4.88,0.97-9.32-0.38-14-1.69c-3.17-0.88-7.45-1.81-10.19,0.75
			c-1.85,1.72-2.95,5.04-0.99,7.11C81.55,99.52,81.8,99.46,81.85,99.25L81.85,99.25z"/>
		<path style="clip-path:url(#SVGID_00000061433461811903011950000003322696146832119983_);fill:#6CB244;" d="M130.66,85.88
			c3.03,0.15,5.82,1.9,8.88,1.69c1.35-0.09,2.67-0.48,4.01-0.7c2.07-0.33,4.01-0.13,6.03,0.44c2.87,0.82,6.72,0.53,8.99,2.81
			c1.76,1.77,3.03,4.67,5.92,3.73c0.45-0.15,0.78-0.78,0.47-1.25c-0.8-1.21-2.07-1.85-2.99-2.96c-1.02-1.22-1.86-2.39-3.22-3.19
			c-1.24-0.73-2.57-1.03-3.96-1.21c-2.06-0.27-3.96-0.89-5.99-1.31c-3.66-0.75-6.75,0.67-10.35,0.6c-2.52-0.05-6-1.84-8.05,0.64
			C130.17,85.45,130.32,85.86,130.66,85.88L130.66,85.88z"/>
		<path style="clip-path:url(#SVGID_00000061433461811903011950000003322696146832119983_);fill:#50853D;" d="M127.41,92.1
			c0.36,7.56,8.81,4.15,12.77,3.49c3.63-0.61,7.16-1.68,10.76-2.43c1.97-0.41,4.05-0.79,6.05-0.36c1.97,0.42,3.59,1.77,5.59,2.07
			c0.66,0.1,1.53-0.64,1-1.4c-3.93-5.69-11.44-3.84-16.87-2.51c-6.19,1.51-14.25,4.44-19.11-1.51c-0.12-0.15-0.34-0.24-0.53-0.25
			c-0.24-0.01-0.41,0.25-0.35,0.5C126.71,89.69,127.38,91.47,127.41,92.1L127.41,92.1z"/>
	</g>
	<path class="st234" d="M132.51,39.56c-0.27-2.21-1.59-3.52-3.12-3.67c-1.91-0.18-3.55,1.55-4.76,3.49
		c-2.58,4.13-4.39,9.1-5.53,14.37c-1.13,5.25-1.58,10.91-1.25,16.39c0.31,5.3,1.1,11.15,4.19,14.57c0.58,0.64,1.34-0.24,1.36-1.12
		c0.09-3.97-0.84-7.83-1.24-11.76c-0.44-4.33-0.33-8.84,0.31-13.12c0.63-4.25,1.75-8.21,3.29-11.95c1.12-2.71,3.41-7.95,5.85-6.21
		C132.11,40.92,132.6,40.33,132.51,39.56L132.51,39.56z"/>
	<g>
		<defs>
			<path id="SVGID_00000163765451488802547860000009337302834642613141_" d="M132.51,39.56c-0.27-2.21-1.59-3.52-3.12-3.67
				c-1.91-0.18-3.55,1.55-4.76,3.49c-2.58,4.13-4.39,9.1-5.53,14.37c-1.13,5.25-1.58,10.91-1.25,16.39
				c0.31,5.3,1.1,11.15,4.19,14.57c0.58,0.64,1.34-0.24,1.36-1.12c0.09-3.97-0.84-7.83-1.24-11.76c-0.44-4.33-0.33-8.84,0.31-13.12
				c0.63-4.25,1.75-8.21,3.29-11.95c1.12-2.71,3.41-7.95,5.85-6.21C132.11,40.92,132.6,40.33,132.51,39.56"/>
		</defs>
		<clipPath id="SVGID_00000025437083807793378990000010060628016194878866_">
			<use xlink:href="#SVGID_00000163765451488802547860000009337302834642613141_"  style="overflow:visible;"/>
		</clipPath>
		<path style="clip-path:url(#SVGID_00000025437083807793378990000010060628016194878866_);fill:#5E9A42;" d="M123.78,84.47
			c1.11-3.64,0.22-7.91-0.13-11.64c-0.37-3.83-0.75-7.66-0.74-11.51c0.02-3.91,0.39-7.65,2.08-11.16c0.69-1.44,4.53-9.45,6.66-7.84
			c0.99,0.75,2.09-0.68,1.57-1.69c-1.68-3.27-5.58,0.48-6.9,2.21c-2.45,3.22-3.86,7.68-4.54,11.8c-0.78,4.76-1.29,9.42-0.85,14.21
			c0.25,2.67,0.58,5.32,0.88,7.98c0.29,2.58,0.34,5.22,1.25,7.65C123.21,84.82,123.67,84.86,123.78,84.47L123.78,84.47z"/>
		<path style="clip-path:url(#SVGID_00000025437083807793378990000010060628016194878866_);fill:#467E3B;" d="M121.31,84.14
			c-0.4-4.34-1.54-8.53-1.78-12.93c-0.24-4.4-0.29-8.88,0-13.28c0.32-4.76,1.65-9,3.56-13.28c1.84-4.11,4.11-7.69,8.73-7.67
			c1.31,0,1.63-2.15,0.31-2.49c-3.95-1.01-7.51,2.11-9.52,5.45c-2.5,4.13-4.44,9.29-5.17,14.15c-0.8,5.33-0.61,10.9-0.33,16.28
			c0.25,4.73,0.56,10.29,3.41,14.11C120.77,84.81,121.35,84.55,121.31,84.14L121.31,84.14z"/>
	</g>
	<path class="st237" d="M159.54,126.81c0.24,0.76,0.92,1.18,1.25,1.89c0.48,1.03,0.36,2.28,0.6,3.38c0.26,1.15,1.76,1.3,2.3,0.32
		c1.02-1.86,0.62-4.47-0.97-5.85c-0.57-0.5-1.46-0.96-2.21-0.8C160.15,125.85,159.38,126.27,159.54,126.81L159.54,126.81z"/>
	<path class="st237" d="M155.07,146.07c0.15,0.46,0.28,0.91,0.62,1.27c0.46,0.49,1.16,0.63,1.76,0.36c0.6-0.27,0.97-0.88,0.99-1.58
		c0.02-0.51-0.21-0.94-0.4-1.39c-0.15-0.36-0.63-0.72-0.97-0.8c-0.36-0.09-0.71-0.07-1.06,0.09
		C155.31,144.33,154.8,145.25,155.07,146.07L155.07,146.07z"/>
	<path class="st237" d="M173.35,157c-0.14,0.16-0.25,0.35-0.31,0.56c-0.04,0.14-0.07,0.29-0.07,0.44l0.04,0.35l-0.01-0.04
		c0,0.04,0.01,0.31,0.01,0.12c0.02-0.15,0.02-0.1-0.01,0.13l-0.02,0.28c0.01,0.2,0.03,0.4,0.02,0.6c-0.09,1.71,2.47,2.1,2.81,0.41
		c0.07-0.36,0.12-0.72,0.09-1.08c-0.05-0.57-0.27-0.98-0.6-1.41C174.85,156.8,173.9,156.32,173.35,157L173.35,157z"/>
	<path class="st237" d="M97.83,141.96c0.73,2.31,0.73,5.03,0.35,7.44c-0.27,1.73-1.42,3.77-0.87,5.47c0.12,0.37,0.47,0.63,0.84,0.51
		c2.11-0.65,2.53-3.96,2.6-5.98c0.1-2.93-0.86-5.29-2.3-7.73C98.26,141.34,97.7,141.55,97.83,141.96L97.83,141.96z"/>
	<path class="st237" d="M141.66,99.37c0.46,0,0.95-0.22,1.28-0.57c0.31-0.34,0.55-0.89,0.53-1.37c-0.04-1.05-0.79-1.94-1.81-1.94
		c-0.46,0-0.95,0.22-1.28,0.57c-0.31,0.34-0.55,0.89-0.53,1.37C139.9,98.48,140.65,99.37,141.66,99.37L141.66,99.37z"/>
</g>
</svg>
